/* XPM */
static char *e853383e02ea4912c55bd1f4bdff87acoQt6iBvyl2q6CgPE[] = {
/* columns rows colors chars-per-pixel */
"80 80 230 2 ",
"   c #071700",
".  c #1B1900",
"X  c #241A00",
"o  c #2B1A00",
"O  c #281600",
"+  c #311A01",
"@  c #391B06",
"#  c #072703",
"$  c #1D2608",
"%  c #0F3A13",
"&  c #29230A",
"*  c #2C2D12",
"=  c #401F0C",
"-  c #43220D",
";  c #44280D",
":  c #472510",
">  c #004D1E",
",  c #044A19",
"<  c #154C1D",
"1  c #00511F",
"2  c #0A511E",
"3  c #18591D",
"4  c #024D21",
"5  c #094D26",
"6  c #045324",
"7  c #095525",
"8  c #0D5926",
"9  c #0B5529",
"0  c #065A29",
"q  c #0C5B2C",
"w  c #055927",
"e  c #1B5D22",
"r  c #125D2D",
"t  c #1B5D2B",
"y  c #155726",
"u  c #0E5D32",
"i  c #125E30",
"p  c #194C23",
"a  c #235826",
"s  c #325630",
"d  c #0D622E",
"f  c #0F6025",
"g  c #1D6226",
"h  c #14622C",
"j  c #1B642C",
"k  c #16662A",
"l  c #0E6331",
"z  c #0C6B33",
"x  c #0F6D38",
"c  c #146433",
"v  c #1A6534",
"b  c #146B35",
"n  c #1B6B34",
"m  c #1A6638",
"M  c #156D39",
"N  c #1B6D3B",
"B  c #14673A",
"V  c #157137",
"C  c #1A7136",
"Z  c #16713B",
"A  c #1A723D",
"S  c #21652C",
"D  c #28662B",
"F  c #226533",
"G  c #246C34",
"H  c #2C6C35",
"J  c #236D3C",
"K  c #2A673A",
"L  c #336B33",
"P  c #326C39",
"I  c #22723D",
"U  c #2B733C",
"Y  c #257236",
"T  c #34733A",
"R  c #39763C",
"E  c #306A2F",
"W  c #1D7341",
"Q  c #1D7942",
"!  c #177540",
"~  c #1C6E40",
"^  c #226E40",
"/  c #227342",
"(  c #2A7343",
")  c #227842",
"_  c #2D7D4A",
"`  c #347C45",
"'  c #3D7B44",
"]  c #367845",
"[  c #327E50",
"{  c #386B42",
"}  c #477B46",
"|  c #7A7857",
" . c #6E7751",
".. c #817A57",
"X. c #2E8047",
"o. c #38834D",
"O. c #3A8752",
"+. c #369158",
"@. c #43854B",
"#. c #4D854D",
"$. c #55854F",
"%. c #438A53",
"&. c #4E8C58",
"*. c #498A54",
"=. c #588E5A",
"-. c #49915B",
";. c #58935A",
":. c #628C55",
">. c #66935E",
",. c #4C9361",
"<. c #469261",
"1. c #5B9C66",
"2. c #589A65",
"3. c #6B9E64",
"4. c #669A67",
"5. c #6F8A67",
"6. c #5AA66D",
"7. c #5DA572",
"8. c #55A973",
"9. c #5FB27A",
"0. c #65A56B",
"q. c #6BA36C",
"w. c #6AA86E",
"e. c #77A46D",
"r. c #68AA75",
"t. c #77AC76",
"y. c #7AB37A",
"u. c #6DB576",
"i. c #8E976A",
"p. c #95966D",
"a. c #989C71",
"s. c #85B37B",
"d. c #9DA377",
"f. c #63AF80",
"g. c #7CBB86",
"h. c #68B281",
"j. c #7CC288",
"k. c #76C690",
"l. c #84BC82",
"z. c #89BE86",
"x. c #93BD86",
"c. c #A4A981",
"v. c #A4A888",
"b. c #A9BB89",
"n. c #85C48C",
"m. c #8AC58D",
"M. c #8AC387",
"N. c #95C68D",
"B. c #8EC996",
"V. c #8DCD9B",
"C. c #87C896",
"Z. c #97CB95",
"A. c #9BD39E",
"S. c #98D49C",
"D. c #A2CD99",
"F. c #A6D59D",
"G. c #A3C48F",
"H. c #8ED7A3",
"J. c #9BD4A2",
"K. c #9BDBA5",
"L. c #A5DAA3",
"P. c #ACDCA4",
"I. c #A3DEAB",
"U. c #AAD8A4",
"Y. c #B6DBA6",
"T. c #B5DCB0",
"R. c #9BE3AD",
"E. c #9FE8B3",
"W. c #ABE2AB",
"Q. c #A8E6AD",
"!. c #B4E2AC",
"~. c #BBE5AC",
"^. c #BFE8AC",
"/. c #ABE7B3",
"(. c #BCE6B1",
"). c #B4ECB5",
"_. c #BCEBB4",
"`. c #BDECBA",
"'. c #B3E7B5",
"]. c #ADF1B6",
"[. c #BCF0B6",
"{. c #BDF3BC",
"}. c #B4F1B9",
"|. c #C0D09F",
" X c #C1DFAB",
".X c #CAE6AE",
"XX c #C3E9AF",
"oX c #CAEAAF",
"OX c #C2E4AE",
"+X c #C6E6B2",
"@X c #CCE7B3",
"#X c #C5ECB3",
"$X c #CDEEB7",
"%X c #C4EEB9",
"&X c #CCEEB9",
"*X c #CFE6B8",
"=X c #D1ECB6",
"-X c #D2EDBA",
";X c #D6ECBB",
":X c #C5F1B5",
">X c #CAF0B6",
",X c #C5F2BB",
"<X c #CCF2BA",
"1X c #CBF9BE",
"2X c #C4F9BD",
"3X c #D2F2BB",
"4X c #D9F2BE",
"5X c #D1F8BD",
"6X c #D1F2B7",
"7X c #B2F5C1",
"8X c #BBFCC7",
"9X c #C4F6C2",
"0X c #CCF5C2",
"qX c #C5FAC3",
"wX c #CCFBC4",
"eX c #C5FECC",
"rX c #CCFEC9",
"tX c #D3F5C2",
"yX c #D2FBC4",
"uX c #D3FECC",
"iX c #D8FFCB",
"pX c #DBF6C4",
"aX c #C9FFD0",
"sX c #C2FFD0",
"dX c #D3FFD3",
"fX c #DFFAD1",
"gX c #DEE9C1",
"hX c #E5F4C5",
"jX c #E6FBCB",
"kX c #E3F7C9",
/* pixels */
"$X$X$X$X$X$X$X$X$X$X$X$X$X$X$X$X$X$X$X$X$X$X$X$X$X$X$X$X$X$X$X$X$X<X;X*X-X$X$XoX>X>X<X&X*XpX$X>X$X$X$X$X$X$X$X$X$X$X$X$X$X$X$X$X$X$X$X$X$X$X$X$X$X$X$X$X$X$X$X$X",
"$X$X$X$X$X$X$X$X$X$X$X$X$X$X$X$X$X$X$X$X$X$X$X$X$X$X$X$X$X$X$X$X$X$X*X;X3X&X6X>X$X>X$X&X-X;X@X>X$X$X$X$X$X$X$X$X$X$X$X$X$X$X$X$X$X$X$X$X$X$X$X$X$X$X$X$X$X$X$X$X",
"$X$X$X$X$X$X$X$X$X$X$X$X$X$X$X$X$X$X$X$X$X$X$X$X$X$X$X$X$X$X$X$X6X$X@X&X&X$X$X$X>X$X3X&X&X-X$X$X$X$X$X$X$X$X$X$X$X$X$X$X$X$X$X$X$X$X$X$X$X$X$X$X$X$X$X$X$X$X$X$X",
"$X$X$X$X$X$X$X$X$X$X$X$X$X$X$X$X$X$X$X$X$X$X$X$X$X$X$X$X$X$X$X$X$X$X<X$X$X&X3X<X<X&X3X$X<X$X$X=X$X$X$X$X$X$X$X$X$X$X$X$X$X$X$X$X$X$X$X$X$X$X$X$X$X$X$X$X$X$X$X$X",
"$X$X$X$X$X$X$X$X$X$X$X$X$X$X$X$X$X$X$X$X$X$X$X$X$X$X$X$X$X$X$X$X$X$X<X<X&X$XyXD.F.tX+X$X5X>X$X$X$X$X$X$X$X$X$X$X$X$X$X$X$X$X$X$X$X$X$X$X$X$X$X$X$X$X$X$X$X$X$X$X",
"$X$X$X$X$X$X$X$X$X$X$X$X$X$X$X$X$X$X$X$X$X$X$X$X$X$X$X$X$X$X$X$X&X<X#X>X$X1X`.} =.rX<X&X$X>X$X$X$X$X$X$X$X$X$X$X$X$X$X$X$X$X$X$X$X$X$X$X$X$X$X$X$X$X$X$X$X$X$X$X",
"$X$X$X$X$X$X$X$X$X$X$X$X$X$X$X$X$X$X$X$X$X$X$X$X$X$X$X$X$X$X$X$X$X<X@X$X<X0Xg.t F B.wX$X#X>X<X<X$X$X$X$X$X$X$X$X$X$X$X$X$X$X$X$X$X$X$X$X$X$X$X$X$X$X$X$X$X$X$X$X",
"$X$X$X$X$X$X$X$X$X$X$X$X$X$X$X$X$X$X$X$X$X$X$X$X$X$X$X$X$X$X$X$X<X@X6X$X>XI.J N v ` {.#X<X$X$X$X$X$X$X$X$X$X$X$X$X$X$X$X$X$X$X$X$X$X$X$X$X$X$X$X$X$X$X$X$X$X$X$X",
"$X$X$X$X$X$X$X$X$X$X$X$X$X$X$X$X$X$X$X$X$X$X$X$X$X$X$X$X$X$X$X$X&X$X$X$X2X*.c A M b 6.wX+X>X$X<X$X$X$X$X$X$X$X$X$X$X$X$X$X$X$X$X$X$X$X$X$X$X$X$X$X$X$X$X$X$X$X$X",
"$X$X$X$X$X$X$X$X$X$X$X$X$X$X$X$X$X$X$X$X$X$X$X$X$X$X$X$X$X$X$X$X<X$XXXyXy.h A M Z b k m.uX#X<X$X$X$X$X$X$X$X$X$X$X$X$X$X$X$X$X$X$X$X$X$X$X$X$X$X$X$X$X$X$X$X$X$X",
"$X$X$X$X$X$X$X$X$X$X$X$X$X$X$X$X$X$X$X$X$X$X$X$X$X$X$X$X$X$X$X$X-X#XyXF.j A b ! Q b b G L.1X$X3X$X$X$X$X$X$X$X$X$X$X$X$X$X$X$X$X$X$X$X$X$X$X$X$X$X$X$X$X$X$X$X$X",
"$X$X$X$X$X$X$X$X$X$X$X$X$X$X$X$X$X$X$X$X$X$X$X$X$X$X$X$X$X$X$X$X*XtX_.T b A Z b l Q V k R (.tX*X$X$X$X$X$X$X$X$X$X$X$X$X$X$X$X$X$X$X$X$X$X$X$X$X$X$X$X$X$X$X$X$X",
"$X$X$X$X$X$X$X$X$X$X$X$X$X$X$X$X$X$X$X$X$X$X$X$X$X$X$X$X$X$X&X&X3XT.#.U n b A W A M A b ] #.(.&X$X$X$X$X$X$X$X$X$X$X$X$X$X$X$X$X$X$X$X$X$X$X$X$X$X$X$X$X$X$X$X$X",
"$X$X$X$X$X$X$X$X$X$X$X$X$X$X$X$X$X$X$X$X$X$X$X$X$X$X$X$X$X$X$X&X&X(.K.` W W b M M b ) M o.I.%X&X&X$X$X$X$X$X$X$X$X$X$X$X$X$X$X$X$X$X$X$X$X$X$X$X$X$X$X$X$X$X$X$X",
"$X$X$X$X$X$X$X$X$X$X$X$X$X$X$X$X$X$X$X$X$X$X$X$X$X$X$X$X$X$X$X$X<XrX&.8 i m N N c N N c v 1.wX>X&X$X$X$X$X$X$X$X$X$X$X$X$X$X$X$X$X$X$X$X$X$X$X$X$X$X$X$X$X$X$X$X",
"$X$X$X$X$X$X$X$X$X$X$X$X$X$X$X$X$X$X$X$X$X$X$X$X$X$X$X$X$X&X&X>XwX4.2 r q q q c q q q i 7 y q.wX>X&X&X&X$X$X$X$X$X$X$X$X$X$X$X$X$X$X$X$X$X$X$X$X$X$X$X$X$X$X$X$X",
"$X$X$X$X$X$X$X$X$X$X$X$X$X$X$X$X=X=X$X$X&X&X&X&X-X=X@X-X&X&X&XwXg.r J c N q c b c b q b b N k r.wX<X&X-X-X-X=X$X&X&X&X&X=X=X=X$X$X$X$X$X$X$X$X$X$X$X$X$X$X$X$X$X",
"$X$X$X$X$X$X$X$X$X$X$X$X$X$X$X$X=X=X$X$X&X&X&X&X+X4X@X$X&X#XuXz.v N v M N / M M M A W b / A M v q.9X<X3X-X+X$X<X&X&X&X&X=X=X$X$X$X$X$X$X$X$X$X$X$X$X$X$X$X$X$X$X",
"$X$X$X$X$X$X$X$X$X$X$X$X$X$X$X$X$X$X$X$X&X&X&X&X3X@X<X<X,XuXl.S v A / b A M b ! M M M A b M M Z h 1.qX1X#XpX$X<X&X&X&X&X$X$X$X>X$X$X$X$X$X$X$X$X$X$X$X$X$X$X$X$X",
"$X$X$X$X$X$X$X$X$X$X$X$X$X$X$X$X$X>X>X>X&X&X&X$X$X$X$X>X[.q.3 j I b b A M A W b ! Z A M Z A V Z n e R !.&XOX<X<X&X&X&X&X$X$X>X>X$X$X$X$X$X$X$X$X$X$X$X$X$X$X$X$X",
"$X$X$X$X$X$X$X$X$X$X$X$X$X$X$X$X>X>X>X>X&X&X$X$X@XpX#X1Xl.=.0.j.X.b A Z b A A M b M M b A A A b 6.u.;.M.yX>X3X$X>X$X&X&X$X>X>X>X$X$X$X$X$X$X$X$X$X$X$X$X$X$X$X$X",
"$X$X$X$X$X$X$X$X$X$X$X$X$X$X$X$X$X>X>X>X&X&X$X$X6X.X>X#X,X2XdXn.8 M M M / b M A W W A W b c A k ` ].uXwX#X<X$X$X>X>X&X&X$X$X>X>X$X$X$X$X$X$X$X$X$X$X$X$X$X$X$X$X",
"$X$X$X$X$X$X$X$X$X$X$X$X$X$X$X$X$X$X&X&X&X&X$X$X$X=X6X$X>XyXZ.a %.<.c I c N / N m q / c I I o.%.e L s.#X6X@X@X>X>X>X&X&X$X$X$X>X$X$X$X$X$X$X$X$X$X$X$X$X$X$X$X$X",
"$X$X$X$X$X$X$X$X$X$X$X$X$X$X$X$X$X$X&X&X&X&X$X$X=X6X=X@X3XU.5.Z.V.h v v 7 ^ 6 N c > N c 8 c v V.W.t.e. X3X=X=X>X>X>X&X&X$X$X$X$X$X$X$X$X$X$X$X$X$X$X$X$X$X$X$X$X",
"$X$X$X$X$X$X$X$X$X$X$X$X$X$X$X$X=X=X&X&X&X&X$X$X$X-X=X=X&X(.uX'.2 r c r r 8 q 8 v q w q 8 8 6 7 J.dXtXtX-X-X@X>X$X$X&X&X=X$X$X$X$X$X$X$X$X$X$X$X$X$X$X$X$X$X$X$X",
"$X$X$X$X$X$X$X$X$X$X$X$X$X$X$X$X=X=X&X&X&X&X$X=X=X=X@X<X<X,X`.S 2 n n 6 6 v N 7 w N N q w N N r F J.wX(.<X-X6X@X$X$X&X-X=X$X$X$X$X$X$X$X$X$X$X$X$X$X$X$X$X$X$X$X",
"$X$X$X$X$X$X$X$X$X$X$X$X$X$X$X$X$X$X&X&X&X&X=X=X=X$X<X%X{.{.` k N M b c b M A A l M A N b M M I n G S.rX%X#X&X$X$X$X-X-X=X$X$X$X$X$X$X$X$X$X$X$X$X$X$X$X$X$X$X$X",
"$X$X$X$X$X$X$X$X$X$X$X$X$X$X$X$X$X$X&X&X&X&X=X=X-X$X#XqX}.%.k A A Z M V A Z A A M Z A A V M M Z b b U Z.qX#X<X$X$X$X-X-X=X$X$X>X$X$X$X$X$X$X$X$X$X$X$X$X$X$X$X$X",
"$X$X$X$X$X$X$X$X$X$X$X$X$X$X$X$X$X$X&X&X&X&X&X&X<X#X1X{.@.n b b b V Z M M Z Z M Z Z Z M V A A b ! V n G N.wX<X#X$X$X-X-X=X$X>X>X$X$X$X$X$X$X$X$X$X$X$X$X$X$X$X$X",
"$X$X$X$X$X$X$X$X$X$X$X$X$X$X$X$X$X$X&X&X&X&X&X&X#XyXP.R e h n W A V V Z Z M M A A M M Z A M M Z z V k j a e.%X>X>X$X&X&X$X$X$X>X$X$X$X$X$X$X$X$X$X$X$X$X$X$X$X$X",
"$X$X$X$X$X$X$X$X$X$X$X$X$X$X$X$X$X$X&X&X&X&X&X&X1XD.} } &.g.<.c M Z A M M A A M M A W M M M A M A / 7.;.} $.Z.yX>X>X&X&X$X$X$X$X$X$X$X$X$X$X$X$X$X$X$X$X$X$X$X$X",
"$X$X$X$X$X$X$X$X$X$X$X$X$X$X$X$X=X$X&X&X>X>X&X&X>X~.,X9XeX/.J N A M M A W N M N N M N M A M N A N v ,.eXeX%XwX#X>X>X&X&X&X$X$X$X$X$X$X$X$X$X$X$X$X$X$X$X$X$X$X$X",
"$X$X$X$X$X$X$X$X$X$X$X$X$X$X$X$X-X$X&X>X&X&X$X$X@X>X#X,X8X%.c W q b N N N M N N b N N N W N N N N N h %.).wX>X$X&X&X%X&X-X$X$X>X$X$X$X$X$X$X$X$X$X$X$X$X$X$X$X$X",
"$X$X$X$X$X$X$X$X$X$X$X$X$X$X$X$X$X$X&X&X&X&X$X$X$X>X>XqX1.F c 9 w N W c l / N N N 0 N / q c ) m 0 N ) y E s.$X6X<X<X<X&X@X$X>X>X$X$X$X$X$X$X$X$X$X$X$X$X$X$X$X$X",
"$X$X$X$X$X$X$X$X$X$X$X$X$X$X$X$X$X$X&X-X-X-X$X$X=XXX,Xy.r.,.8 6 c N q > N N 6 N M , w N b 1 c N q q -.K.M.N.$X$X$X#X$X-X;X-X$X$X$X$X$X$X$X$X$X$X$X$X$X$X$X$X$X$X",
"$X$X$X$X$X$X$X$X$X$X$X$X$X$X$X$X$X$X-X-X-X-X$X$X6X>X_.eXC.J r q m w d q b 6 6 d b q 6 6 b w 6 0 0 6 r 1.eXwX<X&X3X&X&X-X=X-X-X>X$X$X$X$X$X$X$X$X$X$X$X$X$X$X$X$X",
"$X$X$X$X$X$X$X$X$X$X$X$X$X$X$X$X>X>X$X=X=X=X$X$X$X#XrXg.j h 7 6 q b b 6 6 l / w 1 b / q 0 w l b l b I h @.2X>X#X$X<X3X-X*X-X-X$X$X$X$X$X$X$X$X$X$X$X$X$X$X$X$X$X",
"$X$X$X$X$X$X$X$X$X$X$X$X$X$X$X$X>X>X$X=X=X=X$X>X:XwXM.S n h c m A W w q N M b A d l N M N b A W / M M n j #.`.wX&X$X$X-X3X-X@X$X$X$X$X$X$X$X$X$X$X$X$X$X$X$X$X$X",
"$X$X$X$X$X$X$X$X$X$X$X$X$X$X$X$X>X>X>X$X$X$X-X>XwXl.S G J / M W b A M W M A A b Z A A V A A A M x ! V C U e } P.1X1X$X$X6X@X#X5X$X$X$X$X$X$X$X$X$X$X$X$X$X$X$X$X",
"$X$X$X$X$X$X$X$X$X$X$X$X$X$X$X$X>X>X>X>X>X<X6X<Xe.e j h n b Q x Z A M b Z A M A A b V A b M A M Z V V Z f G e E N.%X5X#X$X<X$X$X$X$X$X$X$X$X$X$X$X$X$X$X$X$X$X$X",
"$X$X$X$X$X$X$X$X$X$X$X$X$X$X$X$X&X&X>X>X#X6XY.:.D T ` r.7.b Z x M A b M M A Z b V z A A b A A b Z x Z A 6.O.R T } P.<X$X>X$X$X<X$X$X$X$X$X$X$X$X$X$X$X$X$X$X$X$X",
"$X$X$X$X$X$X$X$X$X$X$X$X$X$X$X$X@X3X$X$X$X$XXXF.W.).8X8Xo.c M ! A V M A M b V A A M M M V M b ! Z Z A l 9.8X]./.[.wX#X<X<X$X6X&X$X$X$X$X$X$X$X$X$X$X$X$X$X$X$X$X",
"$X$X$X$X$X$X$X$X$X$X$X$X$X$X$X$X*X;X@X@X3X$X#XyX0X`.aXr.r / A l A M b A A M W b M A A M A A M A M A N / q 7.sXqX`.&X$X=X>X6X.X-X$X$X$X$X$X$X$X$X$X$X$X$X$X$X$X$X",
"$X$X$X$X$X$X$X$X$X$X$X$X$X$X$X$X-X=X=X=X=X=X$X#X#XdXJ.F ^ N i 0 b W N b N N A N N b b A b b A A b m n ^ n n -.Q.wX<X$X$X.X6X-X@X$X$X$X$X$X$X$X$X$X$X$X$X$X$X$X$X",
"$X$X$X$X$X$X$X$X$X$X$X$X$X$X$X$X-X@X;X=X.X=X<X#X0XA.{ v i 6 > c / N q l A b c W M 6 q / N q q N A q 9 8 c n F H x.$X=X=X$X@X3X*X$X$X$X$X$X$X$X$X$X$X$X$X$X$X$X$X",
"$X$X$X$X$X$X$X$X$X$X$X$X$X$X$X$X$X&X=X=X=X=X$X>XL.4.F i i i 6 / N 8 , r ^ 8 > n n > > r J c 6 8 N N 6 n N c 6.Q.!.<X$X.X$X3X$X@X$X$X$X$X$X$X$X$X$X$X$X$X$X$X$X$X",
"$X$X$X$X$X$X$X$X$X$X$X$X$X$X$X$X:X1X#X$X3X=X$X#X).-.v N N 4 m c 6 7 4 c c 7 > c N 9 6 4 q v 7 i w q q 6 N / n j.rXXX$X3XXX>X&X3X$X$X$X$X$X$X$X$X$X$X$X$X$X$X$X$X",
"$X$X$X$X$X$X$X$X$X$X$X$X$X$X$X$X#X<X#X>X$X.X1X{.%.h A b > > 0 > c c 6 q 9 N i > q 6 N c 7 q 9 m M b m m b M n k w.wX1X#X1X$X&X&X$X$X$X$X$X$X$X$X$X$X$X$X$X$X$X$X",
"$X$X$X$X$X$X$X$X$X$X$X$X$X$X$X$X6X<X$X<X#XwX}.o.b M M N m d z V A c w b W N N b w 6 m N / b b c M M A N M A Z V k 2.8X9X%X&X*X=X$X$X$X$X$X$X$X$X$X$X$X$X$X$X$X$X",
"$X$X$X$X$X$X$X$X$X$X$X$X$X$X$X$X$X@X-X#XuXL.' h N b n N N W V V M N b N N M A A A b N M A A A A V Q c M M b b b n k %.'.wX$X-X=X$X$X$X$X$X$X$X$X$X$X$X$X$X$X$X$X",
"$X$X$X$X$X$X$X$X$X$X$X$X$X$X$X$X6X3X$X#Xs.D 3 H T ,.h.N A M b W M A M N M M A V A M A M M M Z A Z b V V M _ 2.] H H a $.OX@X=X=X$X$X$X$X$X$X$X$X$X$X$X$X$X$X$X$X",
"$X$X$X$X$X$X$X$X$X$X$X$X$X$X$X$X@X@X3X~.M.N.Z.L.'.aX7.v M Z N N A N b A W A A M M b A V V Z M M b A V z n n g.eXI.L.!._.#X6X=X.X$X$X$X$X$X$X$X$X$X$X$X$X$X$X$X$X",
"$X$X$X$X$X$X$X$X$X$X$X$X$X$X$X$X@X3X+X1X1X1X5X1XuXJ.j N N W m N N A V A Z M A V W M V V V A V b C b Z V V M v C.dX%X0X&X$X<X$X>X$X$X$X$X$X$X$X$X$X$X$X$X$X$X$X$X",
"$X$X$X$X$X$X$X$X$X$X$X$X$X$X$X$X;X-X$X#X>X>XXX>X,X' v M N c u N M A M M M M A M A b b V b b b A Z A M W V V v F y.uX&X<X<X#X#X$X$X$X$X$X$X$X$X$X$X$X$X$X$X$X$X$X",
"$X$X$X$X$X$X$X$X$X$X$X$X$X$X$X$X@X@X3X&X-X@X#XyX0.v N N q 4 B N W b c M W M N N M d d A A M c M Z M c q b M / v F &.W.,X%X>X5X$X$X$X$X$X$X$X$X$X$X$X$X$X$X$X$X$X",
"$X$X$X$X$X$X$X$X$X$X$X$X$X$X$X$X$X6X$X$X$XtXwXt.t v q > 4 0 b W N q w N W l c A A w > c N M 0 w N A N 6 > q 0 b n F ' L.1X#X$X$X$X$X$X$X$X$X$X$X$X$X$X$X$X$X$X$X",
"$X$X$X$X$X$X$X$X$X$X$X$X$X$X$X$X>X$X$X&X&X`.1.y r q c 4 4 B N b w 6 6 J N > 9 N N 9 > > m / i 4 5 m ( c 6 0 l d d ( S.wX&X$X6X<X$X$X$X$X$X$X$X$X$X$X$X$X$X$X$X$X",
"$X$X$X$X$X$X$X$X$X$X$X$X$X$X$X$X#X<X$X#XuXm.7 N N / 4 5 u N q 6 c 4 m J 7 6 9 c / 4 q i 4 c J 5 9 5 6 q 9 6 q W A b U A.yX<X#X$X$X$X$X$X$X$X$X$X$X$X$X$X$X$X$X$X",
"$X$X$X$X$X$X$X$X$X$X$X$X$X$X$X$X>XXX>XrXg.j C A N 9 9 5 9 6 6 v v 4 i 9 4 ^ c > m > c ( r 7 8 6 9 c u q u c N A Z M b G n.wX#X3X$X$X$X$X$X$X$X$X$X$X$X$X$X$X$X$X",
"$X$X$X$X$X$X$X$X$X$X$X$X$X$X$X$X$X5X2Xw.g n I c m i 5 9 r m I C 6 > 5 q m ^ N c > 9 m J J n q 9 q M W W W ~ N n c b C n g t.yX$X$X$X$X$X$X$X$X$X$X$X$X$X$X$X$X$X",
"$X$X$X$X$X$X$X$X$X$X$X$X$X$X$X$X$XF.#.3 g S F O.f.[ ^ J J n C c w c i n / N N / b d m A / N N W A N M M M x A _ <.J j h D 3 >.<X$X$X$X$X$X$X$X$X$X$X$X$X$X$X$X$X",
"$X$X$X$X$X$X$X$X$X$X$X$X$X$X$X$X#Xx.3.t.l.m.I.8Xk.h N N N M A M A A / M b A N b A A W b c A A M M A A Z Z Z Z M H.7XV.m.m.F.~.>X$X$X$X$X$X$X$X$X$X$X$X$X$X$X$X$X",
"$X$X$X$X$X$X$X$X$X$X$X$X$X$X$X&X%X1XyXiXyX1XqX}.` k Z Q z Q Z b A c A Z b V M Q M V V V Z C b A A M M Z V b b b I R.dXwXyX5X>X$X$X$X$X$X$X$X$X$X$X$X$X$X$X$X$X$X",
"$X$X$X$X$X$X$X$X$X$X$X$X$X$X$X&X<X%X&X&X+X#XwXq.g I C w +.8.d A C b V b V A b b Z n C M b Z V b V Z C n b N I C n U J.rX+X&X3X$X$X$X$X$X$X$X$X$X$X$X$X$X$X$X$X$X",
"$X$X$X$X$X$X$X$X$X$X$X$X$X$X$X>X,X%X&X-X&X1XS.S Y k j 1.7XO.d Z b o.) b M V A M J F t J M V b Z V z b _ O.F h n C b Y j.eX0X&X-X&X$X$X$X$X$X$X$X$X$X$X$X$X$X$X$X",
"$X$X$X$X$X$X$X$X$X$X$X$X$X$X$X$X>X$X&X$XiXP.L g S @.A.eXB.j I C J H.O.d ( h I v ( p # K J C A k.Q b C v V.I.2.U h k f 3 =.U.*X*X&X$X$X$X$X$X$X$X$X$X$X$X$X$X$X$X",
"$X$X$X$X$X$X$X$X$X$X$X$X$X$X$X$X@X3X$XwXF.T L ;.Z.qX9XqX2.h j n B.7X_ N K % t J J <   5.} h k R.E.` h S &.aXeX).m.0.@.@.L :.*X4X$X$X$X$X$X$X$X$X$X$X$X$X$X$X$X$X",
"$X$X$X$X$X$X$X$X$X$X$X$X$X$X$X=X;X-X$XF.3.z._.wX0X,XqXZ.e S *.I.uX/.` G a   % K F p   v.T.P y r.dX).4.L < q.wX9XwXwXqX[.1XyX+X=X$X$X$X$X$X$X$X$X$X$X$X$X$X$X$X$X",
"$X$X$X$X$X$X$X$X$X$X$X$X$X$X$X=X=X@X<X#XwXwXtX$X&X,X).L ' z.`.0X9XP.y 3. .  # s { %   v.fXD.' H !.0X0X!.s.>.U.1X#X>X#X<X$X#X6X<X$X$X$X$X$X$X$X$X$X$X$X$X$X$X$X$X",
"$X$X$X$X$X$X$X$X$X$X$X$X$X$X$X$X=X4X#X>X,X>X+X-X$X<Xl.l.[.wX>X&XyXe.>.iX| X . $ s * $ v.kXtX_.3.N.tX&X<XtXyXyX#X>X&X-X$X@X$X3X#X$X$X$X$X$X$X$X$X$X$X$X$X$X$X$X$X",
"$X$X$X$X$X$X$X$X$X$X$X$X$X$X$X$X-X@X$X>X>X#X3X$X3XOX1XyX1X+XtX$X+XG.tXjX| o @ O & & . v.gX-XtXtX<X-X&X@X<X>X~.5X>X.X=X=X=X>X#X:X>X$X$X$X$X$X$X$X$X$X$X$X$X$X$X$X",
"$X$X$X$X$X$X$X$X$X$X$X$X$X$X$X$X@X-X-X$X$X>X$X6X$X-X$X@X$X5X@X<X$X6X-XhX..+ - = + o X v.kX-X.X-X@X-X@X3X$X$X<X$X$X=X=X=X$X>X:X:X$X$X$X$X$X$X$X$X$X$X$X$X$X$X$X$X",
"$X$X$X$X$X$X$X$X$X$X$X$X$X$X$X$X$X$X$X$X$X$X$X$X$X$X=X=X$X$X$X$X$X<X$XpX| + - - : @ X c.pX>X@X6X$X$X$X>X>X>X$X=X=X=X$X$X>X>X>X>X$X$X$X$X$X$X$X$X$X$X$X$X$X$X$X$X",
"$X$X$X$X$X$X$X$X$X$X$X$X$X$X$X$X$X$X$X$X=X$X$X$X$X$X$X$X$X$X$X$X>X<X#XkX| o : - @ ; o c.5X:X$X$X$X$X$X>X>X$X=X=X=X=X$X>X>X>X$X$X$X$X$X$X$X$X$X$X$X$X$X$X$X$X$X$X",
"$X$X$X$X$X$X$X$X$X$X$X$X$X$X$X$X>X>X$X$X=X=X=X=X$X>X>X>X$X$X=X=X$X@X#XjX..+ ; - ; ; o c.pX#X6X$X$X>X$X$X$X=X=X=X-X-X&X&X&X&X-X-X$X$X$X$X$X$X$X$X$X$X$X$X$X$X$X$X",
"$X$X$X$X$X$X$X$X$X$X$X$X$X$X$X$X>X>X$X$X=X=X=X=X$X$X>X>X$X$X=X=X=X$X$X3X .O o o o X . d.4X$X6X>X>X>X$X=X=X=X=X=X&X&X&X&X-X-X-X-X$X$X$X$X$X$X$X$X$X$X$X$X$X$X$X$X",
"$X$X$X$X$X$X$X$X$X$X$X$X$X$X$X$X$X$X$X$X$X$X$X=X$X$X$X$X$X$X$X$X-X$X:X1Xb.i.p.a.p.a.i.|.4X$X#X#X>X>X=X=X=X=X$X$X$X$X$X=X=X=X=X$X$X$X$X$X$X$X$X$X$X$X$X$X$X$X$X$X",
"$X$X$X$X$X$X$X$X$X$X$X$X$X$X$X$X$X$X$X$X=X=X$X$X$X$X$X$X$X$X$X$X-X&X:X1X6XjXhXhXkXjX4X-X-X-X$X>X>X$X$X=X=X=X$X$X>X$X$X=X=X$X$X$X$X$X$X$X$X$X$X$X$X$X$X$X$X$X$X$X",
"$X$X$X$X$X$X$X$X$X$X$X$X$X$X$X$X>X>X$X=X=X=X=X$X$X$X&X&X&X&X&X&X@X;X>X:XXX$X@X=X@X@X@X$X-X-X@X&X$X$X$X$X$X>X$X$X$X$X$X>X>X>X$X$X$X$X$X$X$X$X$X$X$X$X$X$X$X$X$X$X",
"$X$X$X$X$X$X$X$X$X$X$X$X$X$X$X$X>X>X=X=X;X=X=X$X>X>X&X&X&X&X&X-X;X-X+X1X,X#X$X$X6X$X$X@X-X-X@X-X=X$X$X>X>X>X>X$X$X>X>X>X>X>X>X$X$X$X$X$X$X$X$X$X$X$X$X$X$X$X$X$X"
};
