/* XPM */
static char *_8ae075008cd4154d67075960a853f22BTL7yuKMta4OeAZk[] = {
/* columns rows colors chars-per-pixel */
"80 80 242 2 ",
"   c #241900",
".  c #0E2802",
"X  c #182B0A",
"o  c #1B3709",
"O  c #182D1A",
"+  c #1B341A",
"@  c #1A3416",
"#  c #0F2A1A",
"$  c #223B1C",
"%  c #233E17",
"&  c #3C2B00",
"*  c #142D21",
"=  c #1D3726",
"-  c #0C2722",
";  c #253C25",
":  c #253C2A",
">  c #263A27",
",  c #263E33",
"<  c #4F390C",
"1  c #703E0A",
"2  c #29451A",
"3  c #38581B",
"4  c #294611",
"5  c #2B432B",
"6  c #2D4725",
"7  c #334B29",
"8  c #3B532D",
"9  c #3A5628",
"0  c #2A4333",
"q  c #2B4736",
"w  c #344B33",
"e  c #344E3C",
"r  c #364A37",
"t  c #3C5535",
"y  c #3B533B",
"u  c #385537",
"i  c #574419",
"p  c #6F4317",
"a  c #425C34",
"s  c #445D3C",
"d  c #505C31",
"f  c #6F4B21",
"g  c #685628",
"h  c #795728",
"j  c #775D31",
"k  c #6F512C",
"l  c #4A6636",
"z  c #4A6738",
"x  c #526E39",
"c  c #54723A",
"v  c #47632D",
"b  c #696438",
"n  c #786737",
"m  c #72602A",
"M  c #364C41",
"N  c #3B5344",
"B  c #3A5646",
"V  c #334D46",
"C  c #445C4C",
"Z  c #435946",
"A  c #415A52",
"S  c #4B6444",
"D  c #4B6548",
"F  c #546D45",
"G  c #536C4C",
"H  c #597649",
"J  c #4B6354",
"K  c #496457",
"L  c #526A5B",
"P  c #526954",
"I  c #5B7656",
"U  c #4F7150",
"Y  c #627E4A",
"T  c #7B784A",
"R  c #627B5C",
"E  c #647955",
"W  c #75744F",
"Q  c #576E65",
"!  c #5B7567",
"~  c #4E6860",
"^  c #637C67",
"/  c #873E03",
"(  c #863F11",
")  c #89450A",
"_  c #8A4A16",
"`  c #954C14",
"'  c #8E511F",
"]  c #99541A",
"[  c #96470F",
"{  c #A75C1C",
"}  c #AC621F",
"|  c #855826",
" . c #9A5A28",
".. c #A75A26",
"X. c #AD5F2E",
"o. c #896839",
"O. c #966839",
"+. c #8B6931",
"@. c #AA6729",
"#. c #B86B2A",
"$. c #A56635",
"%. c #B67439",
"&. c #B36C33",
"*. c #C47635",
"=. c #C46E38",
"-. c #856B44",
";. c #857444",
":. c #947546",
">. c #936E42",
",. c #A57B47",
"<. c #B87943",
"1. c #AC784F",
"2. c #C87C44",
"3. c #C37F50",
"4. c #6C885A",
"5. c #718D55",
"6. c #6C8867",
"7. c #728C67",
"8. c #779468",
"9. c #748D75",
"0. c #7C9478",
"q. c #6B8779",
"w. c #C4853E",
"e. c #8B8655",
"r. c #8F8C53",
"t. c #B88248",
"y. c #B88956",
"u. c #AA854A",
"i. c #8C8B64",
"p. c #829E68",
"a. c #959769",
"s. c #839D74",
"d. c #979D71",
"f. c #B89669",
"g. c #A5996A",
"h. c #83A26C",
"j. c #8CA57E",
"k. c #91A975",
"l. c #AEA979",
"z. c #CA8549",
"x. c #DB8D4D",
"c. c #D48849",
"v. c #C88754",
"b. c #DA8B58",
"n. c #C9935B",
"m. c #D99558",
"M. c #DC9049",
"N. c #E4944C",
"B. c #E7994B",
"V. c #E39453",
"C. c #EB9B54",
"Z. c #E4955A",
"A. c #EB9C5A",
"S. c #E69A59",
"D. c #F19A58",
"F. c #EC8F52",
"G. c #D7A25E",
"H. c #E9A25C",
"J. c #F2A35E",
"K. c #EAA04B",
"L. c #C59465",
"P. c #DA9968",
"I. c #D3976D",
"U. c #E89A65",
"Y. c #F19E64",
"T. c #DDA775",
"R. c #D5A16D",
"E. c #EDA365",
"W. c #E2A26A",
"Q. c #EBA36B",
"!. c #E7A869",
"~. c #F4A567",
"^. c #E3A573",
"/. c #E7A772",
"(. c #F3A872",
"). c #EAB275",
"_. c #809983",
"`. c #8AA585",
"'. c #92AD86",
"]. c #9BB589",
"[. c #9DB696",
"{. c #ABB486",
"}. c #B6B78A",
"|. c #A2BB9B",
" X c #BABC95",
".X c #9CB8A1",
"XX c #E6B484",
"oX c #ABC799",
"OX c #B8C699",
"+X c #B6C791",
"@X c #ACC5A6",
"#X c #B4CEA5",
"$X c #B9D5A9",
"%X c #BDD8B5",
"&X c #BFE5B2",
"*X c #C8CC9C",
"=X c #C9D39F",
"-X c #C5D8A8",
";X c #C5DDB3",
":X c #CDD6AC",
">X c #C3EAAE",
",X c #CAEBAE",
"<X c #CAE6AD",
"1X c #D6E6AE",
"2X c #C6E3B2",
"3X c #CAE6B4",
"4X c #C6ECB4",
"5X c #CDEEB7",
"6X c #CBE6BA",
"7X c #CDEEBA",
"8X c #C6EBBA",
"9X c #D1EDB5",
"0X c #D1EDBA",
"qX c #DAE9B8",
"wX c #CBF1B4",
"eX c #CCF1BA",
"rX c #C5F1B4",
"tX c #D2F2B6",
"yX c #D2F2BC",
"uX c #DBF4BD",
"iX c #D7F6BB",
"pX c #E6E9B6",
"aX c #E4F3BC",
"sX c #E4FABC",
"dX c #CCE9C1",
"fX c #D3EEC1",
"gX c #DAEDC3",
"hX c #D5F2C2",
"jX c #DAF4C3",
"kX c #DCF9C4",
"lX c #DAF4CA",
"zX c #DDFACA",
"xX c #D6FAC8",
"cX c #DFF9D1",
"vX c #DAF4D2",
"bX c #CEF5C1",
"nX c #E3F6C9",
"mX c #E2FCCC",
"MX c #E5F6C5",
"NX c #E4FED3",
"BX c #E8FCD6",
"VX c #F1FFC7",
/* pixels */
"5X5X5X5X5X5X5X5X5X5X5X5X5X5X5X5X5X5X5X5X5X5X5X5X5X5X5X5X5X5X5X5X5X5X5X5X5X5X5X5X5X5X5X5X5X5X5X5X5X5X5X5X5X5X5X5X5X5X5X5X5X5X5X5X5X5X5X5X5X5X5X5X5X5X5X5X5X5X5X5X",
"5X5X5X5X5X5X5X5X5X5X5X5X5X5X5X5X5X5X5X5X5X5X5X5X5X5X5X5X5X5X5X5X5X5X5X5X5X5X5X5X5X5X5X5X5X5X5X5X5X5X5X5X5X5X5X5X5X5X5X5X5X5X5X5X5X5X5X5X5X5X5X5X5X5X5X5X5X5X5X5X",
"5X5X5X5X5X5X5X5X5X5X5X5X5X5X5X5X5X5X5X5X5X5X5X5X5X5X5X5X5X5X5X5X5X5X5X5X5X5X5X5X5X5X5X5X5X5X5X5X5X5X5X5X5X5X5X5X5X5X5X5X5X5X5X5X5X5X5X5X5X5X5X5X5X5X5X5X5X5X5X5X",
"5X5X5X5X5X5X5X5X5X5X5X5X5X5X5X5X5X5X5X5X5X5X5X5X5X5X5X5X5X5X5X5X5X5X5X5X5X5X5X5X5X5X5X5X5X5X5X5X5X5X5X5X5X5X5X5X5X5X5X5X5X5X5X5X5X5X5X5X5X5X5X5X5X5X5X5X5X5X5X5X",
"5X5X5X5X5X5X5X5X5X5X5X5X5X5X9X9X5X5X5X5X5X5X5X5X5X5X5X5X5X5X5X5X5X5X5X5X5X5X5X5X5X5X5X5X5X5X5X5X5X5X5X5X5X5X5X5X5X5X5X5X5X5X5X5X5X5X5X5X5X5X5X5X5X5X5X5X5X5X5X5X",
"5X5X5X5X5X5X5X5X5X5X5X5X5X5X9X9X5X5X5X5X5X5X5X5X5X5X5X5X5X5X5X5X5X5X5X5X5X5X5X5X5X5X5X5X5X5X5X5X5X5X5X5X5X5X5X5X5X5X5X5X5X5X5X5X5X5X5X5X5X5X5X5X5X5X5X5X5X5X5X5X",
"5X5X5X5X5X5X5X5X5X5X5X5X5X5X5X5X5X5X5X5X5X5X5X5X5X5X5X5X5X5X5X5X5X5X5X5X5X5X5X5X5X5X5X5X5X5X5X5X5X5X5X5X9X5X5X5X5X5X5X5X5X5X5X5X5X5X5X5X5X5X5X5X5X5X5X5X5X5X5X5X",
"5X5X5X5X5X5X5X5X5X5X5X5X5X5X5X5X5X5X5X5X5X5X5X5X5X5X5X5X5X5X5X5X5X5X5X5X5X5X5X5X5X5X5X5X5X5X5X5X5X5X5X5X9X9X5X5X5X5X5X5X5X5X5X5X5X5X5X5X5X5X5X5X5X5X5X5X5X5X5X5X",
"5X5X5X5X5X5X5X5X5X5X5X5X5X5X5X5X5X5X5X5X5X5X5X5X5X5X5X5X5X5X5X5X5X5X5X5X5X5X5X5X5X5X5X5X5X5X5X5X5X5X5X3XyX5X7X7X7X7X0X5X5X5X5XtX5XyX2X5X5X5X5X5X5X5X5X5X5X5X5X5X",
"5X5X5X5X5X5X5X5X5X5X5X5X5X5X5X5X5X5X5X5X5X5X5X5X5X5X5X5X5X5X5X5X5X5X5X5X5X5X5X5X5X5X5X5X5X5X5X5X5X5X0X0X7X7X7XlXfX7X7XyXyX3X5X5X2X5X5X5XeXyX3X5X5X5X5X5X5X5X5X5X",
"5X5X5X5X5X5X5X5X5X5X5X5X5X5X5X5X5X5X5X5X5X5X5X5X5X5X5X5X5X5X5X5X5X5X5X5X5X5X5X5X5X5X5X5X5X5X5X5X5XtX3X5X7X7X$Xl ;XcXdX6X0XjX0XyXzX5XyXyX5X3X3XyX5X5X5X5X5X5X5X5X",
"5X5X5X5X5X5X5X5X5X5X5X5X5X5X5X5X5X5X5X5X5X5X5X5X5X5X5X5X5X5X5X5X5X5X5X5X5X5X5X5X5X5X5X5X5X5X5X5X5X5X0X5XzX4.2 % 8.S 7.cX6X$XhX#XoX5X3XyX5X0XyX5X5X5X5X5X5X5X5X5X",
"5X5X5X5X5X5X5X5X5X5X5X5X5X5X9X9X5X5X5X5X5X5X5X5X5X5X5X5X5X5X5X5X5X5X5X5X5X5X5X5X5X5X5X5X5X5X5X5X5X5XyX2XzX4.o 2 8 6 |.vX#X$ @X% H mX7X5X0XyX0X5X5X5X5X5X5X5X5X5X",
"5X5X5X5X5X5X5X5X5X5X5X5X5X5X9X9X5X5X5X5X5X5X5X5X5X5X5X5X5X5X5X5X5X5X5X5X5X5X5X5X5X5X5X5X5X5X5X5X5XyX3X5XzXh.l 8.l 2 R s 9.; Z 5 '.mX7X7X0X2X5XyX5X5X5X5X5X5X5X5X",
"5X5X5X5X5X5X5X5X5X5X5X5X5X5X5X5X5X5X5X5X5X5X5X5X5X5X5X5X5X5X5X5X5X5X5X5X5X5X5X5X5X5XeX5X5X5X5X5X5X5XeX3XkXoXx p.H 6 0.; > q > C @X].2X7X0X5X0X5X5X5X5X5XwX5X5X5X",
"5X5X5X5X5X5X5X5X5X5X5X5X5X5X5X5X5X5X5X5X5X5X5X5X5X5X5X5X5X5X5X5X5X5X5X5X7X5X5X5X5XyXjXxXhX5X5X5X5X3X3XyX5X5.9 p.l '.NXZ O K A K w 6 hX0X3X0XhXyX5X5X5X5XwXeXeX5X",
"5X5X5X5X5X5X5X5X5X5X5X5X5X5X5X5X5X5X5X5X5X5X5X5X5X5X5X5X5X5X5X5XeX3XhXdX7X0XtX,XyX3XS R %XlX3X0X9XyX7XfXoX. 4 4.H $X7.6 e ! # q : w ].mXjXfX%X6X0X5X5XwX3XyX7X5X",
"5X5X5X5X5X5X5X5X5X5X5X5X5X5X5X5X5X5X5X5X5X5X5X5X5X5X5X5X5X5X5X5X5XyX6XfXhX3X9X9X2X7Xs ; Z |.BX;X$X7X7XBX[.l c 4 a t G u O B 0 L N 5 ].$X8.H D 2 '.kX,XtX5X8X5X5X",
"5X5X5X5X5X5X5X5X5X5X5X5X5X5X5X5X5X5X5X5X5X5X5X5X5X5X5X5X5X5X5X5X5X5XyX5X3X5X3X3XzXcXvXP y 5 @X'.X ;XlX|.7.F h.v 5.8.s.G : B L : C [.4.v l 2 z 6.oXiX,XwX3X7X5X5X",
"5X5X5X5X5X5X5X5X5X5X5X5X5X5X5X5X5X5X5X5X5X5X5X5X5X5X5X5X5X5X5X5X5XwXtX,XtX5X9XhXoX8.R u w ! u D 5 |.cXH . 9 h.Y c l 8 Z = : : : J G Y h.Y 9 s $XmX3XwX,X3XhX5X5X",
"5X5X5X5X5X5X5X5X5X5X5X5X5X5X5X5X5X5X5X5X5X5X5X5X5X5X5X5X5X5X5X5XeXwX5XwX9X3XjXs.@ $ ; y C N Q O 5 0.BXj.9 9 E I [.S ; t w w ; ; D 7.Y 5.H 9 t % 3XtX,X,XyX5X5X5X",
"5X5X5X5X5X5X5X5X5X5X5X5X5X5X5X5X5X5X5X5X5X5X5X5X5X5X5X5X5X5X5X5XeX4XwXwX,X5XhX4.G `.@X_.0._., L Z 6..X% l 5.2 P 5 + w $ Z G @ t y 8 4.c v 4 z [.$XyX,XwXyX5X3X5X",
"5X5X5X5X5X5X5X5X5X5X5X5X5X5X5X5X5X5X5X5X5X5X5X5X5X5X5X5X5X5X5X5X3X7X5X5XiX5X5XhXzXzXNXI t R t w L 0 M O c 5.2 7 @ 6 G t : Z > $ 7 H zXyX-XoX;XNXhX5X5XwX5XyX3X5X",
"5X5X5X5X5X5X5X5X5X5X5X5X5X5X5X9X5X5X5X5X5X5X5X5X5X5X5X5X5X5X5X5X5XyX3X5X3X5X5X5X7X$X8.4.a t 8 D 0 A A I x 8.8.t + X R w J C y 5 X ].iX<XiXhXfX7X5X3XtX5X5X5X5X5X",
"5X5X5X5X5X5X5X5X5X5X5X5X5X5X9X9X5X5X5X5X5X5X5X5X5X5X5X5X5X5X5X5X5X5X5X5X5X5X5X5X0X$X2 y $ ; y y 0 ! B 9.c h.u # q = : C : q 9.8 F oXyX3X5X5X7X5X5X5X5X5X5X5X5X5X",
"5X5X5X5X5X5X5X5X5X5X5X5X5X5X9X9X5X5X5X5X5X5X5X5X5X5X5X5X5X5X5X5X5XwX5X5X5X5X5X5X0XfX%X7.w y u e K Q J = 7.F 0 - J = L L M B . ].NXjX5X9XyX5X0X5X5X5X5X5X5X5X5X5X",
"5X5X5X5X5X5X5X5X5X5X5X5X5X5X5X5X5X5X5X5X5X5X5X5X5X5X5X5X5X5X5X5X5X5X5X5X5X5X5X5X,XwX0XzXoXz 4.G 0 B I 5 6.u q V q.A e B e e ^ vXfX2X3XiX5X2XyX0X5X5X5X5X5X5X5X5X",
"5X5X5X5X5X5X5X5X5X5X5X5X5X5X5X5X5X5X5X5X5X5X5X5X5X5X5X5X5X5X5X5X5X5X5X5X5X5X5X5X,XiX5X,XkX].x F .X9.B u D y K L ~ V * q : w R j.6XyX5X3X0XyX0X5X5X5X5X5X5X5X5X5X",
"5X5X5X5X5X5X5X5X5X5X5X5X5X5X5X5X5X5X5X5X5X5X5X5X5X5X5X5X5X5X5X5X7X7X5X5X5X5X5X5XyX,X,XtXyX2XF s %X_.0 M , L B B q J Q K 5 Z a 6 $X0XyX5X0X3X4XyX5X5X5X5X5X5X5X5X",
"5X5X5X5X5X5X5X5X5X5X5X5X5X5X5X5X5X5X5X5X5X5X5X5X5X5X5X5X5X5X5X5X7X7X5X5X5X5X5X7X3X5XtX9X5X2XS D #X@ C = B M # ! q * q J + 7.vXjX0X5X3X5X0X5X5XwX5X5X5X5X5X5X5X5X",
"5X5X5X5X5X5X5X5X5X5X5X5X5X5X5X5X5X5X5X5X5X5X5X5X5X5X5X5X5X5X5X5X5X5X5XwXwXwX5X7XhX3XtX,XiX;Xt 6.R ; D 0 ! ! L N = B L `.`.dX0X3X9X5X5XyX5XeXyX3X5X5X5X5X5X5X5X5X",
"5X5X5X5X5X5X5X5X5X5X5X5X5X5X5X5X5X5X5X5X5X5X5X5X5X5X5X5X5X5X5X5X5X5X5XwXwX5X5X7X8X5X5X5X0X#X7 7 D y w C ~ M B L Q Z + D I j.yX5X5X5X5XeX5X5XwX5X5X5X5X5X5X5X5X5X",
"5X5X5X5X5X5X5X5X5X5X5X5X5X5X5X5X5X5X9X9X9X5X5XrXrXeX5X5X9X9XwX5XtX3XyX0X3XtX5XrXbXxXxXfXgX'.% a D 0 e ! K : J N , e y ; 8 l 5XwX5X5X5X5X5X5X5X5X5X5X5X5X5X5X5X5X",
"5X5X5X5X5X5X5X5X5X5X5X5X5X5X5X5X5X5X5X9X9X9X5XrXeXeX5X5X5X5X5X5X,XyX5X5XhX2XuXuX-X{.{.*XBXE a F r 0 B q D + + D N > y R -XjXiXwXeX5X5X5X5X5X5X5X5X5X5X5X5X5X5X5X",
"5X5X5X5X5X5X5X5X5X5X5X5X5X5X5X5X5X5X5X5X9X9X9X5XeXeX5X5X5X5X5X5XyXeX5X3X7XzX{.n o.>.h o.b d t + 5 : w U F a 7 7 F I t s.BX6X5X5X5X5X5X5X5X5X5X5X5X5X5X5X5X5X5X5X",
"5X5X5X5X5X5X5X5X5X5X5X5X5X5X5X5X5X5XrXrX5X9X9X9X5XeXeX7X5X5X0X5X4X7X5XjXqXT g f  .n.$.L.f.b X @ ; 5 G 8.8.8.3 4 x z 2 9 #XgXfX5X5X5X5X5X5X5X5X5X5X5X5X5X5X5X5X5X",
"5X5X5X5X5X5X5X5X5X5X5X5X5X5X5X5X5X5XeXeX5X5X9X9X5X7XeX7X0X5X5X5XeX3XzX*Xj ,.XX/.w.) @.T.1.f.-.  ; 7.hXzXjXmXp.3 z h.5.H 2 E ;XjX5X5X5X5X5X5X5X5X5X5X5X5X5X5X5X5X",
"5X5X5X5X5X5X5X5X5X5X5X5X5X5X5X5X5X5XeXrX5X5X5X9X5X5X7X7X5X5X5X5X3XMX}.< L./.` &.!.H.] ] v.p I.k F BX3X3X<XMXk.l 3 4 . E 6 7 2 #X0XeX5X5X5X5X5X5X5X5X5X5X5X5X5X5X",
"5X5X5X5X5X5X5X5X5X5X5X5X5X5X5X5X5X5X5X5X5XrXwXwX5X0X0X5X5X7XeX5XnX}.h $._ <.W. .| P.(.#.c.P._ 1.i.nX0X5X0X0Xa 7.H 9 '.F 6 F E OXyXeX5X5X5X5X5X5X5X5X5X5X5X5X5X5X",
"5X5X5X5X5X5X5X5X5X5X5X5X5X5X5X5X5X5X5X5XwXrXwXrX5X9X5X5X5XeXyXuX Xg ^.Q.U...] (.<.( m.~.Y.U.3.h b OXjX0XgXF . 6 8.z oXdXz j.NX0X5X5X5X5X5X5X5X5X5X5X5X5X5X5X5X5X",
"5X5X5X5X5X5X5X5X5X5X5X5X5X5X5X5X5X5X0X9XwXrXrX5X0X0X5XeXeX5XuX=Xi f y.P.U.~.*.x.~.2.) v. .P.E.z.n a.MXjXOX9 8 . 7 7 S vXjX6X5X5X5X5X5X5X5X5X5X5X5X5X5X5X5X5X5X5X",
"5X5X5X5X5X5X5X5X5X5X5X5X5X5X5X5X5X5X0X9X5XwX5X5X5X5XeX>XwXtX1Xn L.T.| ' U.V.J.C.N.J.2.v.$.$.m.@.f.T MX;X0XlXF 8.6 2 6.0X9X5XyXeX5X5X5X5X5X5X5X5X5X5X5X5X5X5X5X5X",
"5X5X5X5X5X5X5X5X5X5X5X5X5X5X5X5XrX5X5X9X5X5X9X9X9XyXrXrX5XqXn y.n.` W.<.) m.C.N.K.B.x.E.Q._ t.+.;.e.nXgX0X2XjXjXh.$XzX6X9XtX>XrX5X5X5X5X5X5X5X5X5X5X5X5X5X5X5X5X",
"5X5X5X5X5X5X5X5X5X5X5X5X5X5X5X5XrXrX5X5X5X9X9X9X5X5X4X,XsXe.O.T.m.*.) P.v.1 c.E.N.J.} { E.b._ f.& {.gX0X7X0X3X0XzX5X5X9X9X9XeX4X5X5X5X5X5X5X5X5X5X5X5X5X5X5X5X5X",
"5X5X5X5X5X5X5X5X5X5X5X5X5X5X5X5X5X5X5X5X9X9X0X0X9X9X9XsXa.o.t.] A.C.c./ m.m.1 v.b.=.~.] &.).O.o.b qXjX7XyX5X9X5X3XiX9X5X3X,XrXrX5X5X5X5X5X5X5X5X5X5X5X5X5X5X5X5X",
"5X5X5X5X5X5X5X5X5X5X5X5X5X5X5X5X5X5X5X5X9X9X5X5XrX3XaXl.h I./.m.B.N.~.z./ U.n. .U.X.b.S._ n.R.& +XjX2X5XyX5X0X9X5X>XwXtXyX3X5X5X5X5X5X5X5X5X5X5X5X5X5X5X5X5X5X5X",
"5X5X5X5X5X5X5X5X5X5X5X5X5X5X5X5X5X5X5X5X5X5X7XeX4XiX*Xh R.b.] U.V.D.N.~.=.` E.S.V.J.D.D.<.O.-.i.mX5XrX5XeX5X7X5XyX>XwX5X0X0XyX5X5X5X5X5X5X5X5X5X5X5X5X5X5X5X5X5X",
"rXrX5X5X5X5X5X5X5X5X5X5X5X5X5X5X5X5X5X5X5X5XeXeXxX=Xf L.U.U.@.} J.C.M.c.(...@.E.N.*.C.Z.^.< T nX8X4XeXrX5X7X7X5X4XeXrXeX5X0X5X5X5X5X5X5X5X5X5X5X5X5X5X5X5X5X5X5X",
"rXwXwX5X9X9X0X0X5X5X7X7X7X5X5X5X9X,XyX3XhX7X4XyX3Xj n.U.Z.~.C.M.V.~.x./ c.(.) 2.E.` z./.| e.uXyX5X5X5X5X5X5X5X5X5X5X5X5X5X5X5X5X5X5X5X5X5X5X5X5X5X5X5X5X5X5X5X5X",
"rXwXwX5X9X9X0X0X5X5X7X7X7X5X5X9XtX,X3XyX4X8XyX1Xn +.%.~.x.#.J.C.c.{ S.c./ m.x.&.Q.W.n.h g.MX3X7X5X5X5X5X5X5X5X5X5X5X5X5X5X5X5X5X5X5X5X5X5X5X5X5X5X5X5X5X5X5X5X5X",
"rXrX5X5X5X9X9X5X5X5X5X5X5X5X5X5X5X0X0XyXeX3XpXm u.!.) <.Y.` @.!.x.#.x.~.z.) U.E.^.,.g  XnX0XtX>X5X5X5X5X5X5X5X5X5X5X5X5X5X5X5X5X5X5X5X5X5X5X5X5X5X5X5X5X5X5X5X5X",
"5X5X5X5X5X5X5X5X5X5X5X5X5X5X9X5X7X7X7X5X5XaX;.,.!.H.m.) c.~.` %.E.J.V.x.E.@.&.T.o.;.qXlX6X7X>XtX5X5X5X5X5X5X5X5X5X5X5X5X5X5X5X5X5X5X5X5X5X5X5X5X5X5X5X5X5X5X5X5X",
"5X5X5X5X5X5X5XwX5XwX5X5X5X9X9X9XyXyX3X0XnXb f XX<.v.E.c.M.A.b.) Z.A.V.S.E.W.1 g a.nX7X7XeX7XeX5X5X5X5X5X5X5X5X5X5X5X5X5X5X5X5X5X5X5X5X5X5X5X5X5X5X5X5X5X5X5X5X5X",
"5X5X5X5X5X5XwXrXwXwX5X5X5X5X9X5X3XyX2XMX;.;.O.$.<._ S.C.B.A.Y.2.[ m.Q.!.t.h T *XNX&XeX5X5XeXyX5X5X5X5X5X5X5X5X5X5X5X5X5X5X5X5X5X5X5X5X5X5X5X5X5X5X5X5X5X5X5X5X5X",
"5X5X5X5X5XrXwXwX5X5X5X5X5X5X5X5XyX<XBXT n XXI...U.&.] /.Z.F.F.C.*.W.y.j T {.MXhX2XyX,XwX5X5X5X9X5X5X5X5X5X5X5X5X5X5X5X5X5X5X5X5X5X5X5X5X5X5X5X5X5X5X5X5X5X5X5X5X",
"5X5X5X5X5X5XwX5X5X5X5X5X5XrX7X7X3XMXa.i | v.X.U.=.V. .$.Y.Z.A.!.<.1 -.}.nXzX3X5XyX,XwXwX0X0X5X5X5X5X5X5X5X5X5X5X5X5X5X5X5X5X5X5X5X5X5X5X5X5X5X5X5X5X5X5X5X5X5X5X",
"5X5X5X5X5X5X5X5X9X3XyX3XeXeX8X8XmXl.h ^.t.) S.D.*.{ S.{ U./.y.m n }.aXaX6X7X0X5X5X5X5X5X9X9X5X5X5X5X5X5X5X5X5X5X5X5X5X5X5X5X5X5X5X5X5X5X5X5X5X5X5X5X5X5X5X5X5X5X",
"rXrX5X5X5X5X5X5XyX3X5XhX5X4X5XzX}.j P.(.W.w.N.B.Z.Z.!.G.1.| ;.+XnXhX0X9X0X0X5X5X5X5X0X9X9X5X5X5X5X5X5X5X5X5X5X5X5X5X5X5X5X5X5X5X5X5X5X5X5X5X5X5X5X5X5X5X5X5X5X5X",
"rXrXrX5X5X0X9X5X5X8X5X3X0X6XjX*X< +./...Z.S.B.B.Q.I.:.m e.+XsXuX6X6X4XrX5X5X5XwX5X0XqX0X5XrXeXeX5X5X5X5X5X5X5X5X5X5X5X5X5X5X5X5X5X5X5X5X5X5X5X5X5X5X5X5X5X5X5X5X",
"rXrX5X5X9X9X5X5X3XhX5X5X0XuX:Xg L.$.z.&.` Q.H.G.O.k g.:XaXMX<X,X0XhXbXrX>XwXwXwX5X0XqX0X7X7XeXeX5X5X5X5X5X5X5X5X5X5X5X5X5X5X5X5X5X5X5X5X5X5X5X5X5X5X5X5X5X5X5X5X",
"wXrX5X5X0X0X5X7XeX7X5X9XqXpX< :.P.z.U.).,.u.:.m a.qXnX0X3X9X9XiX5X3X3X5XeXrX4X3X5X5X5X5X7XfX5X5X5X5X5X5X5X5X5X5X5X5X5X5X5X5X5X5X5X5X5X5X5X5X5X5X5X5X5X5X5X5X5X5X",
"wXrX9X9X0X5X5XeX4X5X5X1XpXn >.O.P._ v.,.g b d.3XjX5X0X2XiX3X3X9XtX9X0X0X5X4X5XyX5X5XrXrX7X7X5X5X5X5X5X5X5X5X5X5X5X5X5X5X5X5X5X5X5X5X5X5X5X5X5X5X5X5X5X5X5X5X5X5X",
"5X5X0X9X5X5X7XeXrXeX,XVXe.o.XXT.f.j i i.:XMXnXqX9X9X9X9X9X5X8XeX5X9XyX5X0XeX7X5X5X5X5X5X5X5X5X5X5X5X5X5X5X5X5X5X5X5X5X5X5X5X5X5X5X5X5X5X5X5X5X5X5X5X5X5X5X5X5X5X",
"5X5X9X0X0X5X7XeXeX4XiX{.b g.>.h n l.qXNX0X2X0X0X9X9X9X9X5XeXeX8X5X5X5X5X0X7X5X5X5X5X5X5X5XwX5X5X5X5X5X5X5X5X5X5X5X5X5X5X5X5X5X5X5X5X5X5X5X5X5X5X5X5X5X5X5X5X5X5X",
"5X5X5X5X5X5X5X5XeX3XjXx d 5.d.*XaXuX0X7X5X5X5X0X5X5X5X5X5X5X7X7X5X5X5X5X5X5X5X5X5X5X5X5X5X5X5X5X5X5X5X5X5X5X5X5X5X5X5X5X5X5X5X5X5X5X5X5X5X5X5X5X5X5X5X5X5X5X5X5X",
"5X5X5X5X5X5X5X5X7X0XhX$X3XzXjXjX7X5X5X5X5X5X5X5X5X5X5X5X5X5X5X5X5X5X5X5X5X5X5X5X5X5X5X5X5X5X5X5X5X5X5X5X5X5X5X5X5X5X5X5X5X5X5X5X5X5X5X5X5X5X5X5X5X5X5X5X5X5X5X5X",
"5X5X5X5X5X5X5X5X5XyX5XhXyX7X7X7X5X5X5X5X5X5X5X5X5X5X5X5X5X5X5X5X5X5X5X5X5X5X5X5X5X5X5X5X5X5X5X5X5X5X5X5X5X5X5X5X5X5X5X5X5X5X5X5X5X5X5X5X5X5X5X5X5X5X5X5X5X5X5X5X",
"5X5X5X5X5X5X5X5X5X5X5X7X7X5X0XyXeXeX5X5X5X5X5X5X5X5X5X5X5X5X5X5X5X5X5X5X5X5X5X5X5X5X5X5X5X5X5X5X5X5X5X5X5X5X5X5X5X5X5X5X5X5X5X5X5X5X5X5X5X5X5X5X5X5X5X5X5X5X5X5X",
"5X5X5X5X5X5X5X5XyX3XyX5XyXyX0X2X5X5X5X5X5X5X5XeX5X5X5X5X5X5X5X5X5X5X5X5X5X5X5X5X5X5X5X5X5X5X5X5X5X5X5X5X5X5X5X5X5X5X5X5X5X5X5X5X5X5X5X5X5X5X5X5X5X5X5X5X5X5X5X5X",
"5X5X5X5X5X5X5X5X5X5X3XeX3X3X0X5X5X5X5X5X5X5X5X5X5X5X5X5X5X5X5X5X5X5X5X5X5X5X5X5X5X5X5X5X5X5X5X5X5X5X5X5X5X5X5X5X5X5X5X5X5X5X5X5X5X5X5X5X5X5X5X5X5X5X5X5X5X5X5X5X",
"5X5X5X5X5X5X5X5XeXeX3XyX5XwX5XeX5X5X5X5X5X5X5X5X5X5X5X5X5X5X5X5X5X5X5X5X5X5X5X5X5X5X5X5X5X5X5X5X5X5X5X5X5X5X5X5X5X5X5X5X5X5X5X5X5X5X5X5X5X5X5X5X5X5X5X5X5X5X5X5X",
"5X5X5X5X5X5X5X5X5X5XeX5X5XyX5XwX5X5X5X5X5X5X5X5X5X5X5X5X5X5X5X5X5X5X5X5X5X5X5X5X5X5X5X5X5X5X5X5X5X5X5X5X5X5X5X5X5X5X5X5X5X5X5X5X5X5X5X5X5X5X5X5X5X5X5X5X5X5X5X5X",
"5X5X5X5X5X5X5X5X5X5X5X5X5X5X5X5X5X5X5X5X5X5X5X5X5X5X5X5X5X5X5X5X5X5X5X5X5X5X5X5X5X5X5X5X5X5X5X5X5X5X5X5X5X5X5X5X5X5X5X5X5X5X5X5X5X5X5X5X5X5X5X5X5X5X5X5X5X5X5X5X",
"5X5X5X5X5X5X5X5X5X5X5X5X5X5X5X5X5X5X5X5X5X5X5X5X5X5X5X5X5X5X5X5X5X5X5X5X5X5X5X5X5X5X5X5X5X5X5X5X5X5X5X5X5X5X5X5X5X5X5X5X5X5X5X5X5X5X5X5X5X5X5X5X5X5X5X5X5X5X5X5X",
"5X5X5X5X5X5X5X5X5X5X5X5X5X5X5X5X5X5X5X5X5X5X5X5X5X5X5X5X5X5X5X5X5X5X5X5X5X5X5X5X5X5X5X5X5X5X5X5X5X5X5X5X5X5X5X5X5X5X5X5X5X5X5X5X5X5X5X5X5X5X5X5X5X5X5X5X5X5X5X5X",
"5X5X5X5X5X5X5X5X5X5X5X5X5X5X5X5X5X5X5X5X5X5X5X5X5X5X5X5X5X5X5X5X5X5X5X5X5X5X5X5X5X5X5X5X5X5X5X5X5X5X5X5X5X5X5X5X5X5X5X5X5X5X5X5X5X5X5X5X5X5X5X5X5X5X5X5X5X5X5X5X",
"5X5X5X5X5X5X5X5X5X5X5X5X5X5X5X5X5X5X5X5X5X5X5X5X5X5X5X5X5X5X5X5X5X5X5X5X5X5X5X5X5X5X5X5X5X5X5X5X5X5X5X5X5X5X5X5X5X5X5X5X5X5X5X5X5X5X5X5X5X5X5X5X5X5X5X5X5X5X5X5X",
"5X5X5X5X5X5X5X5X5X5X5X5X5X5X5X5X5X5X5X5X5X5X5X5X5X5X5X5X5X5X5X5X5X5X5X5X5X5X5X5X5X5X5X5X5X5X5X5X5X5X5X5X5X5X5X5X5X5X5X5X5X5X5X5X5X5X5X5X5X5X5X5X5X5X5X5X5X5X5X5X",
"5X5X5X5X5X5X5X5X5X5X5X5X5X5X5X5X5X5X5X5X5X5X5X5X5X5X5X5X5X5X5X5X5X5X5X5X5X5X5X5X5X5X5X5X5X5X5X5X5X5X5X5X5X5X5X5X5X5X5X5X5X5X5X5X5X5X5X5X5X5X5X5X5X5X5X5X5X5X5X5X",
"5X5X5X5X5X5X5X5X5X5X5X5X5X5X5X5X5X5X5X5X5X5X5X5X5X5X5X5X5X5X5X5X5X5X5X5X5X5X5X5X5X5X5X5X5X5X5X5X5X5X5X5X5X5X5X5X5X5X5X5X5X5X5X5X5X5X5X5X5X5X5X5X5X5X5X5X5X5X5X5X"
};
