/* XPM */
static char *_16b1d5a2b0b4af7f4e9aff0996861f39rApnWvWhEfwsKmt[] = {
/* columns rows colors chars-per-pixel */
"80 80 253 2 ",
"   c #030200",
".  c #0D0100",
"X  c #040B00",
"o  c #090B01",
"O  c #0D0F0A",
"+  c #130100",
"@  c #1B0100",
"#  c #1F0900",
"$  c #150C02",
"%  c #071001",
"&  c #1C1900",
"*  c #220100",
"=  c #2D0500",
"-  c #2B0900",
";  c #250901",
":  c #330400",
">  c #3A0300",
",  c #320B01",
"<  c #3D0C00",
"1  c #241700",
"2  c #231900",
"3  c #2A1603",
"4  c #3B1200",
"5  c #391906",
"6  c #2C2E0D",
"7  c #34280E",
"8  c #332A12",
"9  c #3A2618",
"0  c #2E2D11",
"q  c #2D3728",
"w  c #35362C",
"e  c #343631",
"r  c #383735",
"t  c #2D3430",
"y  c #410C00",
"u  c #4C1B02",
"i  c #471704",
"p  c #541D03",
"a  c #521B05",
"s  c #4E2204",
"d  c #4B220F",
"f  c #522105",
"g  c #5A2608",
"h  c #552B16",
"j  c #513316",
"k  c #693A1C",
"l  c #6F3518",
"z  c #5B3527",
"x  c #4D392B",
"c  c #653C24",
"v  c #6A3B24",
"b  c #683A2A",
"n  c #723F23",
"m  c #793B29",
"M  c #6A3E36",
"N  c #76431C",
"B  c #5A4B28",
"V  c #6D462C",
"C  c #6B482D",
"Z  c #684226",
"A  c #764529",
"S  c #655A26",
"D  c #64592B",
"F  c #69572A",
"G  c #775328",
"H  c #6C4532",
"J  c #684835",
"K  c #754C34",
"L  c #7A4D33",
"P  c #754636",
"I  c #645931",
"U  c #685735",
"Y  c #7B5539",
"T  c #534B1D",
"R  c #705842",
"E  c #5A6A45",
"W  c #5A6A48",
"Q  c #5F6D51",
"!  c #606349",
"~  c #8E3415",
"^  c #8B371A",
"/  c #933514",
"(  c #9C3A13",
")  c #973816",
"_  c #9B360D",
"`  c #A2380F",
"'  c #833C26",
"]  c #853C28",
"[  c #9B4C1E",
"{  c #A44B1D",
"}  c #AB4B1D",
"|  c #A8471B",
" . c #AC521D",
".. c #B14C1D",
"X. c #854D2E",
"o. c #884A2A",
"O. c #9E4D23",
"+. c #954E2C",
"@. c #9A4B2A",
"#. c #89522A",
"$. c #9D5025",
"%. c #92512D",
"&. c #9E512A",
"*. c #945627",
"=. c #894A33",
"-. c #8D5435",
";. c #8B553A",
":. c #85583C",
">. c #885739",
",. c #935235",
"<. c #9E5534",
"1. c #955A32",
"2. c #935339",
"3. c #9C553B",
"4. c #995A38",
"5. c #954D34",
"6. c #A44D23",
"7. c #AB4C22",
"8. c #A24D29",
"9. c #A94929",
"0. c #B14E23",
"q. c #B3472A",
"w. c #A45125",
"e. c #AC5123",
"r. c #A3532C",
"t. c #AB532C",
"y. c #A1582F",
"u. c #B25124",
"i. c #B55E2C",
"p. c #BA5F2C",
"a. c #B35729",
"s. c #A45534",
"d. c #A75834",
"f. c #B45E33",
"g. c #BC5F32",
"h. c #A44F32",
"j. c #9D6238",
"k. c #936237",
"l. c #B5632D",
"z. c #BA632D",
"x. c #B86428",
"c. c #AE6534",
"v. c #AD693D",
"b. c #AB6739",
"n. c #B46433",
"m. c #BA6332",
"M. c #B46934",
"N. c #BA6834",
"B. c #B4643A",
"V. c #B46A3C",
"C. c #B96C3C",
"Z. c #BB663B",
"A. c #B7703F",
"S. c #AB622B",
"D. c #C25D2C",
"F. c #C06431",
"G. c #8A5B42",
"H. c #925C44",
"J. c #985843",
"K. c #926E4C",
"L. c #AB6D44",
"P. c #AD6D4A",
"I. c #A96744",
"U. c #B46C43",
"Y. c #BA6B44",
"T. c #B46D49",
"R. c #B86947",
"E. c #AC7149",
"W. c #AF7145",
"Q. c #B37044",
"!. c #B3714A",
"~. c #BA7348",
"^. c #B67552",
"/. c #A27B56",
"(. c #956B51",
"). c #7B916A",
"_. c #93855D",
"`. c #B78052",
"'. c #8D8564",
"]. c #8D846B",
"[. c #878567",
"{. c #928363",
"}. c #948769",
"|. c #968C78",
" X c #B29574",
".X c #C69778",
"XX c #D4A779",
"oX c #CFAC75",
"OX c #ACA48E",
"+X c #D1AD87",
"@X c #D9BFA4",
"#X c #BED5AE",
"$X c #BED8AA",
"%X c #BED3B4",
"&X c #BFDAB1",
"*X c #BDCEAC",
"=X c #DCC28F",
"-X c #DAC789",
";X c #CBC39A",
":X c #DBC492",
">X c #D8C29D",
",X c #D5C49A",
"<X c #E2C58F",
"1X c #F7E29F",
"2X c #CFC4A2",
"3X c #D3C3A2",
"4X c #D6C3A2",
"5X c #C1D4AD",
"6X c #C0D6A5",
"7X c #C2D2B4",
"8X c #C3D6BB",
"9X c #CFD0AD",
"0X c #FBDEAB",
"qX c #F4DDAB",
"wX c #EDDBB3",
"eX c #E9DAB9",
"rX c #F1DAB4",
"tX c #E8D3AC",
"yX c #C8E9AE",
"uX c #C6E6B1",
"iX c #CAE7B7",
"pX c #C6E9B2",
"aX c #CDEEB6",
"sX c #CEEEB9",
"dX c #C8E7BC",
"fX c #D0EDB5",
"gX c #D1EDBB",
"hX c #CDF0B5",
"jX c #CEF0B9",
"kX c #C6F1B5",
"lX c #D4F2BE",
"zX c #D2F3BB",
"xX c #D4F2B7",
"cX c #CCF0AE",
"vX c #F6E1A9",
"bX c #F9E0AA",
"nX c #F8E6A7",
"mX c #F9E7B9",
"MX c #FCF3BE",
"NX c #F4F2BF",
"BX c #E8E0BB",
"VX c #D3EEC1",
"CX c #D5F2C2",
"ZX c #DCF6CA",
"AX c #CDECC0",
"SX c #E1FBCD",
"DX c #FCF2C3",
"FX c #FCF2CA",
"GX c #F8F9CD",
"HX c #E1FAD0",
"JX c #E8FFD7",
"KX c #F9EFCD",
"LX c #CCDEC6",
/* pixels */
"aXaXaXaXaXaXaXaXaXaXaXaXaXaXaXaXhXhXsXsXaXaXgXgXgXgXgXgXsXaXsXsXsXsXsXsXsXsXsXsXsXsXsXsXsXsXsXsXfXgXgXsXjXkXkXkXaXaXgXgXsXhXcXcXaXaXaXaXaXaXaXaXaXaXaXaXaXaXaXaX",
"aXaXaXaXaXaXaXaXaXaXaXaXaXaXaXaXaXaXsXsXaXaXsXsXaXaXsXsXaXaXaXsXaXaXsXaXsXaXsXaXsXaXsXaXaXaXsXaXfXfXsXsXsXkXaXkXxXgXgXsXaXaXaXkXaXaXaXaXaXaXaXaXaXaXaXaXaXaXaXaX",
"aXaXaXaXaXaXaXaXaXaXaXaXaXaXaXaXsXsXsXsXaXaXsXaXaXaXaXaXaXaXaXsXaXaXaXaXaXaXaXaXaXaXaXaXaXaXaXaXcXfXfXsXAXsXsXaXpXaXgXgXgXsXsXsXaXaXaXaXaXaXaXaXaXaXaXaXaXaXaXaX",
"aXaXaXaXaXaXaXaXaXaXaXaXaXaXaXsXsXsXsXsXaXaXsXaXaXaXaXaXaXaXaXsXaXaXaXaXaXaXaXaXaXaXaXaXaXaXaXaXcXcXaXsXsXsXsXaXaXaXaXgXsXsXsXsXsXaXaXaXaXaXaXaXaXaXaXaXaXaXaXaX",
"aXaXaXaXaXaXaXaXaXaXaXaXsXsXsXsXsXsXsXsXaXaXsXsXaXaXsXsXsXhXsXsXaXaXaXaXaXaXaXaXaXaXaXaXaXaXaXhXcXaXaXsXgXsXgXfXxXhXaXaXfXgXgXgXaXaXaXaXaXaXaXaXaXaXaXaXaXaXaXaX",
"aXaXaXaXaXaXaXaXaXaXaXaXsXsXsXsXaXaXaXaXaXsXsXsXaXaXsXsXsXsXsXsXaXaXaXaXaXaXaXaXaXaXaXaXaXaXaXaXaXaXaXsXsXsXgXaXyXyXyXaXaXaXsXaXaXaXaXaXaXaXaXaXaXaXaXaXaXaXaXaX",
"aXaXaXaXaXaXaXaXaXaXaXaXsXsXsXsXlXxXxXxXzXlXlXlXxXxXlXlXlXlXlXlXlXlXlXlXlXlXlXlXlXlXlXlXlXlXlXCXCXCXCXCXCXlXlXxXxXxXlXlXlXsXsXsXaXaXaXaXaXaXaXaXaXaXaXaXaXaXaXaX",
"aXaXaXaXaXaXaXaXaXaXaXaXsXsXsXgX$X$X$X$X#X#X#X#X$X$X5X5X5X5X5X5X#X#X#X#X#X#X#X#X#X#X#X#X#X#X#X#X%X%X%X#X#X5X5X5X#X#X#X#X#X&XdXsXsXaXaXaXaXaXaXaXaXaXaXaXaXaXaXaX",
"aXaXaXaXaXaXaXaXaXsXaXsXlXuXSX).X % o X o O o o o o o o o o o o X X X X X X X X X X X X X X X X X X X % % X o o O o o % X X q dXgXaXaXsXaXsXjXaXaXaXaXaXaXaXaXaX",
"aXaXaXaXaXaXaXaXjXzXsXiXlXsXCXE   . . o . . + . . . . + + + + . . . . . . . . . . . . . . . . + + + o o o . . + . $ . . $   X 8XVXaXaXsXaXsXsXaXaXaXaXaXaXaXaXaX",
"aXaXaXaXaXaXaXaXpXaXsXiXgXgXSXE   ].tX;X,X,X:X-X-X-X-X=X:X:X:X=X=X=X=X=X=X=X=X=X=X=X=X=X=X=X=X=X<X<X:X-X:X:X:X:X:X:X=X>X@X1 o *XCXaXaXsXaXaXsXaXaXaXaXaXaXaXaXaX",
"aXaXaXaXaXaXaXaXsXaXgXsXsXiXSXE . {.MXnXmXmXqXvX1X1XvXvXvXvXvXvXbXbX0XbX0XbX0XbXbXbXbXbX0XbX0X0X0X0XvXvXvXbX0X0XqXqXbXmXrX1 o 7XVXaXaXsXaXaXsXaXaXaXaXaXaXaXaXaX",
"aXaXaXaXaXaXaXaXzXiXsXgXgXsXZXE   '.MX X3 9 9 7 7 8 8 8 8 0 6 6 0 8 8 8 8 8 8 8 8 8 8 8 8 8 8 8 7 7 6 6 8 9 9 9 9 7 B eXeX1 o *XCXaXaXaXaXaXsXaXaXaXaXaXaXaXaXaX",
"aXaXaXaXaXaXaXaXaXiXsXsXsXsXSXE   }.MXT $ + + + + + + + . . . . . . . . . . . . . . . . . . . . + . . . + + @ + . + . 2XeX2 o 7XCXaXaXaXaXaXsXaXaXaXaXaXaXaXaXaX",
"gXgXaXaXaXaXaXaXsXzXlXaXiXiXSXE   ].MXF + z Y X.#.o.X.=.=.=.X.X.X.X.X.X.X.X.X.X.X.X.X.X.X.X.X.X.=.X.X.#.#.o.o.n Z # # ,XeX2   7XCXaXaXaXaXaXsXaXaXaXaXaXaXaXaXaX",
"gXsXaXaXaXaXaXaXiXaXsXsXgXsXZXW   }.DXS + C `.b.C.C.C.Y.Y.Y.Y.Y.Y.U.U.U.Y.Y.C.C.U.U.U.U.U.U.U.Y.Y.Y.V.C.C.N.d.<.k.- + ,XeX1 o 7XCXaXaXaXaXaXsXaXaXaXaXaXaXaXaXaX",
"aXaXaXaXaXaXaXaXaXhXaXsXsXiXSXE . {.MXF + C L.n.N.n.l.n.n.N.n.n.n.n.n.n.n.n.x.x.c.c.c.n.B.B.n.l.l.l.m.z.z.z. .$.-.= $ 3XwX2 o 7XCXaXaXaXaXaXaXsXaXaXaXaXaXaXaXaX",
"aXaXaXaXsXsXaXaXaXhXaXsXsXiXHXE . {.DXF . C U.m.i.l.N.l.n.l.n.m.n.n.l.z.m.z.x.x.n.n.n.n.B.n.l.x.l.m.m.i.z.p. .6.,.= $ 3XwX2 o 7XCXaXaXaXaXaXaXsXaXaXaXaXaXaXaXaX",
"aXaXaXaXsXsXaXaXaXhXaXsXsXiXHXE   ].FXU . J U.m.m.z.z.i.n.n.n.l.l.l.l.p.D.D.l.l.m.n.n.f.g.p.x.l.S.c.B.f.m.z. .O.,.= @ 3XwX2 o 7XCXaXaXaXaXaXaXaXaXaXaXaXaXaXaXaX",
"aXaXaXaXsXsXaXaXaXhXaXsXsXiXHXW   ].FXI . C U.z.z.m.N.C.V.~.U.U.Q.Q.U.Y.Y.Y.Q.W.U.U.T.R.Y.Y.Q.W.E.L.T.U.B.m.{ 6.,.: @ 3XwX2 o %XCXaXaXaXaXaXaXaXaXaXaXaXaXaXaXaX",
"aXaXaXaXsXsXaXaXaXhXaXsXsXiXHXE   [.DXD . C A.z.l.M.v.%.k k v Z c c c v v c Z Z Z Z Z v v b b c k k A I.B.Z.7.8.2.: @ 4XwX2 X %XCXaXaXaXaXsXaXsXaXaXaXaXaXaXaXaX",
"aXaXaXaXsXsXaXaXaXhXaXsXsXiXHXE   '.DXS . C A.z.n.c.I.g @ + @ @ @ @ @ @ @ + + + + @ @ @ @ @ @ @ @ * = 4.U.f.a.O.2.: * 4XwX2 X %XCXaXaXaXaXsXaXsXaXaXaXaXaXaXaXaX",
"aXaXaXaXsXsXaXaXaXhXaXsXsXiXHXE   ].DXD + V U.z.l.c.P.f @ 5 d i u u u u u u u u u u u u a u i y i * @ ;.T.f.t.O.2.: @ ,XwX2 X %XCXaXaXaXaXsXaXsXaXaXaXaXaXaXaXaX",
"aXaXaXaXsXsXaXaXaXhXaXsXsXiXHXE   ].DXD + V U.z.m.B.P.p @ H H.J.<.<.3.J.J.H.H.H.J.3.3.<.s.<.+.] P = * :.T.B.7.r.-.= * >XwX2 X %XCXaXaXaXaXsXaXsXaXaXaXaXaXaXaXaX",
"aXaXaXaXsXsXaXaXaXhXaXsXsXiXHXE   ].FXI . H T.n.n.n.T.p * c 3.8.{ t.h.5.J.=.L n =.J.3.@.6.7.) ^ m : * ;.T.n.e.O.-.= @ >XwX2 o 7XCXaXaXaXaXaXaXsXaXaXaXaXaXaXaXaX",
"aXaXaXaXsXsXaXaXaXhXaXsXsXiXHXE   ].DXI . H T.n.n.c.T.p * k s.7.} } 8.3.l < * * = i =.<.t.7.( / ' : * >.U.m.e.O.>.- @ >XwX1 o 7XCXaXaXaXaXaXaXsXaXaXaXaXaXaXaXaX",
"aXaXaXaXsXsXaXaXaXhXaXsXsXiXHXE   {.DXD + H !.n.n.c.P.f @ c s.7.7.6.3.l @ @ ; 4 + + , ,.+.t.( / ' > * >.V.m.e.$.>.- @ >XwX1 o 7XCXaXaXaXaXaXaXaXaXaXaXaXaXaXaXaX",
"aXaXaXaXsXsXaXaXaXhXaXsXsXiXHXE   {.MXS + H T.n.n.c.P.f @ c s.7.7.r.X.* + U  X X/.5 @ s 4.O.) / ' > * >.V.z.e.O.>.- @ >XwX1 o 7XCXaXaXaXaXaXaXaXaXaXaXaXaXaXaXaX",
"aXaXaXaXsXsXaXaXaXhXaXsXsXiXHXE   {.DXF + H R.m.n.n.P.p @ v d.0.7.y.h + j +X.X.X+X/.@ - #.[ ) ^ ' > * >.U.m.e.&.>.- @ >XwX1 o 7XCXaXaXaXaXsXaXsXaXaXaXaXaXaXaXaX",
"aXaXaXaXsXsXaXaXaXhXaXsXsXiXHXE   ].DXD + V Y.z.z.n.T.p @ v t.} } s.5 + K.XXl : `.XX5 + N t./ ^ ' > * ;.U.g.0.8.>.- @ >XwX2 o %XCXaXaXaXaXsXaXsXaXaXaXaXaXaXaXaX",
"aXaXaXaXsXsXaXaXaXhXaXsXsXiXHXE   [.DXD + V U.l.x.n.P.s + c s.7.7.&.5 + K.XXk = `.oX3 @ o.7.( ~ ' : @ :.U.g.0.8.;.- * >XwX2 X %XCXaXaXaXaXsXaXsXaXaXaXaXaXaXaXaX",
"aXaXaXaXsXsXaXaXaXhXaXsXsXiXHXE   [.DXD + V U.l.l.n.P.s + c s.} | s.h @ j +X X XXX/.@ * +.} ( / ' : @ :.U.g.0.8.-.= * >XrX2 X %XCXaXaXaXaXsXaXsXaXaXaXaXaXaXaXaX",
"aXaXaXaXsXsXaXaXaXhXaXsXsXiXHXE   '.DXS + V U.m.m.B.P.f @ c y.} 7.t.o.* @ R OXOX}.5 @ g <.6.( / ' : @ :.U.m.e.8.2.: @ 4XwX1 X %XCXaXaXaXaXaXaXsXaXaXaXaXaXaXaXaX",
"aXaXaXaXsXsXaXaXaXhXaXsXsXiXHXE   {.DXD . C Q.n.n.B.P.f @ c y.{ | 8.<.g * + ; 9 + @ > =.@.t._ ) ' > @ :.U.n.e.8.,.: @ 4XrX1 o %XCXaXaXaXaXaXaXsXaXaXaXaXaXaXaXaX",
"aXaXaXaXsXsXaXaXaXhXaXsXsXiXHXE   ].DXD . C Q.n.n.c.P.f @ v s.} 7.8.s.5.l > @ @ * u o.s.t.7.` / ' > * :.V.n.e.8.,.: @ 4XrX1 o %XCXaXaXaXaXaXaXaXaXaXaXaXaXaXaXaX",
"aXaXaXaXsXsXaXaXaXhXaXsXsXiXHXE   ].FXD . C Q.n.n.c.E.f @ v s.} } 7.6.s.s.o.A n o.,.s.6.7...` / ' > * :.V.m.e.8.,.= @ 4XrX1 o %XCXaXaXaXaXaXaXaXaXaXaXaXaXaXaXaX",
"aXaXaXaXsXsXaXaXaXhXaXsXsXiXHXE   ].FXI + V U.l.l.c.E.s @ v d.7.} 0.} 7.t.6.r.r.w.t.| } ..0.` ( ] > * :.V.z.e.8.,.= @ 3XrX1 X %XCXaXaXaXaXsXaXsXaXaXaXaXaXaXaXaX",
"aXaXaXaXsXsXaXaXaXhXaXsXsXiXHXE   ].FXF + V Y.z.l.c.E.s @ c s.7.0.u.| } 7.{ { | { } } } ....` / ] > * >.V.z.e.8.-.= $ 3XwX1 X %XCXaXaXaXaXsXaXsXaXaXaXaXaXaXaXaX",
"aXaXaXaXsXsXaXaXaXhXaXsXsXiXHXE   [.DXF + V Y.p.z.c.E.s @ c s.7.| 7.6.6.6.6.7.} } ..{ } | 7.( / ' > * >.V.z.e.6.-.= $ 3XwX1 o %XCXaXaXaXaXsXaXsXaXaXaXaXaXaXaXaX",
"aXaXaXaXsXsXaXaXaXhXaXsXsXiXHXE   '.DXF @ A Y.g.m.n.E.s @ c s.7.7.6.w.6.6.6.7.} } { } 7.e.7.( ~ ] > * >.V.z.e.6.-.= $ 3XwX1 o %XCXaXaXaXaXsXaXsXaXaXaXaXaXaXaXaX",
"aXaXaXaXsXsXaXaXaXhXaXsXsXiXHXE   '.DXF @ A R.g.m.V.L.s @ v r.} 6.6.7.7.7.7.7.7.7.7.} 7.7.7.) ~ ] > * :.V.i.e.6.-.= $ 3XwX1 o %XCXaXaXaXaXaXaXsXaXaXaXaXaXaXaXaX",
"aXaXaXaXsXsXaXaXaXhXaXsXsXiXHXE   '.DXF + H T.m.l.c.L.f @ v r.} } 6.7.7.7.7.7.6.6.6.} 7.7.7.) ~ m > @ :.U.m.u.O.-.= $ 3XwX1 o %XCXaXaXaXaXaXaXsXaXaXaXaXaXaXaXaX",
"aXaXaXaXsXsXaXaXaXhXaXsXsXiXHXE   '.DXI . J T.n.M.M.L.f @ k t...} } 7.7.7.7.7.7.7.7.7.7.7.7.( ~ =.> @ :.V.p.u.6.,.= $ 3XwX1 o %XCXaXaXaXaXaXaXaXaXaXaXaXaXaXaXaX",
"aXaXaXaXsXsXaXaXaXhXaXsXsXiXHXE   ].FXI . J !.n.l.c.W.f @ v s.| } { } 7.7.7.7.7.7.7.6.7.7.7.( ~ m : @ G.U.p.u.6.,.= $ 3XwX1 o %XCXaXaXaXaXaXaXaXaXaXaXaXaXaXaXaX",
"aXaXaXaXsXsXaXaXaXhXaXsXsXiXHXE   ].FXI . J E.n.N.n.L.u @ b 3.8.7.} 7.6.7.7.7.7.{ 6.{ w.6.7.( ~ A , @ G.U.g.0.8.,.= $ 3XwX1 o %XCXaXaXaXaXsXaXsXaXaXaXaXaXaXaXaX",
"aXaXaXaXsXsXaXaXaXhXaXsXsXiXHXE   ].FXI . C !.n.z.n.L.s @ x G.,.+.%.%.%.%.+.+.+.+.%.%.%.+.+.] ' b - + Y T.m.u.8.,.= $ 2XwX2 o %XCXaXaXaXaXsXaXsXaXaXaXaXaXaXaXaX",
"aXaXaXaXsXsXaXaXaXhXaXsXsXiXHXE   ].DXD . C U.z.z.n.P.d . $ ; * * @ * * * * * * # # @ # * ; @ @ - @ + R T.m.0.9.,.= $ 2XwX2 o %XCXaXaXaXaXsXaXsXaXaXaXaXaXaXaXaX",
"aXaXaXaXsXsXaXaXaXhXaXsXsXiXHXE   {.DXD + V Y.z.z.n.!.h + + @ @ + . + + + + + + . + . + + + + @ * * , H.U.f.7.8.,.= $ 3XwX1 o %XCXaXaXaXaXsXaXsXaXaXaXaXaXaXaXaX",
"aXaXaXaXsXsXaXaXaXhXaXsXsXiXHXE . {.FXD + H U.m.m.N.B.b.4.-.-.-.-.-.-.2.2.2.,.#.%.#.1.#.X.2.-.1.%.&.s.b.M.n.e.O.-.= $ 3XwX1 o %XCXaXaXaXaXaXaXsXaXaXaXaXaXaXaXaX",
"aXaXaXaXsXsXaXaXaXhXaXsXsXiXHXE . /.DXI + A ~.i.n.n.m.N.n.B.V.C.V.C.Y.B.U.T.!.~.~.U.c.C.C.V.B.V.C.N.m.N.n.n.e.r.,.= $ 3XrX1 o %XCXaXaXaXaXaXaXsXaXaXaXaXaXaXaXaX",
"aXaXaXaXsXsXaXaXaXhXaXsXsXiXHXE   ].GXD + A V.z.z.l.z.z.m.m.m.n.N.n.B.B.I.;.a a Z H.L.n.l.n.B.n.n.n.n.n.n.n.e.8.,.: @ 4XrX1 X %XCXaXaXaXaXaXaXaXaXaXaXaXaXaXaXaX",
"aXaXaXaXsXsXaXaXaXhXaXsXsXiXHXE   [.NXS @ A A.x.l.l.z.z.z.z.l.x.z.m.N.v.;.* + + + j L.n.n.m.N.n.n.n.n.m.m.m.7.6.,.: * 4XrX1 X %XCXaXaXaXaXaXaXaXaXaXaXaXaXaXaXaX",
"aXaXaXaXsXsXaXaXaXhXaXsXsXiXHXE   }.nX-Xk.b.l.x.l.n.n.n.n.n.N.N.N.x.i.U.h + B [.$ @ y.z.m.f.n.n.N.N.n.n.z.m.0.6.,.: * 4XrX1 X %XCXaXaXaXaXsXaXsXaXaXaXaXaXaXaXaX",
"aXaXaXaXsXsXaXaXaXhXaXsXsXiXHXE . _.nXnXXXj.l.N.n.n.n.n.n.n.n.z.x.x.x.Q.5 . OXGXq + *.N.m.m.N.l.n.n.i.l.z.z.u.8.,.: @ 4XwX1 X %XCXaXaXaXaXsXaXsXaXaXaXaXaXaXaXaX",
"aXaXaXaXsXsXaXaXaXhXaXsXsXiXHXE   }.nXoXN j.Y.i.n.n.m.m.m.m.F.z.x.x.x.Q.h + x ! . * <.m.m.N.N.S.m.F.m.m.z.z.e.O.-.= $ 3XwX2 X %XCXaXaXaXaXsXaXsXaXaXaXaXaXaXaXaX",
"aXaXaXaXsXsXaXaXaXhXaXsXsXiXHXE   {.MXG @ A V.n.n.n.m.z.m.z.D.z.x.x.l.c.(.- @ @ @ b Y.i.m.l.l.N.m.m.m.m.z.m.e.$.-.- $ 2XwX2 o %XCXaXaXaXaXsXaXsXaXaXaXaXaXaXaXaX",
"aXaXaXaXsXsXaXaXaXhXaXsXsXiXHXW   ].DXF @ A !.n.n.m.p.F.n.n.l.m.m.p.i.n.V.4.l g o.I.Z.m.z.i.x.l.n.f.Z.n.N.m.w.$.>.- $ 3XwX2 o 7XCXaXaXaXaXaXaXsXaXaXaXaXaXaXaXaX",
"aXaXaXaXsXsXaXaXaXhXaXsXsXiXHXW   ].DXD + V !.n.z.x.x.n.v.W.L.!.R.R.R.U.!.!.^.^.!.^.T.R.R.Y.Y.U.U.U.U.c.n.m.e.$.>.- @ 3XwX2 o 7XCXaXaXaXaXaXaXsXaXaXaXaXaXaXaXaX",
"aXaXaXaXsXsXaXaXaXhXaXsXsXiXHXE   ].DXS + A Q.l.x.x.C.<.L K C A H P P H H H V K P P P P K P A A A A #.v.V.n.e.O.-.= * 4XwX2 o 7XCXaXaXaXaXaXaXaXaXaXaXaXaXaXaXaX",
"aXaXaXaXsXsXaXaXaXhXaXsXsXiXHXE   ].DXS + V Q.x.x.x.V.g @ + + @ @ @ @ @ @ @ @ @ @ @ + + + + @ @ @ @ = 1.V.n.e.w.,.: * @XwX2 o 7XCXaXaXaXaXaXaXaXaXaXaXaXaXaXaXaX",
"aXaXaXaXsXsXaXaXaXhXaXsXsXiXHXE   ].DXS + V Q.x.x.l.U.f @ 3 5 < y y y 4 4 4 y y i 4 4 4 4 4 y > 4 * * -.V.N.e.[ ,.: * @XwX2 o 7XCXaXaXaXaXsXaXsXaXaXaXaXaXaXaXaX",
"aXaXaXaXsXsXaXaXaXhXaXsXsXiXHXE   ].DXD + H Q.l.x.n.P.u @ z H.4.2.2.1.1.1.1.3.3.4.1.1.1.1.1.=.m M , @ >.U.n.e.6.,.: * 4XwX2 o 7XCXaXaXaXaXsXaXsXaXaXaXaXaXaXaXaX",
"aXaXaXaXsXsXaXaXaXhXaXsXsXiXHXE   '.DXD + H !.n.l.V.P.a * v <.O.r.w.6.[ [ O.9.9.8.6.6.{ 6.O.) ] P : * 2.R.f.7.w.-.= @ 4XwX& o 7XCXaXaXaXaXsXaXsXaXaXaXaXaXaXaXaX",
"aXaXaXaXsXsXaXaXaXhXaXsXsXiXHXE   ].DXD . H T.n.m.B.I.g * n t.| | } } } e.7.q.q.7.7...| ..} ( ^ m : = -.R.m.e.O.-.= @ 4XwX& X %XCXaXaXaXaXsXaXsXaXaXaXaXaXaXaXaX",
"aXaXaXaXsXsXaXaXaXhXaXsXsXiXHXW   ].DXD . V U.z.z.n.E.u @ b r.{ } } } } } 7.7.7.7.} } } ..} ` ~ ] : * -.U.m.{ 6.2.: * @XwX& X %XCXaXaXaXaXsXaXsXaXaXaXaXaXaXaXaX",
"aXaXaXaXsXsXaXaXaXhXaXsXsXiXHXE   ].DXD . V C.x.m.b.L.s @ b d.{ } } 7.} 7.} 7.} 7.} } } 7.} ` / ' > * -.U.l.e.w.2.= * 4XwX2 X %XCXaXaXaXaXsXaXsXaXaXaXaXaXaXaXaX",
"aXaXaXaXsXsXaXaXaXhXaXsXsXiXHXE . {.MXS . C A.z.n.V.E.s @ c y.{ 7.7.7.7.6.6.6.6.6.{ 6.{ 7.} ( ~ ' > = ;.U.l. .[ >.- @ >XqX1 o %XCXaXaXaXaXsXaXsXaXaXaXaXaXaXaXaX",
"aXaXaXaXsXsXaXaXaXhXaXsXsXiXHXE . {.MXS . C U.m.n.B.L.f @ b <.6.6.8.8.&.&.&.&.&.&.&.r.8.r.8.) ^ m : * ;.v.n. .$.>.- $ ,XwX1 o %XCXaXaXaXaXsXaXsXaXaXaXaXaXaXaXaX",
"aXaXaXaXsXsXaXaXaXhXaXsXsXiXHXE   ].DXD . H T.m.Z.B.P.a @ M J.3.,.2.2.2.2.2.2.2.2.2.2.2.3.2.o.A H , * H.I.B.e.r.;.- + 3XwX2 X %XCXaXaXaXaXsXaXsXaXaXaXaXaXaXaXaX",
"aXaXaXaXsXsXaXaXaXhXaXsXsXiXHXE   ].FXI . H T.m.f.f.^.p @ , y y y < < < < < < < < < < < y y > : , * * H.T.B.t.@.;.= $ 3XwX1 o %XCXaXaXaXaXsXaXsXaXaXaXaXaXaXaXaX",
"aXaXaXaXsXsXaXaXaXhXaXsXsXiXHXE   {.FXI . H Y.z.N.n.v.g @ + @ * @ @ @ @ @ @ @ @ @ @ @ @ @ @ @ @ @ * : 2.B.m.a.6.2.: @ 3XrX1   7XCXaXaXaXaXsXaXsXaXaXaXaXaXaXaXaX",
"aXaXaXaXsXsXaXaXaXhXaXsXsXiXHXE   {.DXI . V U.z.x.N.M.j.A Y G G L K K K K K K K K K L K L L L L L A ,.I.n.z.} 7.,.: @ 3XrX1 . 7XCXaXaXaXaXsXaXsXaXaXaXaXaXaXaXaX",
"aXaXaXaXsXsXaXaXaXzXaXiXlXsXHXE   }.DXD + V !.i.x.x.z.N.L.P.Q.V.U.U.U.U.U.U.U.U.U.U.U.U.U.U.U.U.L.L.U.B.l.x. .6.,.- + ;XrX1 . 7XVXaXaXaXaXaXsXaXaXaXaXaXaXaXaXaX",
"jXjXsXsXgXgXsXsXhXpXjXlXgXuXZXW   _.DXI . Z U.n.x.x.z.z.n.n.l.l.l.m.m.m.n.n.n.n.n.n.m.m.m.m.m.n.n.M.n.m.x.x. .w.-.* + 2XeX1   7XCXaXaXsXaXaXsXaXsXsXsXsXsXsXsXsX",
"aXaXaXaXsXsXaXaXhXaXjXpXsXaXHXW   {.FXI . V T.n.l.l.z.z.n.n.l.l.l.l.l.l.l.l.l.l.l.l.l.l.l.l.l.n.l.n.m.m.x.z.e.$.-., + ;XeX& % #XCXaXaXaXaXaXaXaXaXaXaXaXaXaXaXaX",
"jXjXsXsXgXgXsXsXaXzXjXpXCXiXZXE   ].KXI + C L.c.c.l.n.g.B.B.n.n.n.n.n.n.n.n.n.n.n.n.n.n.n.n.n.n.n.n.n.n.n.n.w.@.;.* $ ;XBX& X 7XCXsXaXjXsXsXsXaXsXsXsXsXsXsXsXsX",
"aXaXaXaXsXsXaXaXaXhXaXjXCXuXHXW   |.KXU + K ^.U.U.U.Y.Y.R.T.T.T.U.U.U.U.U.U.U.U.U.U.U.U.U.U.U.U.U.Q.U.U.U.U.d.3.H.= @ tXKX& % *XlXaXaXsXaXaXaXaXaXaXaXaXaXaXaXaX",
"aXaXaXaXsXsXaXaXhXaXaXjXiXsXJXE   ! |.x . j A n N Z n m m m n n n n n n n n n n n n n n n n n Z n Z k Z k n k c z - + (.}.$ X %XCXaXaXsXsXsXsXaXaXaXaXaXaXaXaXaX",
"jXjXjXjXgXgXjXjXaXhXzXjXsXgXZXQ           . + +     . . . . . . . . . . . . . . . . . . . . . . . . . . . + . . .   .       X 8XVXsXsXzXjXjXzXsXjXjXjXjXjXjXjXjX",
"pXpXuXuXuXuXuXuXpXuXuXuXiXuXVXOXt r e q r e r w t t e e e w w w w e e e e e e e e e e e e e e w w w w w w w w r r t e e w q Q LXdXuXuXuXuXuXpXuXuXuXuXuXuXuXuXuX"
};
