/* XPM */
static char *_3ee944090574c71e00721bba33c9853pGNFRE3OHfvIBOdC[] = {
/* columns rows colors chars-per-pixel */
"80 80 245 2 ",
"   c #090900",
".  c #0C1B00",
"X  c #061500",
"o  c #1E0900",
"O  c #2B1400",
"+  c #142400",
"@  c #1B2502",
"#  c #1B2B01",
"$  c #1D2C09",
"%  c #182707",
"&  c #152801",
"*  c #222D01",
"=  c #222E0B",
"-  c #2B2E01",
";  c #243301",
":  c #293501",
">  c #2D3B01",
",  c #24330C",
"<  c #2B390B",
"1  c #323C02",
"2  c #343E0B",
"3  c #2C3B14",
"4  c #2A3614",
"5  c #343D18",
"6  c #343F21",
"7  c #4C3319",
"8  c #623518",
"9  c #413121",
"0  c #2E410B",
"q  c #364201",
"w  c #3A4502",
"e  c #3E4A04",
"r  c #35440B",
"t  c #3C470B",
"y  c #2F4113",
"u  c #334215",
"i  c #3C4913",
"p  c #33431B",
"a  c #3C4A1F",
"s  c #3B4415",
"d  c #384825",
"f  c #3E5126",
"g  c #3C5031",
"h  c #414C03",
"j  c #424C0C",
"k  c #485409",
"l  c #505D0E",
"z  c #424C12",
"x  c #444D1B",
"c  c #4B5414",
"v  c #4C5A14",
"b  c #475419",
"n  c #525C19",
"m  c #5D6B1D",
"M  c #576418",
"N  c #59670F",
"B  c #616E1D",
"V  c #606C16",
"C  c #63711F",
"Z  c #424C29",
"A  c #435225",
"S  c #4C5323",
"D  c #4C5C2C",
"F  c #485729",
"G  c #525C25",
"H  c #555D2C",
"J  c #595A20",
"K  c #4A5835",
"L  c #534F2E",
"P  c #68462A",
"I  c #714C30",
"U  c #57632B",
"Y  c #5A642A",
"T  c #5A6624",
"R  c #5B653C",
"E  c #5E6A3A",
"W  c #586637",
"Q  c #566933",
"!  c #636B2C",
"~  c #697728",
"^  c #636D3A",
"/  c #636C34",
"(  c #6A7434",
")  c #6B7A32",
"_  c #69743C",
"`  c #69773B",
"'  c #727D3D",
"]  c #747D35",
"[  c #706E3B",
"{  c #5B6B45",
"}  c #5A6646",
"|  c #5E7245",
" . c #646D44",
".. c #6C7544",
"X. c #6E7A43",
"o. c #667548",
"O. c #717B44",
"+. c #737E4C",
"@. c #7C7C48",
"#. c #677754",
"$. c #747B53",
"%. c #76664A",
"&. c #535D44",
"*. c #8F674C",
"=. c #B16C54",
"-. c #B37B66",
";. c #845344",
":. c #D87C5D",
">. c #77852B",
",. c #74823B",
"<. c #7C893A",
"1. c #798636",
"2. c #74824B",
"3. c #79834D",
"4. c #7D8A4D",
"5. c #7B8543",
"6. c #7B8452",
"7. c #7C8A52",
"8. c #76855B",
"9. c #778D56",
"0. c #788A66",
"q. c #7D9366",
"w. c #778969",
"e. c #808C3A",
"r. c #889936",
"t. c #8CA13A",
"y. c #838D43",
"u. c #828D4C",
"i. c #8A9549",
"p. c #8D9B4A",
"a. c #879547",
"s. c #939F4D",
"d. c #828C54",
"f. c #838D5B",
"g. c #859253",
"h. c #8A9653",
"j. c #8D9A55",
"k. c #8B955C",
"l. c #89945B",
"z. c #929D5C",
"x. c #919F54",
"c. c #95A34D",
"v. c #98A84D",
"b. c #9AA755",
"n. c #99A658",
"m. c #97AB55",
"M. c #A0AD5A",
"N. c #A4B35B",
"B. c #8D9963",
"V. c #899868",
"C. c #929D64",
"Z. c #949C6A",
"A. c #879A75",
"S. c #8E936D",
"D. c #BA8A6B",
"F. c #BE9778",
"G. c #94A164",
"H. c #9CA868",
"J. c #8DA373",
"K. c #96AA7B",
"L. c #9AB47A",
"P. c #8DA368",
"I. c #A1AB68",
"U. c #A9B765",
"Y. c #AAB773",
"T. c #BA8458",
"R. c #D18F6F",
"E. c #E8966C",
"W. c #E8977C",
"Q. c #F69977",
"!. c #E9926D",
"~. c #DDA678",
"^. c #E4A276",
"/. c #F6A378",
"(. c #99AC87",
"). c #9EB587",
"_. c #8FA286",
"`. c #A5B889",
"'. c #A6BA97",
"]. c #B3B188",
"[. c #DA9C86",
"{. c #ED9B84",
"}. c #D9BA92",
"|. c #D8B387",
" X c #E1B78F",
".X c #EDA484",
"XX c #ADC495",
"oX c #B2C799",
"OX c #B4C992",
"+X c #B8CAA6",
"@X c #BBD2A7",
"#X c #BDD0B2",
"$X c #D9C99A",
"%X c #D6D09C",
"&X c #E3C593",
"*X c #DECFA4",
"=X c #C4DAAB",
"-X c #C4D4A5",
";X c #DCDEAC",
":X c #C4DBB2",
">X c #C7DBB6",
",X c #E6D7A4",
"<X c #E5D4AB",
"1X c #C5EAAD",
"2X c #CBEBAE",
"3X c #C6E3AC",
"4X c #D7E6AF",
"5X c #CDF1AD",
"6X c #CAF0A7",
"7X c #C6E3B3",
"8X c #CBE5B3",
"9X c #C6ECB3",
"0X c #CDEEB7",
"qX c #CCE5BA",
"wX c #CDEDB9",
"eX c #C7E8B9",
"rX c #D2ECB6",
"tX c #D2EDBB",
"yX c #DAECBA",
"uX c #D8E6B5",
"iX c #C6F1B6",
"pX c #CBF0B5",
"aX c #CDF1BA",
"sX c #C7F2B9",
"dX c #D1F1B6",
"fX c #D2F2BB",
"gX c #D9F6BB",
"hX c #E3E9B8",
"jX c #E2EBB6",
"kX c #CDE9C1",
"lX c #D4ECC3",
"zX c #D9EEC3",
"xX c #D5E9C6",
"cX c #D4F2C2",
"vX c #DBF4C4",
"bX c #DDFAC3",
"nX c #DCF4CB",
"mX c #DEF9CA",
"MX c #DDF0D2",
"NX c #E1F6CB",
"BX c #E2FBCB",
"VX c #E3FAC7",
"CX c #E4FCD2",
"ZX c #E7FAD3",
"AX c #ECF8DA",
/* pixels */
"0X0X0X0X0X0X0X0X0X0X0X0X0X0X0X0X0X0X0X0XwXwXwXwXwXwXwXwX0X0X0X0XwXwX0XpXpX5XpXpXwXwXwXwXwX0XpXpX0X0X0X0X0X0X0X0X0X0X0X0XpXpXpXpX0X0X0X0X0X0X0X0X0X0XwXwXwXwXwXwX",
"0X0X0X0X0X0X0X0X0X0X0X0X0X0X0X0X0X0X0X0X0XwXwXwXwXwXwX0X0X0X0X0XwXwX0XpXpXpXpXpX0XwXtXtXaXwXpX0X0X0X0X0X0X0X0X0X0X0X0X0X0XpX0X0X0X0X0X0X0X0X0X0X0X0XwXwXwXwXwXwX",
"0X0X0X0X0X0X0X0X0X0X0X0X0X0X0X0X0X0X0X0X0X0X0X0XwXwX0X0X0X0X0X0X0X0X0X0XpXpXpXpX0X0XwXwXwX0XpXpX0X0XwX0X0X0X0X0X0X0X0X0X0X0X0X0X0X0X0X0X0X0X0X0X0X0XwXwXwXwXwXwX",
"0X0X0X0X0X0X0X0X0X0X0X0X0X0X0X0X0X0X0X0X0X0X0X0X0X0X0X0X0X0X0X0X0X0XwXwX0XpX0XpXpX0X0XwX0X0XpXpX0XwXwXwX0X0X0X0X0X0X0X0X0XwXwXwX0X0X0X0X0X0X0X0X0X0XwXwXwXwXwXwX",
"0X0X0X0X0X0X0X0X0X0X0X0X0X0XrXrXwXwX0X0X0XpXpXpXpXpXpX0X0X0XwX0X0X0XwXwX0X0X0X0X0X0XtXtXaX0XpX0X0XtXwXwXwXwX0X0X0X0XwXwXwXwXwXwXwX0X0X0X0X0X0X0X0X0XwXwXwXwXwXwX",
"0X0X0X0X0X0X0X0X0X0X0X0X0X0XrXrX0X0X0X0X0XpXpXpXpXpXpX0X0X0X0X0X0X0XwXwXwX0X0X0X0X0XwXwXwX9X0X0X0XwXwXwXwX0X0X0X0X0XwXwXwXwXtXwXwX0X0X0X0X0X0X0X0X0XwXwXwXwXwXwX",
"0X0X0X0X0X0X0X0X0X0X0X0X0X0X0X0X0X0X0X0X0X0X0X0X0X0X0X0X0X0X0X0X0X0XwXwXwXwX0X0XtXtXqXqXqXwX0XpXwXtXtXwX0X0X0XpXpX0XwXwXwXwXtXwXwX0X0X0X0X0X0X0X0X0XwXwXwXwXwXwX",
"0X0X0X0X0X0X0X0X0X0X0X0X0X0X0X0X0X0X0X0XwXwXwXwXwXwXwXwX0X0X0X0X0X0X0XwXwXwX0X0X0XtXnXnXnXcXtX0XwXwXwX0X0X0XpXpXpXpXwX0XwXwXwXwXwX0X0X0X0X0X0X0X0X0XwXwXwXwXwXwX",
"0X0X0X0X0X0X0X0X0X0X0X0X0X0X0X0X0X0XpXwXwXwXtXeXqXeXcXwXwXdX0X0X0X0X9XaX0X8XtX0XwXnX(.d g '.lXtX0XdX9X9XaX9X9XpXpX9X8XaX0XdX9XwX0X0X0X0X0X0X0X0X0X0XwXwXwXwXwXwX",
"0X0X0X0X0X0X0X0X0X0X0X0X0X0X0X0X0X0X0X0XwXtXlXnXnXkXqXwXfX9X0XfXdXdXaX9X0XdX0X0XNXq.X 4 % X ).vX8X0XaX0XpX0XaX0X0XpXfX9X0X0XwXwX0X0X0X0X0X0X0X0X0X0XwXwXwXwXwXwX",
"0X0X0X0X0X0X0X0X0X0X0X0X0X0X0X0XdXpX0X9XcXNX:X'.@XCXvXwX0X8XgX1X0X9X8X0X0XrX8XVX`.@ K #.{ 3 p tXtX0X8XfX8XaX0X0X9XwX9XwX9X0XdX9X0X0X0X0X0X0X0X0X0X0XwXwXwXwXwXwX",
"0X0X0X0X0X0X0X0X0X0X0X0X0X0X0X0X9X0X0XwXvX#.& , @ K @XvXtXtX1XpXaXwX0XdX0X0XtX=X3 W A V.a  .% ).vXaX0XwXwX0X8XtX0XtXwX9X0XfX1XpX0X0X0X0X0X0X0X0X0X0XwXwXwXwXwXwX",
"0X0X0X0X0X0X0X0X0X0X0X0X0X0XrX0XaX9XtXK.8.. A `.R @ , +XtXtXaXaX8XaX0X0X0X0XNXo.; 7.1 H.i o., #.VXdX9XwX8XmXBXBXcX:XtXtX9XpX0XpX0X0X0X0X0X0X0X0X0X0XwXwXwXwXwXwX",
"0X0X0X0X0X0X0X0X0X0X0X0X0X0X0X0XeXcXtX8X< D W f.E W D f VXwX0X9XwXdXrXtXfX8XzX3 E u.> n.j ^ = } mX8XtXmX).{ p K oXBXtXwX0XpXfX0X0X0X0X0X0X0X0X0X0X0XwXwXwXwXwXwX",
"0X0X0X0X0X0X0X0X0X0X0X0X0X0X0XwXcX0XwXtX< E S B._ i 2.+ XXcXcXwXwX0X8X0XwX=Xq., B.T >.M.> d.Z &.BXtXzX`.% @ 4 @ . (.nXtXtX8X1XaX0X0X0X0X0X0X0X0X0X0XwXwXwXwXwXwX",
"0X0X0X0X0X0X0X0X0X0X0X0X0X0X0XwX0XeXcX7X; ..b l.I.w _ ; q.mXwXeXwXdX0XtXlXzX3 a n.M r.v.1 d.5 #.vX-XzX, R A Z.F D , qXqXtX0XdX0X0X0X0X0X0X0X0X0X0X0XwXwXwXwXwXwX",
"0X0X0X0X0X0X0X0X0X0X0X0X0X0X0X0X0X9XtX7X; 2.> ' U.k ,.S | ZX7XfXtX0XtXtXtX=X4 E 4.N c.a.1 C.4 0.tXq.o.p f.w H.k O.< q.CX0XpX0X9X0X0X0X0X0X0X0X0X0X0XwXwXwXwXwXwX",
"0X0X0X0X0X0X0X0X0X0X0X0X0X0X0X0XdX8XcX:X; X.b u.b.m M ^ 3 (.vXtXtXtXwXqXbXZ., Z.,.~ a.m w C., 8.VX8X3 R 7.e N.l ! E 3 lX0X0X0XfX0X0X0X0X0X0X0X0X0X0XwXwXwXwXwXwX",
"0X0X0X0X0X0X0X0X0X0X0X0X0X0X0X0X0XtXlX:X# o.x u.n.m U +.$ :XtX8X0XfXwXwXZXD * d.) m ~ m j H.. A.BX8Xu 8.d.e N.m n +.= :XtX0XdX8X0X0X0X0X0X0X0X0X0X0XwXwXwXwXwXwX",
"0X0X0X0X0X0X0X0X0X0X0X0X0X0X0X0X0XfXqXlX, $.S ' s.M z  .f nXwXdX0XwX0XwXtXu U 5.! ) n.n c U X (.VX=Xu +.3.j b.~ z E # +XfX9X8XtX0X0X0X0X0X0X0X0X0X0XwXwXwXwXwXwX",
"0X0X0X0X0X0X0X0X0X0X0X0X0X0X0X0XdX0X:X'.d Z A ( N.b.z  .p lXtX2XaX9XpXfXOX> j.p.M x.n.h m 2.@ '.mXOX< ^ G j m.~ z +.. K.BX9X0XtX0X0X0X0X0X0X0X0X0X0XwXwXwXwXwXwX",
"0X0X0X0X0X0X0X0X0X0X0X0X0X0X0X0X1XdXwX(.+ } 5 Y v.>.b { d qX0XdX9X9XpXbXJ.; p.e.k y.n.w ) g.+ (.BX`.; B./ e U.>.j Z.4 A.BX9XdX0X0X0X0X0X0X0X0X0X0X0XwXwXwXwXwXwX",
"0X0X0X0X0X0X0X0X0X0X0X0X0X0X0X0XaX9X2XBXF D O.v e.e.T W 3 tX0X2XfX0X9XbX8.r a.>.h ( h.q 5.' . '.BXL.* Z.5.c 1.) q G.d w.7XaX3XfX0X0X0X0X0X0X0X0X0X0XwXwXwXwXwXwX",
"0X0X0X0X0X0X0X0X0X0X0X0X0X0X0X0X0X9XdXbX .A 4.w c.b.T : p 7XdX0XfX0X0XmX#.F n.] ! H.f.: i.M @ :XBXL.; B.' e <.<.q G.f g @XdX0X0X0X0X0X0X0X0X0X0X0X0XwXwXwXwXwXwX",
"0X0X0X0X0X0X0X0X0X0X0X0X0X0XrX0XpX1X8XVX#.5 k.q r.M.! i p @XcXwX0XaX9XCXW W u.( ! _ 6.1 p.1.# =XBXL.; 3.X.j U.1.w C.5 K BX2XtXtX0X0X0X0X0X0X0X0X0X0XwXwXwXwXwXwX",
"0X0X0X0X0X0X0X0X0X0X0X0X0X0XrX0X0XpX0XmXq.= C.h >.N.' a 5 @XlXtX0XfX7X7XF o.! T T 5.+.t c.B # >XfX).> G / c b.>.w X.@ 8.mX0X8XwX0X0X0X0X0X0X0X0X0X0XwXwXwXwXwXwX",
"0X0X0X0X0X0X0X0X0X0X0X0X0X0X0XwXaX0X0XmX'.$ n.k C p._ F 4 (.=XrXrX3XcXXX# O.( k 1.M.Y b b.B ; qXNXV.> d.^ c U.~ e 5.5 w.mX8XgX0X0X0X0X0X0X0X0X0X0X0XwXwXwXwXwXwX",
"0X0X0X0X0X0X0X0X0X0X0X0X0X0X0XwXeXcXwXwX#X, 2.) k ( 7.x A s 8XBXVXVXNXzX: 3.i.N >.N.v G b.v u MXCXV.; G.^ z 1.B h H.4 w.mX0X8X0X0X0X0X0X0X0X0X0X0X0XwXwXwXwXwXwX",
"0X0X0X0X0X0X0X0X0X0X0X0X0X0X0XwXcXwXtXfXxX3 F b q G.z.e h.w @ { f.V.W 0.* 3.z.B r.v.k Y h.> 6 MXMXJ.> k.E i b.N v 3.3 g 8XfX0XtX0X0X0X0X0X0X0X0X0X0XwXwXwXwXwXwX",
"0X0X0X0X0X0X0X0X0X0X0X0X0X0X0XwXeX8X0XrXzXZ D 3.r g.n.w <.a.X.< * i s A * +.5.M t.t.# _ z.z Z ZXzX8.r H.H _ Y.l c / @ A.mX9X0X0X0X0X0X0X0X0X0X0X0X0XwXwXwXwXwXwX",
"0X0X0X0X0X0X0X0X0X0X0X0X0X0X0X0X0XgX0X8XAX8.r H.n T Y.l ~ p.i.m i.1.' d.* 6.Y k t.t.# 3.z.z f lXCXo.> ! S b j.h ~ d.4 +XmXpXrX0X0X0X0X0X0X0X0X0X0X0XwXwXwXwXwXwX",
"0X0X0X0X0X0X0X0X0X0X0X0X0X0X0X0XdX2XdXwX>X0.# z.' t G.w N c.<.<.s.~ M d.@ 6.O.w v.v.> ` h.: D NXnXK z g.b ' j.q 1.h.% _.tX0X0X0X0X0X0X0X0X0X0X0X0X0XwXwXwXwXwXwX",
"0X0X0X0X0X0X0X0X0X0X0X0X0X0X0X0X0XwXwXtX=X@X0 E G.r ( h.h M 5.y.5.' O.^ * x u.m c.p.> 4.g.;  .ZXxX5 ' h.h H.j.> u.2.+ A.fX0X0XdX0X0X0X0X0X0X0X0X0X0XwXwXwXwXwXwX",
"0X0X0X0X0X0X0X0X0X0X0X0X0X0X0X0XwXaXeXwXtXBXJ.. Z.7.* k.I.Y c c n c U H @ ..u.l p.a.> 7.B.r  .ZX+X= 4.) M I.] q u.E y NX3XdX0X9X0X0X0X0X0X0X0X0X0X0XwXwXwXwXwXwX",
"0X0X0X0X0X0X0X0X0X0X0X0X0X0X0X0X0XfX9XfX8X0XVXE + 7.+.> U 2.k.k.u.g.2.H @ 6.( q b.<.; d.7.2 2.AXo.2 G.v ~ n.m v ( 0 D VX2XdXfXaXwX0X0X0X0X0X0X0X0X0XwXwXwXwXwXwX",
"0X0X0X0X0X0X0X0X0X0X0X0X0X0X0X0X9X0XaX8XfX0X0XtXE . a  .U x i b b b x W @ $.( k s.<.e X.Q : V.K.+ 2.( k y.~ e ! 7.# 8.VX3X2XwX0XwX0X0X0X0X0X0X0X0X0XwXwXwXwXwXwX",
"0X0X0X0X0X0X0X0X0X0X0X0X0X0X0X0XpX9X0XdXwXtX0XfXcX`.F # ; y # < * = = % X K f.T <.v j E f.: ; s 6.G * y.N.1.: h.8.$ '.tXgX0XaX0XwX0X0X0X0X0X0X0X0X0XwXwXwXwXwXwX",
"0X0X0X0X0X0X0X0X0X0X0X0X0X0X0X0X0XpXdX7XwXfX7XtXcXtXvX=XK.8.| | q.{ w.>XK 6 _ n n.~ t d.f.* s +.G e y.M.b.1 T G.R + A.@X8X0X0XaX0X0X0X0X0X0X0X0X0X0XwXwXwXwXwXwX",
"0X0X0X0X0X0X0X0X0X0X0X0X0X0X0X0X0X9X9XaXfX9XvXwXwXwXtXcXcXBXCXBXBXtX:XzXZ { f.v M.1.q k.k.: s ^ / ,.b.I.t x 4.4.@ A.gX0XvXwX9X0X0X0X0X0X0X0X0X0X0X0XwXwXwXwXwXwX",
"0X0X0X0X0X0X0X0X0X0X0X0X0X0X0X0X0X9XfX9X9XaXwXwXwXwXwXwXwXwX8X8X8XfXtX@X, R f.v b.~ e ^ 6.* ^ 6.H.' y.w t O.U 0 A vXrXfXqXaX0XpX0X0X0X0X0X0X0X0X0X0XwXwXwXwXwXwX",
"0X0X0X0X0X0X0X0X0X0X0X0X0X0X0X0X0X0X0X0X0X0XpXaXwXwXwXwXwXwXwXwX0XtX8XmX#.d V.c ] m j H ..* R o. .G ; v n.g.A $ >XqXtXqX0X0XpXpX0X0X0X0X0X0X0X0X0X0XwXwXwXwXwXwX",
"0X0X0X0X0X0X0X0X0X0X0X0X0X0X0X0XwXwX0X0X0X0XpXpX0X0X0X0X0X0X0X0XvX0X3XK.{ $ ^ n y.] t X.W = * s 5 A f.z.,.> % #XtXtXlXtX0X0X0X9X0X0X0X0X0X0X0X0X0X0XwXwXwXwXwXwX",
"0X0X0X0X0X0X0X0X0X0X0X0X0X0X0X0XwXwXwXwX0X0XpXpX0XpX0X0X0X0X0X0X8XrXrX3Xd F 6.e b.>.q k.6.@ ..Z.C.D a p + D @XnXtXtXtXwX0X0X0X0X0X0X0X0X0X0X0X0X0X0XwXwXwXwXwXwX",
"0X0X0X0X0X0X0X0X0X0X0X0X0X0X0X0XwXwXwX0X0X0X0X0XpXpXpXpXpXpXpXpXdX2XdXVXA.a k.q V >.w d.X.@ * > # # , { oXvXcXtXwXwX0X0X0X0XwXwX0X0X0X0X0X0X0X0X0X0XwXwXwXwXwXwX",
"0X0X0X0X0X0X0X0X0X0X0X0X0X0X0X0XwXwX0X0X0X0X0X0X0X0X0X0X0X0X0X0X0XpX2XbXA.3 Z.w a.<.q X. .@ K 8.V.oXlXvXbX2X8XwXkXwX0X5X5X0XwXtXwX0X0X0X0X0X0X0X0X0XwXwXwXwXwXwX",
"0X0X0X0X0X0X0X0X0X0X0X0X0X0X0X0XwX0X0X0X0X0X0X0X0X0X0X0X0X0X0X0X0X0X2XbXA.3 +.e c.e.1 Z.8.@ +XZXNXzXlXqX0XdXwXcXkXwX5X5X0X0XwXtXwX0X0X0X0X0X0X0X0X0XwXwXwXwXwXwX",
"0X0X0X0X0X0X0X0X0X0X0X0X0X0X0X0X0X0X0X0X0X0X0X0X0X0X0XwXwXwXwXwXfX9X0XvX'.p X.: a.<.> B.8.. `.VXtX8X8XtX0X0XeX0X0X0X6X5X0XwXtXtXwX0X0X0X0X0X0X0X0X0XwXwXwXwXwXwX",
"0X0X0X0X0X0X0X0X0X0X0X0X0X0X0X0X0X0X0X0X0X0X0X0X0X0XwXtXwXwXwXwXeXfX0XmXoX3 B.c e.y.> 3.W + `.bX8XfXwXdX9XaXcX0XpXpX5X5XwXwXwXwXwX0X0X0X0X0X0X0X0X0XwXwXwXwXwXwX",
"0X0X0X0X0X0X0X0X0X0X0X0X0X0X0X0X0X0X0X0X0X0X0X0X0X0X0X0X0X0XwX0X0X0XfXcX@X3 z.k <.u.: S 2.@ (.tXwXwXwX0X0X0XwX0X0X0X0X0X0XwXwXwX0X0X0X0X0X0X0X0X0X0XwXwXwXwXwXwX",
"0X0X0X0X0X0X0X0X0X0X0X0X0X0X0X0X0X0X0X0X0X0X0X0X0X0X0X0X0X0X0X0XdX0X9XcX(.# z.l ,.G.@ ..f.+ | wXwXwXwX0X0X0XwX0X0X0X0X0X0X0X0X0X0X0X0X0X0X0X0X0X0X0XwXwXwXwXwXwX",
"0X0X0X0X0X0X0X0X0X0X0X0X0X0X0X0X0X0X0X0X0X0X0X0X0X0X0X0X0X0X0X0X8XfX9XwX#X< u.M ( d.: B.f.+ K.mX0X0XwX0X0X0XwX0X0X0X0X0X0X0X0X0X0X0X0X0X0X0X0X0X0X0XwXwXwXwXwXwX",
"0X0X0X0X0X0X0X0X0X0X0X0X0X0X0X0X0X0X0X0X0X0X0X0X0X0X0X0X0X0X0X0XdX8XaXwXxXa 5.m j ' : X.B.. K.mX0X0X0X0X0X0XwXwX0X0X0X0X0X0X0X0X0X0X0X0X0X0X0X0X0X0XwXwXwXwXwXwX",
"0X0X0X0X0X0X0X0X0X0X0X0X0X0XrXrX0X0X0X0X0X0X0X0X0X0X0X0X0X0X0X0XdX0X0XwXkXd ,.B j 4.2 H 6.@ J.mX0X0X0X0X0XwXwX0X0X0X0X0X0X0X0X0X0X0X0X0X0X0X0X0X0X0XwXwXwXwXwXwX",
"0X0X0X0X0X0X0X0X0X0X0X0X0X0XrXrX0X0X0X0X0X0X0X0X0X0X0X0X0X0X0X0X8XdX9XeXlXa 5.~ n Y.1 S 3.# J.vX0X0X0X0X0X0XwX0X0X0X0X0X0X0X0X0X0X0X0X0X0X0X0X0X0X0XwXwXwXwXwXwX",
"0X0X0X0X0X0X0X0X0X0X0X0X0X0X0X0X0X0X0X0X0X0X0X0X0X0X0X0X0X0X0X0XgX9XaXeXzXA 5.) m Y.2 E C.. V.mXwX0X0X0X0X0X0X0X0X0X0X0X0X0X0X0X0X0X0X0X0X0X0X0X0X0XwXwXwXwXwXwX",
"0X0X0X0X0X0X0X0X0X0X0X0X0X0X0X0X0X0X0X0X0X0X0X0X0X0X0X0X0X0X0X0X0X9XaXeXVXD z ,.k j.x H 4.. 8.mXwX0X0X0X0X0X0X0X0X0X0X0X0X0X0X0X0X0X0X0X0X0X0X0X0X0XwXwXwXwXwXwX",
"0X0X0X0X0X0X0X0X0X0X0X0X0X0X0X0X0X0X0X0X0X0X0X0X0X0X0X0X0X0X0X0XtX0X9X9XBXW b 5.v H.G x C.: o.CX9X0XwX0X0X0X0X0X0X0X0X0X0X0X0X0X0X0X0X0X0X0X0X0X0X0XwXwXwXwXwXwX",
"0X0X0X0X0X0X0X0X0X0X0X0X0X0X0X0X0X0X0X0X0X0X0X0X0X0X0X0X0X0X0X0XtX9XfXeXmXo.Y u.v Y.H s z.> R CXwX0XwX0X0X0X0X0X0X0X0X0X0X0X0X0X0X0X0X0X0X0X0X0X0X0XwXwXwXwXwXwX",
"0X0X0X0X0X0X0X0X0X0X0X0X0X0X0X0X0X0X0X0X0X0X0X0X0X0X0X0X0X0X0X0XtX9XaX9XmX+.z h.v H.G 1 O.; F nXwX0X0X0X0X0X0X0X0X0X0X0X0X0X0X0X0X0X0X0X0X0X0X0X0X0XwXwXwXwXwXwX",
"0X0X0X0X0X0X0X0X0X0X0X0X0X0X0X0X0X0X0X0X0X0X0X0X0X0X0X0X0X0X0X0XtXwX9X8XCXq.> h.n ' G : g.: f ZXwX0X0X0X0X0X0X0X0X0X0X0X0X0X0X0X0X0X0X0X0X0X0X0X0X0XwXwXwXwXwXwX",
"0X0X0X0X0X0X0X0X0X0X0X0X0X0XrXrX0X0X0X0X0X0X0X0X0X0X0X0X0X0X0X0XwXwXaX9XmXK.r j.T g.d.: C.G u kXwX0X0X0X0X0X0X0X0X0X0X0X0X0X0X0X0X0X0X0X0X0X0X0X0X0XwXwXwXwXwXwX",
"0X0X0X0X0X0X0X0X0X0X0X0X0X0XrXrX0X0X0X0X0X0X0X0X0X0X0X0X0X0X0X0X0XaXaX8XvXXXt G.T 4.B.: u.G $ lXtX0X0X0XwX0X0X0X0X0X0X0X0X0X0X0X0X0X0X0X0X0X0X0X0X0XwXwXwXwXwXwX",
"0X0X0X0X0X0X0X0X0X0X0X0X0X0X0X0X0X0X0X0X0X0X0X0X0X0X0X0X0X0X0X0XwXwX9X9XgXOXr 4.) h.K.@ O.G 4 lXtX0X0X0XwX0X0X0X0X0X0X0X0X0X0X0X0X0X0X0X0X0X0X0X0X0XwXwXwXwXwXwX",
"0X0X0X0X0X0X0X0X0X0X0X0X0X0X0X0X0X0X0X0X0X0X0X0X0X0X0X0X0X0X0XwXfX9XaXfXrX4Xb Y v 5.X.@ ( ` @ >XtX9X9X0XaX0X0X0X0X0X0X0X0X0X0X0X0X0X0X0X0X0X0X0X0X0XwXwXwXwXwXwX",
"0X0X0X0X0X0X0X0X0X0X0X0X0X0X0X0XpXpX0XrXrXrXtXwX0XtXrXrXrXtX0X0XsXaXwXwXtXyXD 4.) ! G.i F o.. qXcX9XpXpXpXpX8XwX0X0XwXwXwXtXrXrX0X0X0X0X0X0X0X0X0X0X0X0X0X0X0X0X",
"0X0X0X0X0X0X0X0X0X0X0X0X0X0X0X0XpXpX0XrXrXrXwXwX0XtXtXtXrX8X9XaX9X9XeXwXtXVXX.` u.T H.b A W $ kXwX1X9X9XpXaX0XtX0X0X0X0XwX0XrXrX0X0X0X0X0X0X0X0X0X0X0X0X0X0X0X0X",
"0X0X0X0X0X0X0X0X0X0X0X0X0X0X0X0X0X0X0X0X0X0XpXpXaX9X0XtXdXsXiXiXtX0X0XfX1XgX9.! g.c ! G s o.# qXtX0XwXaX9XwXtXwXwX0XsXsXpXpX0X0XwX0X0X0X0X0X0X0X0X0X0X0X0X0X0X0X",
"0X0X0X0X0X0X0X0X0X0X0X0X0X0X0X0XwX0X0XpXpXpXpXpXsXaXaX9X9X9XiXiXdXrX0X9X1XgXL.T z.J ' [ -  ., qXuX8XwXaX9XwXtXtXtXwXwXpXpXpXpX0X0X0X0X0X0X0X0X0X0X0X0X0X0X0X0X0X",
"0X0X0X0X0X0X0X0X0X0X0X0X0X0X0X0XwXwX0XpXpXpXpXsX9X9XsXaXaXaXdXpX3X1X9XeXvXCX=X2.G.T ! I.: 4 } AXZXNXmXcXaX0XwXqXyXyXrXrX0XpXpXpX0X0X0X0X0X0X0X0X0X0X0X0X0X0X0X0X",
"0X0X0X0X0X0X0X0X0X0X0X0X0X0X0X0XrX0X0X0X0X0X0X0XfX9XpXsX9X8XrXrXgXVXVXqX+XK.8.S @.@.n C.O   9 %.$.k.].-XuXyXyXtXyXyXrXrXrX0XpXpX0X0X0X0X0X0X0X0X0X0X0X0X0X0X0X0X",
"0X0X0X0X0X0X0X0X0X0X0X0X0X0X0X0XrXrXrXrXrXrXrXrX0X9XaXaX9XfXyXyX'.f.L 7 7 7 P P O O o O O *.-.;.P P 8 8 P *.].hXrXrXrXrXrXrX0X0X0X0X0X0X0X0X0X0X0X0X0X0X0X0X0X0X",
"0X0X0X0X0X0X0X0X0X0X0X0X0X0X0X0X0XrXrXrXrXrXrXrXdXpXpXpXtXuX].%.P I *.-.=.R.[.[.D.*.*.=.-.-.[.R.=.R.W.[.R.D.].4XrX0X0XrXrXrX0X0X0X0X0X0X0X0X0X0X0X0X0X0X0X0X0X0X",
"0X0X0X0X0X0X0X0X0X0X0X0X0X0X0X0X0X0XwX0X0XpXpXpXaXiXaX0XhX*XF.R..X^..X!.=.W.:.!././.Q./.!.:.Q.Q.Q.Q.{.W.R.|.%XuXpXiXpXpXwXtXtX0X0X0X0X0X0X0X0X0X0X0X0X0X0X0X0X0X",
"0X0X0X0X0X0X0X0X0X0X0X0X0X0X0X0X0X0XpXsXpXpXpXpXsXiXaXrXhX<X}. XT.~.^.W.{..X!.!.Q.E.E./.Q.Q.Q.Q.W.W.W.R.D.$X4XrXpXiXpX9XwXwXwXwX0X0X0X0X0X0X0X0X0X0X0X0X0X0X0X0X",
"0X0X0X0X0X0X0X0X0X0X0X0X0X0X0X0X0X0XwXwX0X0X0X0X0X0XtX0XtXyX;X;X%X,X,X%X*X}.}.|.~.~.~.^.^.^.E.^.R.R.|.$X;XyXrX0XpXpX0X0XwXwXwXwX0X0X0X0X0X0X0X0X0X0X0X0X0X0X0X0X",
"0X0X0X0X0X0X0X0X0X0X0X0X0X0X0X0X0X0XwX0X0X0XrXrX0XtXtXtX0XwXdX0XgXrXyXyX4X4XhXhX,X,X,X&X&X X|.&X,X,X;X4X4XdX0X0XrXrXrX0XwXwXwXwX0X0X0X0X0X0X0X0X0X0X0X0X0X0X0X0X",
"0X0X0X0X0X0X0X0X0X0X0X0X0X0X0X0X0X0X0X0X0X0XwX0X0XtXtXtX9X9XsX9X0X0XtXtX0XfX8XrXyXyXyXyXyXjX4XjX4X4XgX2X2XrXrXyXrXrXrX0XpX0X0X0X0X0X0X0X0X0X0X0X0X0X0X0X0X0X0X0X",
"0X0X0X0X0X0X0X0X0X0X0X0X0X0X0X0X0X0X0X0X0X0X0X0X0XtXrXrX0XsXsX9X9XfX9XeXaX0X9XaX9X8X9XwXwX0XwX8XrX8X0XpXpX0X4XyXrXrX0X0XpXpX0X0X0X0X0X0X0X0X0X0X0X0X0X0X0X0X0X0X",
"0X0X0X0X0X0X0X0X0X0X0X0X0X0X0X0X0X0XrXrXrX0XpXpXpXpX0X0XrXtX0XwXrXrX0X0XpX9XaX0XdXdXfXtXwXwX0XaXwXaX0XwXfXtXtXtXtXwX0XpXpXpX0X0X0X0X0X0X0X0X0X0X0X0X0X0X0X0X0X0X",
"0X0X0X0X0X0X0X0X0X0X0X0X0X0X0X0X0X0XrXrXrX0XpXiXiX9XwXrXrXtX0XrXrXrX0XpX0XpX9XaX9X0XtX0XtXfXeXaX0XwXwXwXwXwXwXwXwX0XpXpXpXpX0X0X0X0X0X0X0X0X0X0X0X0X0X0X0X0X0X0X"
};
