/* XPM */
static char *e7e0c91c28374d67d7a118d27156921dpi0fGzd44O2Zq9mi[] = {
/* columns rows colors chars-per-pixel */
"80 80 232 2 ",
"   c #030201",
".  c #141413",
"X  c #302D25",
"o  c #3D4834",
"O  c #4A4837",
"+  c #49543D",
"@  c #4B613A",
"#  c #4C5845",
"$  c #575849",
"%  c #585A55",
"&  c #4B4943",
"*  c #685B5A",
"=  c #566449",
"-  c #5C6955",
";  c #5C6657",
":  c #5E7357",
">  c #636B54",
",  c #646859",
"<  c #637955",
"1  c #65745A",
"2  c #69755D",
"3  c #6B7C5D",
"4  c #647654",
"5  c #677054",
"6  c #675D62",
"7  c #5E6261",
"8  c #646363",
"9  c #696A64",
"0  c #6C6C6B",
"q  c #686666",
"w  c #756A68",
"e  c #6B7463",
"r  c #6E7D63",
"t  c #687768",
"y  c #75746E",
"u  c #727C6A",
"i  c #787A69",
"p  c #7A7B74",
"a  c #797878",
"s  c #706E71",
"d  c #857A77",
"f  c #6C845B",
"g  c #6E8263",
"h  c #6F816B",
"j  c #728464",
"k  c #7B846B",
"l  c #76896A",
"z  c #7C8474",
"x  c #7E8A7B",
"c  c #7A8675",
"v  c #7D9571",
"b  c #78906C",
"n  c #86887A",
"m  c #91887E",
"M  c #84917A",
"N  c #8A9C7E",
"B  c #889878",
"V  c #85836C",
"C  c #8DA57E",
"Z  c #927D85",
"A  c #858484",
"S  c #8B8C85",
"D  c #8D8B8C",
"F  c #878787",
"G  c #998887",
"H  c #8D9A84",
"J  c #8B9686",
"K  c #949C86",
"L  c #92978B",
"P  c #949493",
"I  c #9C9D9B",
"U  c #989C95",
"Y  c #968D90",
"T  c #A58C92",
"R  c #AB9797",
"E  c #93A384",
"W  c #9AA98B",
"Q  c #9BB48A",
"!  c #9BA493",
"~  c #9CA697",
"^  c #9EB390",
"/  c #8FA581",
"(  c #A4BA8F",
")  c #A2A79A",
"_  c #A1B395",
"`  c #AABA9B",
"'  c #A6B896",
"]  c #AFAA97",
"[  c #BB9DAA",
"{  c #A3A4A3",
"}  c #A5ABA4",
"|  c #ABADA4",
" . c #A7A6A9",
".. c #ACACAC",
"X. c #AAA7A8",
"o. c #B8A9A7",
"O. c #AAB3A5",
"+. c #AEB4A9",
"@. c #ABBAA5",
"#. c #B1B3AE",
"$. c #B5B8A9",
"%. c #AEADB2",
"&. c #B4B5B4",
"*. c #B8B7B5",
"=. c #B5BAB4",
"-. c #BABCB5",
";. c #B6B6B9",
":. c #B9B6BB",
">. c #B6B9B9",
",. c #BBBBBB",
"<. c #AEB2B1",
"1. c #C69EB1",
"2. c #C1A8A9",
"3. c #C3B4AE",
"4. c #CAA9B5",
"5. c #C7B8B9",
"6. c #D2B4BA",
"7. c #ACC69B",
"8. c #B4C3A9",
"9. c #B8C9A7",
"0. c #BAD5A6",
"q. c #BCC2BB",
"w. c #B9C3B4",
"e. c #BED1B1",
"r. c #C2D4AF",
"t. c #C1C3BD",
"y. c #C3CABD",
"u. c #C7CABB",
"i. c #C2D5B3",
"p. c #C4DCB4",
"a. c #C7D8BB",
"s. c #D4C3BB",
"d. c #C6EBAE",
"f. c #CAECAF",
"g. c #C4E7AC",
"h. c #C7F3AD",
"j. c #C5E4B1",
"k. c #CAE6B5",
"l. c #C6EBB3",
"z. c #CDEEB7",
"x. c #CCE4BB",
"c. c #CDEEB9",
"v. c #C7E7B9",
"b. c #D0EDB6",
"n. c #D2E5BE",
"m. c #D1EDBB",
"M. c #CCF1B5",
"N. c #CEF1BA",
"B. c #C7F6B0",
"V. c #D1F2B6",
"C. c #D2F2BC",
"Z. c #D8F5BD",
"A. c #D0F0AF",
"S. c #BEBDC1",
"D. c #C1BFC2",
"F. c #CDBDC1",
"G. c #D3BDC3",
"H. c #DAB6C3",
"J. c #E8B9CC",
"K. c #BFC1C2",
"L. c #C4C3C3",
"P. c #C4CBC2",
"I. c #C9CAC5",
"U. c #CBCBCB",
"Y. c #C8C7C7",
"T. c #D5C8CB",
"R. c #CED7C5",
"E. c #D4D6CB",
"W. c #CDCDD1",
"Q. c #CFD5D2",
"!. c #D5D4D4",
"~. c #DDDCDC",
"^. c #D8D7D7",
"/. c #DBCAD2",
"(. c #E8C8CE",
"). c #ECC9D4",
"_. c #FCCBDB",
"`. c #F7C9D7",
"'. c #E5D6DB",
"]. c #F8D5DE",
"[. c #CCE3C1",
"{. c #D5E5C4",
"}. c #D3EDC2",
"|. c #DAEDC3",
" X c #DBEBC9",
".X c #D5F2C2",
"XX c #D9F4C4",
"oX c #D7F0C8",
"OX c #DCF4CB",
"+X c #DDFACA",
"@X c #D8F9C5",
"#X c #DFE2DC",
"$X c #DDEBD5",
"%X c #DDF7D0",
"&X c #E0F5CC",
"*X c #E2FBCD",
"=X c #E0F8C4",
"-X c #E1E2DD",
";X c #E3EBDA",
":X c #E2F4D3",
">X c #E3FBD2",
",X c #EBFDD8",
"<X c #E0EAC7",
"1X c #DDDEE2",
"2X c #E3DEE2",
"3X c #E9DFE4",
"4X c #FBDDE3",
"5X c #FDD7E1",
"6X c #DEE2E2",
"7X c #DFE4E8",
"8X c #E4E4E4",
"9X c #E9E4E5",
"0X c #E6E9E5",
"qX c #EAE9E6",
"wX c #E6E5E9",
"eX c #EAE6EA",
"rX c #E6E9EA",
"tX c #EBEBEB",
"yX c #F1ECED",
"uX c #FAE3E7",
"iX c #ECF1EA",
"pX c #E8F5E5",
"aX c #F2F2EE",
"sX c #F1F9E8",
"dX c #EDECF0",
"fX c #F2EEF0",
"gX c #FFE0F0",
"hX c #F3F2F2",
"jX c #F3FCF4",
"kX c #F9FEF4",
"lX c #F9F9F6",
"zX c #EDF2F5",
/* pixels */
"z.z.z.z.z.z.z.z.z.z.z.z.z.z.z.z.z.z.z.z.z.z.z.z.z.z.z.z.z.z.z.z.M.M.c.c.c.c.c.N.c.c.m.m.m.z.M.M.c.c.c.c.c.z.z.z.z.z.z.z.z.z.z.z.z.z.z.z.z.z.z.z.z.z.z.z.z.z.z.c.",
"z.z.z.z.z.z.z.z.z.z.z.z.z.z.z.z.z.z.z.z.z.z.z.z.z.z.z.z.z.z.z.z.M.M.z.b.m.c.c.N.c.c.m.m.c.z.M.z.c.c.c.c.z.z.z.z.z.z.z.z.z.z.z.z.b.b.z.z.z.z.z.z.z.z.z.z.z.b.z.c.",
"z.z.z.z.z.z.z.z.z.z.z.z.z.z.z.z.z.z.z.z.z.z.z.z.z.z.z.z.z.z.z.z.M.M.z.b.m.m.c.c.M.M.z.b.z.z.z.c.c.c.c.z.z.z.z.z.z.z.z.z.z.z.c.z.b.b.b.b.z.z.z.z.z.z.z.z.b.b.b.b.",
"z.z.z.z.z.z.z.z.z.z.z.z.z.z.z.z.z.z.z.z.z.z.z.z.z.z.z.z.z.z.z.z.z.z.b.b.b.b.z.M.M.M.z.b.z.z.z.z.c.c.z.z.z.z.z.z.z.z.c.c.c.c.c.c.b.b.b.b.z.z.z.z.z.z.z.z.b.b.b.b.",
"z.z.z.z.z.z.z.z.z.z.z.z.z.z.b.b.z.z.z.z.z.z.z.z.z.z.z.z.z.z.z.z.c.c.b.z.z.z.M.M.M.z.z.b.b.z.z.z.z.z.z.z.z.z.c.c.c.c.c.c.c.c.c.c.z.z.z.b.z.z.z.z.z.z.z.z.z.z.b.b.",
"z.z.z.z.z.z.z.z.z.z.z.z.z.z.b.b.z.z.z.z.z.z.z.z.z.z.z.z.z.z.z.c.c.m.b.z.z.M.M.M.M.z.b.m.b.z.z.z.z.z.z.z.z.z.c.c.c.c.c.c.c.c.c.c.c.z.z.z.z.z.z.z.z.z.z.z.z.z.z.z.",
"z.z.z.z.z.z.z.z.z.z.z.z.z.z.z.z.z.z.z.z.z.z.z.z.z.z.z.z.z.z.z.c.m.m.z.z.M.h.M.M.z.z.m.m.m.z.M.M.M.z.z.z.z.z.c.c.c.c.c.c.c.z.c.c.c.c.c.c.z.z.z.z.z.z.z.z.z.z.z.z.",
"z.z.z.z.z.z.z.z.z.z.z.z.z.z.z.z.z.z.z.z.z.z.z.z.z.z.z.z.z.z.z.c.m.m.z.z.M.M.M.z.z.m.m.m.c.z.M.M.M.z.z.z.z.z.c.c.c.z.c.z.z.z.z.z.c.c.c.c.z.z.z.z.z.z.z.z.z.z.z.z.",
"z.z.z.z.z.z.z.z.z.z.z.z.z.z.z.z.z.z.z.z.z.z.z.z.z.z.z.z.z.z.z.z.c.z.z.c.m..X+Xm.b.m.c.z.z.N.l.M.z.z.z.z.z.z.z.z.N.M.z.l.z.V.z.z.z.C.j.C.c.N.z.z.z.z.z.z.z.z.b.b.",
"z.z.z.z.z.z.z.z.z.z.z.z.z.z.z.z.z.z.z.z.z.z.z.z.z.z.z.z.z.z.z.z.l.M.C.k.}.' W |.|.m.z.C.z.M..Xz.c.z.z.z.z.z.z.z.z.M.z.V.l.b.l.V.l.C.z.m.c.z.c.V.z.z.z.z.z.b.b.b.",
"z.z.z.z.z.z.z.z.z.z.z.z.z.z.z.z.z.z.z.z.z.z.z.z.z.z.z.z.z.z.z.M.h.h.z.&XK $ m m <Xm.l.M.M.c.k..Xc.c.c.z.z.z.z.M.z.f.V.z.V.m.z.Z.*Xc.m.c.c.c.z.z.z.z.z.z.z.z.b.b.",
"z.z.z.z.z.z.z.z.z.z.z.z.z.z.z.z.z.z.z.z.z.z.z.z.z.z.z.z.z.z.z.M.h.B.c. Xd 3.uX5.V |.C.d.l.N.m.m.c.c.c.z.z.z.M.M.z.V.V.z.m.k.*XQ < 0.C.c.c.z.V.z.z.z.z.z.z.z.b.b.",
"z.z.z.z.z.z.z.z.z.z.z.z.z.z.b.b.z.z.z.z.z.z.z.z.z.z.z.z.z.z.z.M.B.h.c.:Xi G.).4Xo.5 n..Xz.C.m.x.c.c.c.z.z.z.z.z.z.z.m.x.}.OXf @ f 0.m.C.z.N.z.N.z.z.z.z.z.z.z.b.",
"z.z.z.z.z.z.z.z.z.z.z.z.z.z.b.b.z.z.z.z.z.z.z.z.z.z.z.z.z.z.z.M.h.d.k.:Xi G.5X(.4Xo.> r.OXj.b.m.c.c.c.z.z.z.z.z.z..Xk.|.OX= j ^ C +Xz.z.c.c.z.z.z.z.z.z.z.z.z.b.",
"z.z.z.z.z.z.z.z.z.z.z.z.z.z.z.z.z.z.z.z.z.z.z.z.z.z.z.z.z.z.z.z.V.z.m.&Xi 2.5X_.`.].5.> 9..Xz.f.z.c.c.z.z.z.z.z.j.m.oX[.: H @.1 k.m.c.m.c.c.z..Xz.z.z.z.z.z.z.z.",
"z.z.z.z.z.z.z.z.z.z.z.z.z.z.z.z.z.z.z.z.z.z.z.z.c.c.c.c.c.c.c.z.z.m.x.OXV o.5X_.`.`.].3.= n.z.M.c.c.c.z.z.z.b.m.m.oXi.> z z # i.oXc.c.c.c.c.z.c.z.z.z.z.z.z.z.z.",
"z.z.z.z.z.z.z.z.z.z.z.z.z.z.z.z.z.z.z.z.c.c.c.c.c.c.c.c.c.c.c.c.V.z.c.>XV R 5X_.`._.).].d K *Xl.N.v.N.M.M.z.m.|.>X^ , y * * B >Xx.z.z.z.z.z.z.z.z.z.z.z.z.z.z.z.",
"z.z.z.z.z.z.z.z.z.z.z.z.z.z.z.z.z.z.z.z.z.c.c.c.c.c.c.c.c.c.c.z.z.V.z.OXn G )._._.`.`.].4.$ {..Xv.@Xl.N.M.z.|.a.2 z y * F.w 9.C.z.z.z.z.z.z.z.z.z.z.z.z.z.z.z.z.",
"z.z.z.z.z.z.z.z.z.z.z.z.z.z.z.z.z.z.z.z.z.z.z.z.z.z.z.z.z.z.z.z.l.V.z.OXK m H.`._._._.`.T.O _ OXv.c.N.c.z.oX` $ -.d w T.*.> >Xz.z.z.z.z.z.z.z.z.z.z.z.z.z.z.z.z.",
"z.z.z.z.z.z.z.z.z.z.z.z.z.z.z.z.z.z.z.z.z.z.z.z.z.z.z.z.z.z.M.z.V.x.v.OX) n 4.H._._.`.`.6.$ 2 >Xz.b.V.j.%X_ = ;XR w G.uXp E |.m.z.z.z.z.z.z.z.z.z.z.z.z.z.z.z.z.",
"z.z.z.z.z.z.z.z.z.z.z.z.z.z.z.z.z.z.z.z.z.z.z.z.z.z.z.z.z.z.z.z.m.x.x.OX@.i 5.1.J._._.`.6.* > }.b.z.j.OX@.; E.I.* H.).'.+ p..Xb.z.z.z.z.z.z.z.z.z.z.z.z.z.z.z.z.",
"z.z.z.z.z.z.z.z.z.z.z.z.z.z.z.z.b.b.z.z.z.z.z.z.z.z.z.z.z.z.z.z.x.m.c.}.a.e 5.[ 1.J._.`.2.w u 9.Z.b..Xi.; q.aXd T H.gXT 4 *Xk.b.z.z.z.z.z.z.z.z.z.z.z.z.z.z.z.z.",
"z.z.z.z.z.z.z.z.z.z.z.z.z.z.z.z.z.b.b.b.z.z.z.z.z.c.c.c.c.c.c.c.c.m.z.z.|.k ) 5.1.4.J.(.R w S W +Xz.|.r ~ !.!.6 6.].).$ 9.@Xf.b.z.z.z.z.z.z.z.z.z.z.z.z.z.z.z.z.",
"z.z.z.z.z.z.z.z.z.z.z.z.z.z.z.z.z.z.b.z.z.z.z.z.c.c.c.c.c.c.c.c.m.z.z.z.+XC n F.4.1.4.6.T w +.k XX.XE x K.wXX.Z (.uXd i >Xl.z.b.z.z.z.z.z.z.z.z.z.z.z.z.z.z.z.z.",
"z.z.z.z.z.z.z.z.z.z.z.z.z.z.z.z.c.z.V.z.z.C.z.z.M.z.c.N.c.c.c.c.V.f.M.d.N.m.= -.o.[ 4.4.G p L.z oXp.; ,.:.yXG o.4Xo.O {.x.C.z.z.z.z.z.z.z.z.z.z.z.z.z.z.z.z.z.z.",
"z.z.z.z.z.z.z.z.z.z.z.z.z.z.z.z.N.z.N.z.z.z.l.M.M.M.N.z.z.z.c.N.z.z.M.f.M..X_ , I.Z [ 5.d y ~.x [.C S ,.D.'.T (.6.X r.OXx.c.z.z.z.z.z.z.z.z.z.z.z.z.z.z.z.z.z.z.",
"z.z.z.z.z.z.z.z.z.z.z.z.z.z.z.z.c.c.N.z.z.M.z.M.z.z.z.z.M.M.M.M.V.f.V.Z.d.N.>X1 n o.d 5.w D 8X{ 8.h ..:.!.9X3.s.O $.*Xz..Xj.C.z.z.z.z.z.z.z.z.z.z.z.z.z.z.z.z.z.",
"z.z.z.z.z.z.z.z.z.z.z.z.z.z.z.z.z.N.c.z.N.C.M.z.z.V.V.z.f.f.f.V.z.l.l.z.M.g.C.{.$ 5.A Y q ..tXL.w.J ,.%.!.E.5.$ _ &Xv.c.c..Xz.M.z.z.z.z.z.z.z.z.z.z.z.z.z.z.z.z.",
"z.z.z.z.z.z.z.z.z.z.z.z.z.z.z.z.c.N.c.z.z.z.z.z.z.z.l.z.C.XX.Xm.x.}.}.k.z.Z.g.+XM z U.a 0 W.tX8XJ 9 ..L.^.^.e k *Xx.C.z.x.c.z.M.z.z.z.z.z.z.z.z.z.z.z.z.z.z.z.z.",
"z.z.z.z.z.z.z.z.z.z.z.z.z.z.z.z.N.z.z.V.z.j.m.C.m..XOX}.i.9.a.[.}.OX:XOXk.z.z.XX8.9 U.I U qXeXtXY.z % 9 !.u.O {.x.l.l.z..Xm.z.z.z.z.z.z.z.z.z.z.z.z.z.z.z.z.z.z.",
"z.z.z.z.z.z.z.z.z.z.z.z.z.z.z.z.z.l.z.C.z.z..Xm.oX` v g h c c t : g M 8.OXXXf.z.{.z =.<.Q.~.^.9XyXaX-XU q y H oXz.V.m.m.m.l.M.M.z.z.z.z.z.z.z.z.z.z.z.z.z.z.z.z.",
"z.z.z.z.z.z.z.z.z.z.z.z.z.z.z.z.z.z.z.c.k.}.oXe.r M w.pXjXjXjXiX$Xa.~ e 3 9.+XoX$X$.{ U.~.F 9X9X8X8X8XaX~.% @.OXz.f.z.C.j.V.M.z.z.z.z.z.z.z.z.z.z.z.z.z.z.z.z.z.",
"z.z.z.z.z.z.z.z.N.c.z.z.z.z.z.z.V.g.V.m.x.:XK e E.jXkXtX0X0X8X0XtXiXlXaX+.- > 8.;XO.P tXF ..hX9X9X8XwX~.fX-X2 n.C.g.N.z.m.z.z.M.z.z.z.z.z.z.z.z.z.z.z.z.z.z.b.b.",
"z.z.z.z.z.z.z.z.c.z.z.z.z.z.z.z.d.Z.j.}.:Xz J kXhXtX-X-XqX8X-XqX8X~.-XtX0X&.0 O ; 8 ,.^.U tX0X#X9X8X8XdX2XhX+.B XXN.M.z.C.z.l.z.z.z.z.z.z.z.z.z.z.z.z.z.z.z.b.b.",
"z.z.z.z.z.z.z.z.z.z.z.c.c.c.z.z.z.m.x.>X1 ! kXiX8XwXwX9X0X8X8X0XwXtXwX~.-XtXiX0X#.-.Q.0X~.qX8XwX~.0X6XwXeXqX;Xl p..Xl.z.m.z.z.z.z.z.z.z.z.z.z.z.z.z.z.z.z.z.z.z.",
"z.z.z.z.z.z.z.z.z.z.z.c.c.z.z.z.c.m.OX3 ^ kX-X0X8XwX9X8X8XwX0X8XwXwXwXqX8X-X-X^.&.#.#X-XqX-XwXhXaXwXrX1X8XwXsXW Q @Xz.z.z.m.N.z.z.z.z.z.z.z.z.z.z.z.z.z.z.z.z.z.",
"z.z.z.z.z.z.z.z.z.z.z.z.z.z.z.z.k.>XB N kX;X#XwXtXwX8XwX8XwXwX8XwX8XwXwX8X8X8X!.} ) 0XwXwXwXtX0 U tXwXwX8X8XiX8.v +Xc.N.z.c.z.z.z.z.z.z.z.z.z.z.z.z.z.z.z.z.z.z.",
"z.z.z.z.z.z.z.z.z.z.z.z.z.z.z.c.oXe.1 sX;X-XtX8X8X8XeXtXwX8X8X8XwXwXwXwX8X0X0XI.~ I iX8X8XwX~.. . L.rXwXeX~.qXu.b OXz.N.c.z.z.z.z.z.z.z.z.z.z.z.z.z.z.z.z.z.z.z.",
"z.z.z.z.z.z.z.z.z.z.z.z.c.c.c.m.:X2 y.sX-XwX8XwXwX8X8X8X8XqX0X8XwXwX8XwXwX8X8XI.P { hX1XwXwX!.X   D zX1X8XeXqXu.j oXv.c.c.z.c.N.z.z.z.z.z.z.z.z.z.z.z.z.z.z.z.z.",
"z.z.z.z.z.z.z.z.z.z.z.z.c.c.N.}.` z kX#XwX8XwXwXeXwX8XwXwX8X8X0XwXtX8XwXwXwX8XI.P I hXwX8X8XhXA   P zX7XeX2XqXR.3 OXN.c.z.z.N.z.z.z.z.z.z.z.z.z.z.z.z.z.z.z.z.z.",
"c.c.z.z.z.z.z.z.z.c.z.c.C.z.m.OXu y.jX-X8XwXwXwXwXwXwXwXwXwX8X8XwXwX8XwX8XwXwXU.P P hX8X8XtX8XtX&.~.rXwXwXtX'.-Xr v..Xc.N.z.c.c.z.z.z.z.z.z.z.z.z.z.z.z.z.z.z.z.",
"c.c.z.z.z.z.z.z.z.c.c.z.m.z..Xp.u 0X-XwXtXwXwXwX8XwXwXwXwXwX8X8XwXwX8XwX8XwXwXU.{ A aX8XwX8XtX2XfXeX6XwX8X3X3XlXk 9.C.z.M.z.c.c.c.z.z.z.z.z.z.z.z.z.z.z.z.z.z.z.",
"c.c.z.z.z.z.z.z.z.c.m.z.c.c.XX' M hX-XwXwXwX2XwXwXwX8X8XwXwXwX8XwXwX8XwXwXwXwXU...s 8X9XwX8XwX8X8X8XrXrX8XeX3X9X! E OXz.z.z.c.N.c.z.z.z.z.z.z.z.z.z.z.z.z.z.z.z.",
"c.c.z.z.z.z.z.z.z.z.m.z.c.x.+XB ) aXwXwX8XwXwXwXwXwX8X8XwXwXwXwXwXwX8XwXwXwXwX!.D.0 ,.tXwXtX8XwXtX8X6XrXwXeX/.5.u.W +Xz.M.z.c.m.c.z.z.z.z.z.z.z.z.z.z.z.z.z.z.z.",
"c.c.z.z.z.z.z.z.z.z.m.m.c.z.XXf w.yX8XtXwX8XdXwXwX8X8X8X8XwX8X8XwXwX8XwX8XwX9X~.L.D F fX8X8XwX9X2X9X0X0X8X3X'.3XE.` }.z.M.M.z.z.c.z.z.z.z.z.z.z.z.z.z.z.z.z.z.z.",
"c.c.z.z.z.z.z.z.z.l.m.m.c.z..X< R.qX8XwXwXwX!.8X8X8X8X8X8X8X8X8XwXwXwX8X8XwX9XwXY.&.% ~.tX8XwXwX9XeX8X8XeXeX'.'.I.N oXz.M.z.c.c.c.z.z.z.z.z.z.z.z.z.z.z.z.z.z.z.",
"N.N.z.z.z.z.z.z.z.z.m.c.c.c.C.< E.qXqX-XwXwX:.U.8X8X8X8X8X8XwXwXwX8X8X8X8XwXwX9X!.L.F 0 hX~.8X8X9X2X6XrXwX2XT.G.| k +Xz.M.f.m.m.c.z.z.z.z.z.z.z.z.z.z.z.z.z.z.z.",
"c.N.z.z.z.z.z.z.z.c.c.z.x.m.}.4 E.qX8X8XtX~.:.:.8X8X8X8X8XwXwXwX8X8XwX8XwXwX8X8X8X,.Y.0 8 tXhX8X3X9XtX8X8XhXT.G V ' XXM.z.z.m.z.z.z.z.z.z.z.z.z.z.z.z.z.z.z.z.b.",
"z.z.z.z.z.z.z.z.z.V.c.m.m.k.oXb R.^.U.wX8X8X ...U.rXwX8X8XwXwX8X8XrXwXwXwXeX9X-X9X^.:.L.a & ..8XyXyX^.^.6X^.R.W ( k..Xz.z.V.z.z.z.z.z.z.z.z.z.z.z.z.z.z.z.z.b.b.",
"z.z.z.z.z.z.z.z.V.l.m.c.x.m.m.j -XL.{ hX8XwX:.D L.6XwXwX8XtX-XqX8X8XwXeX2X8XwX9X9XqXU.:.Y. .p A a s % 7 t u g 0.C.C.z.z.C.c.l.C.z.z.z.z.z.z.z.z.z.z.z.z.z.z.b.b.",
"z.z.z.z.z.z.z.z.z.z.c.c..X.X( E kXD ..hX-XwXU.a  .!.tX8XtX8X8XqXqX~.eX^.S.W.qX-X8XqXwXL.&.,.t.,.X...L.+.~ {.>X.Xz.z.l.z.C.c.z.z.z.z.z.z.z.z.z.z.z.z.z.z.z.z.z.z.",
"z.z.z.z.z.z.z.z.z.z.V.c.x..X7.3 sX0 !.8XqXtX~.P a Y.8XwXqX-XqX8XqX&.8XK.&.:.!.qX-XtX8XwX!.;.>.:.L.#.q.S 8.>Xp.m.l.m.V.z.z.c.N.z.z.z.z.z.z.z.z.z.z.z.z.z.z.z.z.z.",
"z.z.z.z.z.z.z.z.z.c.m.z.m.z.XXl | p qX-X8X8X~.,.9 { !.tX8X8XwX8X-XU ~.&.K.>.-.#X-X8XrXwX8XeX1XL.#.,.@.r }.k.m.z.C.z.c.N.z.z.N.N.z.z.z.z.z.z.z.z.z.z.z.z.z.z.z.z.",
"z.z.z.z.z.z.z.z.z.C.z.c..Xz..X}.u n aXqX-X-X-XP.A p L.!.tXtXwX8XwXD Y.&.,.,.=.,.tX8X8XwXeXwXW.:.=.P.M N *Xz.c.N.c.v.z.N.M.z.z.z.z.z.z.z.z.z.z.z.z.z.z.z.z.z.z.z.",
"z.z.z.z.z.z.z.z.z.z.V.C.z..Xj.>Xu P ~.8X8XyX~.-..., :.,.~.1XwX8XfXU  .L.;.>.,.>.,.Q.8XwX~.W.S.&.q.} 1 n.b.M.z.z.N.C.N.z.l.z.N.N.z.z.z.z.z.z.z.z.z.z.z.z.z.z.z.z.",
"z.z.z.z.z.z.z.z.c.z.V.z.m.c.c.|.; ..t.!.~.-XL.&.,.q ..:.:.U.8XwXdXW.I D.;.:.>.=.>.>.,.:.:.:.&.S.q.; 8.OXz.z.M.N.c.z.z.M.V.M.z.z.z.z.z.z.z.z.z.z.z.z.z.z.z.z.z.z.",
"z.z.z.z.z.z.z.z.z.c.z.c.c.c.C.p.; &.,.&.,.:.*.&.S.6  .,.:.:.:.Y.!.~.Y.,.S.&.S.>.:.:.:.&.&.,.Y.&.% x :Xm.V.f.M.M.N.c.c.z.z.z.z.z.z.z.z.z.z.z.z.z.z.z.z.z.z.z.z.z.",
"z.z.z.z.z.z.z.z.z.N.z.z.z.c.c.p.- q.&.&.L.&.,.D.D.8 &.&.:.:.&.:.:.:.D.&.:.;.:.:.:.;.&.+.,.#.A $ U L R.x.m.z.g.C.N.c.z.z.z.z.z.z.z.z.z.z.z.z.z.z.z.z.z.z.z.z.z.z.",
"z.z.z.z.z.z.z.z.z.N.z.z.z.c.z.p.- >.,.>.&.:.%.%.%.D Y.,.,.&.&.=.&.&.&.-.:.:.;.S.:.:.#.n S , p -.I.J _ ,Xx.c.C.l.c.c.z.z.z.z.z.z.z.z.z.z.z.z.z.z.z.z.z.z.z.z.z.z.",
"z.z.z.z.z.z.z.z.z.c.z.z.z.c.N.x.= #.q.>.:.%.F a 8 s A ..q.,.P.P.y.y.y.w.-.>.&.:.:.K.) L | | t.=.-.~ e H }.}..Xz.c.z.z.z.z.z.z.z.z.z.z.z.z.z.z.z.z.z.z.z.z.z.z.z.",
"z.z.z.z.z.z.z.z.c.z.z.M.M.z.M.XXl , q.>.,.,.S.S.D.{ A % % % o # # + = 2 n =.t.:.;.,.X.S t.L q.-.-.#.=.J 1 [.x.m.z.z.z.z.z.z.z.z.z.z.z.z.z.z.z.z.z.z.z.z.z.z.z.z.",
"z.z.z.z.z.z.z.z.c.z.z.z.M.z.z.XX8.; x =.>.>.&.S.&.L.Y.| % K _ E N / ' r.' H -.&.:.:.=.u R.u +.=.-.*.&.P.! h OXx.z.z.z.z.c.c.z.z.z.z.z.z.z.z.z.z.z.z.z.z.z.z.z.z.",
"M.M.z.z.z.z.z.z.z.z.M.z.z.z.l..Xa.u L #.L.>.S.:.:.&.-.| $ # sX:X>XoX&X|. Xr O.q.K.&.t.p O.w.x q.,.5.:.&.P.c ^ oXz.z.z.z.c.c.z.z.z.z.z.z.z.z.z.z.z.z.z.z.z.z.z.z.",
"z.z.z.z.z.z.z.z.z.c.V.l.z.V.z.c.oX8.2 u ! q.:.&.S. .{ P.+.+ r OXx.x.z.x.*XE M q.&.,.t.#.M pXO.H | ) A } L H = +Xb.z.z.z.c.c.z.z.z.z.z.z.z.z.z.z.z.z.z.z.z.z.z.z.",
"z.z.z.z.z.z.z.z.z.z.z.z.z.z.z.c.c.}.oXi.W K +.t.>.>.F ..-.w.o a.}.z.C.z..Xp.3 -.,.F A ..y ! :X^ 3 < l b < f ( XXc.z.z.z.z.z.z.z.z.z.z.z.z.z.z.z.z.z.z.z.z.z.z.z.",
"z.z.z.z.z.z.z.z.z.z.z.z.z.z.z.z.c.C.z.m.OX9.H ~ -.P.>.p P.! - }.x.C.z.z.x.*XW ! *.D :.P ~ M 7.+XOX.X+X+X.X.X.Xz.c.c.z.z.z.z.z.z.z.z.z.z.z.z.z.z.z.z.z.z.z.z.z.z.",
"z.z.z.z.z.z.z.z.z.z.z.z.z.z.z.z.z.l.V.m.j..Xn._ M M e ; b j p.}.m.z.z.z.z.m.i._ P.t.I.t.a.9.( m.k.v.x.z.k.x.m.c.c.c.z.z.z.z.z.z.z.z.z.z.z.z.z.z.z.z.z.z.z.z.z.z.",
"z.z.z.z.z.z.z.z.z.z.z.z.z.z.z.z.M.M.z.z.V.b.m.oXx.` _ x.0.k.Z.z.l.z.M.z.z.+X^ l ! ! J x r < 7.m.m.m.C..XC.z.z.m.c.c.z.z.z.z.z.z.z.z.z.z.z.z.z.z.z.z.z.z.z.z.z.z.",
"z.z.z.z.z.z.z.z.z.z.z.z.z.z.z.z.z.N.V.M.z.z.z.m.x.OX+X.Xc.C.f.f.M.z.z.N.N.z.x.v g N E E C 7.C.C.m.m.z.j.c.C.N.z.z.z.z.z.z.z.z.z.z.z.z.z.z.z.z.z.z.z.z.z.z.z.z.z.",
"z.z.z.z.z.z.z.z.z.z.z.z.z.z.z.z.N.l.z.M.M.z.z.N.c.v.z.z.V.f.A.V.V.z.z.l.l..Xc.+XOXoX&XOX+XXXz.c.z.V.C.m.m.m.z.z.z.z.z.z.z.z.z.z.z.z.z.z.z.z.z.z.z.z.z.z.z.z.z.z.",
"z.z.z.z.z.z.z.z.z.z.z.z.z.z.z.z.c.c.N.M.z.M.N.z.z..Xl.C.z.z.z.f.z.z.C.l.N.c.v.c.z.x.m.m.z.z.c.c.N.l.l.z.z.z.z.N.z.z.z.z.z.z.z.z.z.z.z.z.z.z.z.z.z.z.z.z.z.z.z.z.",
"z.z.z.z.z.z.z.z.z.z.z.z.z.z.z.c.c.c.c.z.N.M.z.N.N.c.N.z.z.V.z.M.z.V.z.N.c.c.N.z.z.z.z.z.z.z.z.M.N.z.z.z.z.z.z.z.z.z.z.z.z.z.z.z.z.z.z.z.z.z.z.z.z.z.z.z.z.z.z.z.",
"z.z.z.z.z.z.z.z.z.z.z.z.z.z.b.m.c.c.c.c.z.z.M.M.c.c.c.c.c.c.c.c.b.b.c.c.c.c.c.M.z.M.z.z.z.z.z.z.z.z.z.z.z.z.z.z.z.z.z.z.z.z.z.z.z.z.z.z.z.z.z.z.z.z.z.z.z.z.z.z.",
"z.z.z.z.z.z.z.z.z.z.z.z.z.z.b.b.c.c.c.z.z.z.z.M.z.c.c.c.c.c.c.c.b.b.c.c.c.c.c.z.M.M.z.z.z.z.z.z.z.z.z.z.z.z.z.z.z.z.z.z.z.z.z.z.z.z.z.z.z.z.z.z.z.z.z.z.z.z.z.z.",
"z.z.z.z.z.z.z.z.z.z.z.z.z.z.z.z.z.z.z.z.z.z.z.z.z.z.z.c.c.c.c.c.m.m.c.c.c.c.c.z.z.z.z.z.z.z.z.z.z.z.z.z.z.z.z.z.z.z.z.z.z.z.z.z.z.z.z.z.z.z.z.z.z.z.z.z.z.z.z.z.",
"z.z.z.z.z.z.z.z.z.z.z.z.z.z.z.z.z.z.z.z.z.z.z.z.z.z.z.z.z.c.c.c.c.c.c.c.c.c.z.z.z.z.z.z.z.z.z.z.z.z.z.z.z.z.z.z.z.z.z.z.z.z.z.z.z.z.z.z.z.z.z.z.z.z.z.z.z.z.z.z.",
"z.z.z.z.z.z.z.z.z.z.z.z.z.z.z.z.z.z.z.z.z.z.z.z.z.z.z.z.z.z.z.c.c.c.c.z.b.b.b.z.z.z.z.z.z.z.z.z.z.z.z.z.z.z.z.z.z.z.z.z.z.z.z.z.z.z.z.z.z.z.z.z.z.z.z.z.z.z.z.z.",
"z.z.z.z.z.z.z.z.z.z.z.z.z.z.z.z.z.z.z.z.z.z.z.z.z.z.z.z.z.z.z.z.c.z.z.z.b.b.b.z.z.z.z.z.z.z.z.z.z.z.z.z.M.z.z.z.z.z.z.z.z.z.z.z.z.z.z.z.z.z.z.z.z.z.z.z.z.z.z.z.",
"z.z.z.z.z.z.z.z.z.z.z.z.z.z.z.z.c.c.c.c.c.c.m.m.m.b.z.z.z.z.z.z.M.M.z.z.b.b.b.z.z.c.c.c.c.z.z.z.z.c.c.c.N.N.c.c.z.z.z.z.z.z.z.z.z.z.z.z.z.z.z.z.z.z.z.z.z.z.z.z.",
"z.z.z.z.z.z.z.z.z.z.z.z.z.z.z.z.c.c.c.c.c.c.m.m.m.b.z.z.z.z.z.M.M.M.z.z.b.A.b.z.z.c.c.c.c.z.z.z.z.c.c.c.N.N.c.c.z.z.z.z.z.z.z.z.z.z.z.z.z.z.z.z.z.z.z.z.z.z.z.z."
};
