/* XPM */
static char *_24f5a3d634d49069f056fb101924e3bRkdzbNGDLCCexT1S[] = {
/* columns rows colors chars-per-pixel */
"80 80 256 2 ",
"   c #030400",
".  c #0C0100",
"X  c #020A00",
"o  c #080A04",
"O  c #140100",
"+  c #1C0100",
"@  c #180804",
"#  c #0A1401",
"$  c #171703",
"%  c #0D0D16",
"&  c #230100",
"*  c #2A0200",
"=  c #270C01",
"-  c #3C0D00",
";  c #340A00",
":  c #281603",
">  c #351705",
",  c #2C1C16",
"<  c #3B2B0A",
"1  c #373908",
"2  c #392816",
"3  c #343413",
"4  c #3A3618",
"5  c #292A0D",
"6  c #373829",
"7  c #352925",
"8  c #3F1F2A",
"9  c #420C00",
"0  c #471903",
"q  c #4A1F19",
"w  c #562709",
"e  c #45320A",
"r  c #472615",
"t  c #562917",
"y  c #5C371D",
"u  c #482E0F",
"i  c #683618",
"p  c #6D300D",
"a  c #593826",
"s  c #4D322C",
"d  c #643626",
"f  c #733D2C",
"g  c #374124",
"h  c #78421A",
"j  c #584B3B",
"k  c #4C452B",
"l  c #7C462B",
"z  c #684837",
"x  c #774735",
"c  c #79553D",
"v  c #684A31",
"b  c #736F3C",
"n  c #42441D",
"m  c #54504D",
"M  c #675849",
"N  c #765956",
"B  c #6D544B",
"V  c #736548",
"C  c #6B6654",
"Z  c #776857",
"A  c #6A6E4F",
"S  c #676567",
"D  c #7A756C",
"F  c #777776",
"G  c #726D69",
"H  c #5E5F5A",
"J  c #89431A",
"K  c #98481A",
"L  c #9A521B",
"P  c #9A4A0F",
"I  c #A74B17",
"U  c #B65419",
"Y  c #AA4F17",
"T  c #854829",
"R  c #9A4927",
"E  c #995628",
"W  c #885537",
"Q  c #9D5B34",
"!  c #985938",
"~  c #894E37",
"^  c #A44A24",
"/  c #A95827",
"(  c #B75B28",
")  c #A85836",
"_  c #B65C37",
"`  c #99633C",
"'  c #867B39",
"]  c #8C613D",
"[  c #B4632D",
"{  c #BB632B",
"}  c #BC6224",
"|  c #A96537",
" . c #BA6234",
".. c #B46A3B",
"X. c #B56537",
"o. c #AF6A36",
"O. c #BC601F",
"+. c #C45D2A",
"@. c #C55B33",
"#. c #C36527",
"$. c #C36737",
"%. c #C85D1C",
"&. c #895B47",
"*. c #975C43",
"=. c #835751",
"-. c #A25C43",
";. c #8C6247",
":. c #986445",
">. c #857A45",
",. c #996954",
"<. c #8C6F59",
"1. c #A86A46",
"2. c #B26B42",
"3. c #B86A47",
"4. c #AC7247",
"5. c #B67146",
"6. c #A67458",
"7. c #B47455",
"8. c #AF6C54",
"9. c #867668",
"0. c #867873",
"q. c #94726B",
"w. c #AE7A69",
"e. c #855D65",
"r. c #C56E48",
"t. c #70855A",
"y. c #7A8C66",
"u. c #7A8D69",
"i. c #748965",
"p. c #7B9164",
"a. c #6E8361",
"s. c #7B8030",
"d. c #86827B",
"f. c #98877A",
"g. c #8B8C6E",
"h. c #B08D79",
"j. c #94A67C",
"k. c #ADA976",
"l. c #9C8455",
"z. c #C1A07C",
"x. c #CA8266",
"c. c #88803F",
"v. c #8C7C80",
"b. c #898887",
"n. c #968B88",
"m. c #989998",
"M. c #94918B",
"N. c #A7958B",
"B. c #A79998",
"V. c #B5978B",
"C. c #9AAA84",
"Z. c #98AF91",
"A. c #A2AB84",
"S. c #B7A489",
"D. c #A6B38D",
"F. c #A7A799",
"G. c #BAA897",
"H. c #A9B797",
"J. c #B4B898",
"K. c #B798A4",
"L. c #9DB2A3",
"P. c #A8A9A8",
"I. c #B6ABA7",
"U. c #AAB4A5",
"Y. c #B7B3AD",
"T. c #ADB3B5",
"R. c #B4B4B4",
"E. c #BBBAB4",
"W. c #BBBCBC",
"Q. c #B7B6B7",
"!. c #B1ADB1",
"~. c #999EA2",
"^. c #C8B798",
"/. c #CAB094",
"(. c #C89DB2",
"). c #C6B7AB",
"_. c #D6BCA5",
"`. c #C5BCB7",
"'. c #D7B9B5",
"]. c #CBA9B1",
"[. c #E8BBB3",
"{. c #CD9A90",
"}. c #B1C69D",
"|. c #B4CBAD",
" X c #D8C2A4",
".X c #C8C3BB",
"XX c #D7C8BC",
"oX c #CCD8AE",
"OX c #F5DDBC",
"+X c #E9D0BB",
"@X c #C9E6B5",
"#X c #CDEDB6",
"$X c #CDEDB9",
"%X c #C6EAB5",
"&X c #D0EEB6",
"*X c #D1EEBB",
"=X c #CAF1B6",
"-X c #CDF0BA",
";X c #D1F1BC",
":X c #D1F0B7",
">X c #C3E2AE",
",X c #F5EBBB",
"<X c #FDF7B9",
"1X c #EDEAB8",
"2X c #BABDC2",
"3X c #C6BEC2",
"4X c #E3B7C9",
"5X c #BCC1C4",
"6X c #C3C3C3",
"7X c #CCCCCC",
"8X c #C9C6C6",
"9X c #D7C9C7",
"0X c #D7D4CC",
"qX c #D4D4D3",
"wX c #DCDDDC",
"eX c #DAD7D6",
"rX c #D0CED0",
"tX c #E8C6CA",
"yX c #E7CCD5",
"uX c #F4C9D5",
"iX c #E3DEDC",
"pX c #E4D8D7",
"aX c #F8D4D9",
"sX c #F0DDC5",
"dX c #D1EAC1",
"fX c #DCF6C6",
"gX c #DCF5CA",
"hX c #DDFBCA",
"jX c #D8F7C4",
"kX c #DCE1DB",
"lX c #ECE5C6",
"zX c #F4E8C8",
"xX c #E0FDCF",
"cX c #E2F3C9",
"vX c #FCF2C9",
"bX c #E2E2DE",
"nX c #EAE2DC",
"mX c #E4FCD3",
"MX c #F7ECD7",
"NX c #DBDDE2",
"BX c #E6DDE6",
"VX c #FBD8E3",
"CX c #DEE3E6",
"ZX c #E4E5E4",
"AX c #EBE5E3",
"SX c #E5E9E4",
"DX c #E5E5EA",
"FX c #EAEAEA",
"GX c #E9E8E9",
"HX c #F7EBE5",
"JX c #F9F5EB",
"KX c #E8EBF2",
"LX c #F3F3F3",
"PX c #FDFDFC",
"IX c #FBF8F5",
"UX c #F3EFF4",
/* pixels */
"$X$X$X$X$X$X$X$X$X$X$X$X$X$X$X=X=X=X=X=X=X=X=X=X=X=X#X#X#X#X#X#X$X$X#X#X#X#X#X#X&X#X#X#X#X#X$X#X&X&X&X&X&X&X$X#X#X#X#X#X&X&X&X&X*X$X*X*X*X$X$X$X$X*X*X*X$X$X$X$X",
"$X$X$X$X$X$X$X$X$X$X$X$X$X$X$X-X=X=X=X=X=X=X=X=X=X=X-X=X$X#X$X-X$X$X=X#X#X=X#X&X&X&X=X#X=X=X=X-X&X&X&X&X&X&X$X$X#X$X*X*X*X*X;X;X$X$X*X*X$X$X$X$X*X*X$X*X$X$X$X$X",
"$X$X$X$X$X$X$X$X$X$X$X$X$X$X$X-X$X#X$X#X$X#X$X#X$X#X$X#X$X#X$X$X%X%X#X#X#X#X#X#X#X#X#X#X#X#X#X$X#X#X#X#X#X#X$X$X$X$X#X#X#X#X#X#X$X$X$X$X$X$X$X$X$X$X$X$X$X$X*X*X",
"$X$X$X$X$X$X$X$X$X$X$X$X$X$X$X$X$X$X$X$X$X$X$X$X$X$X$X$X$X$X$X$X=X=X=X=X#X#X#X#X$X$X$X$X#X=X=X=X$X$X$X=X$X=X$X=X$X$X#X#X#X#X#X#X$X$X$X$X$X$X$X$X$X$X$X$X$X$X$X*X",
"$X$X$X$X$X$X$X$X$X$X$X$X$X$X$X$X$X$X$X$X$X-X$X-X-X-X-X-X-X-X-X-X-X-X-X-X-X-X*X*X*X*X-X-X-X-X=X=X-X-X-X-X-X-X-X-X=X=X=X=X=X=X$X$X$X*X$X$X$X*X$X$X$X$X$X$X$X$X*X*X",
"$X$X$X$X$X$X$X$X$X$X$X$X$X$X$X$X$X$X$X$X$X$X$X$X$X$X$X$X$X$X$X%X$X$X$X$X$X$X$X$X$X$X$X$X$X%X%X%X%X%X%X%X%X%X%X%X$X$X$X%X#X$X%X$X$X$X$X$X$X$X$X$X$X$X$X*X$X$X*X$X",
"$X$X$X$X$X$X$X$X$X$X$X$X$X$X$X$X*X*XdX*X*X*X$X$X$X$X$X$XdX$XdX$X$X$X$X$X$XdX*XdXdX*XdX$X$X$X$X$X$X$X$X$X$X$X$X$X*X*X$X$X$X$X$X$X$X$X$X$X$X$X*X$X$X*X*X*X$X$X$X$X",
"$X$X$X$X$X$X$X$X$X$X$X$X$X$X$X*XgXcXcXgXgXgXgXgXgXgXgXgXgXgXgXgXfXfXfXgXgXgXcXcXcXgXgXgXgXjXfXjXgXgXgXgXgXgXfXfXfXfXfXfXfXfXgXjX*X*X*X$X$X$X*X$X$X$X*X*X$X$X$X$X",
"$X$X$X$X$X$X$X$X#X;X%X#XjX>XjX>XH.j.j.C.A.j.H.j.C.C.C.C.C.C.C.C.j.j.C.A.C.j.C.j.D.C.C.C.C.D.j.j.C.C.C.C.A.A.j.j.A.A.j.A.C.j.}.dXjX>X>X;XjX;X$X#X*X*X*X$X$X$X$X*X",
"$X$X$X$X$X$X$X$X%X;X-X$X;X%X;XC.X X # X X X X X X X X X X X X X # X X X X M g.g   o X X # X X # X X X o o o . o o # X $ X X # oX$XjXfX*X@X%X*X;X$X*X*X$X$X$X$X*X",
"$X$X$X$X$X$X$X$X%X;X;X%X#X-X;Xt.X $ 3 5 3 3 4 5 3 3 3 3 3 3 3 3 5 5 3 4 5 .XIX.X7 7 4 k $ n n $ 3 4 3 < < < < < e < 4 $ 6 # X A t.}.;X>X>X;X;X;X$X$X$X$X$X$X*X*X",
"$X$X$X$X$X$X$X$X;X$X;X%X>X;XhXt.X A lXzXlXlXlXvXlX1XsXOXsXOXsXOXzX1XzXlX9.'.HXtX'.M pXMXMXzXoXMXlXlXsXOXOXOXOXzXsXMX+XlXMXs   G A |.fX*X;XjX%X@X$X$X$X$X$X$X*X*X",
"$X$X$X$X$X$X$X$XjX>X-X;X%X-XxXp.X V zX+X^. X^./. X X X X X X_. X^.^._._.<.'.tXaXVX'.N G._.^.^._._._._._._._. X X X^.XXlX.X7 b.F.H.;XjX%X;X*X@X;X$X$X$X$X$X$X$X*X",
"$X$X$X$X$X$X$X$X;X>X-XjX$X#XjXp.o V vXg.@ O @ = + + + + + + + + = = + & > '.aXuXuXaXtXa & O = = + + + + + + + + O @ , I.D m.!.S @X*X>X>X$X$X#XjX$X$X$X$X$X$X$X$X",
"$X$X$X$X$X$X$X$X$X%X;XjX$X#XjXp.o b vX<.O = + O & & & & & * * & & + + + * '.aXuXuXuXaX[.t & * + & & & * * & & + & O . j F F 7 m.mXjX*X;XjX;X%X#X*X*X$X$X$X$X$X$X",
"$X$X$X$X$X#X#X#X$X$X;X#X%X;XjXg.o V vX>.. u ] :.] ` ` ` :.:.:.` :.W 6.,.d {.tXaXuXuXtXaXh.d 6.;.] ` ` ` :.W c c c = M 0.H F o L.gX@X>X$X#X$X;X*X*X*X*X$X$X$X$X$X",
"$X$X#X#X&X&X&X&X#X*X$X;X$X$XxXy.  C vX>.. y 5.X./ $.[ [ ../  .( } { ..2.f h.aXyXaX9XaXaX].f 8.1.2.X...r.2.! 6.v a f.e.N yXm X L.gX#X#X;X#X#X-X#X#X#X#X#X#X#X#X#X",
"$X$X#X#X&X&X&X&X#X&X$X;X$X$XxXu.  C <Xb . a 3.( } $.( { o.[ $.#.} } [ 2.l h.'.tXyXyXaXaX[.f ~ 8.| / / ( ) x.w c '.v.q.uX]., X L.jX#X#X-X#X#X-X#X#X#X#X#X#X#X#X#X",
"$X$X#X#X#X#X&X&X#X&X$X;X$X$XxXu.  C <X' . a 3.{ {  .( [ | ` X._ [ | | :.x w.(.tXuXVXyXtX+Xx d 1.o...r.X.2.T <.sXn.0.].aXB.  X }.jX#X#X;X#X#X-X#X#X#X#X#X#X#X$X$X",
"$X$X#X#X#X#X#X#X#X&X$X;X$X$XxXy.  V <X' . y 3.{ [ [ [ ..1.1.5.2.4.| 1.,.&.q.].(.4XuXuXtX'.=.x ,.| ..) 7.T ,. XXXm `.aX9XN 6 X Z.jX#X#X-X#X#X-X#X#X#X#X#X#X#X#X$X",
"$X$X#X#X#X#X#X#X#X&X$X;X$X$XxXy.  V <X' O y 3. .X.| 5.4.:.,.1.1.:.:.6.6.=.N 4XK.(.4XVXaXK.=.<.V l.` 1.:.&.+XHXD M.0XHXn.G j # Z.fX#X#X;X#X#X-X#X#X#X#X$X#X#X#X#X",
"$X$X#X#X#X#X#X#X#X&X$X*X$X$XxXy.  V <X' O y 3. ...| 2.T w r w 0 w 0 u r q q 4X].(.(.tXtXN.9.N.< u 0 t v V.'.pXS `.eX9Xm XX6 X H.fX#X#X;X#X#X-X#X#X#X#X#X#X#X#X#X",
"$X$X&X#X&X&X#X&X#X&X$X*X$X$XxXy.  V <X' O y 3. ...| 1.p + + * * * & & & & * q.'.'.K.].].N.0.Y.= O + + G.9XnXP.v.qXIX9.f.nXk   J.fX#X#X;X#X#X-X#X#X#X#X#X#X#X#X#X",
"$X$X&X&X&X&X&X&X#X&X$X*X$X$XxXy.  V <X' O d 3. .| | 2.p & - i p p p i i t t a '.(.I.].Q.n.G pXm r & B ).Y.AXn.!.BXI.O G.lXu o D.fX#X#X;X#X#X-X#X#X#X#X#X#X#X#X#X",
"$X*X&X&X#X#X#X#X#X&X#X;X$X$XxXy.  V <X' O a 2. .X.5.5.p * i :.Q ..K 1.! W &.B e.XX0.B.8Xv.F GXD z > n.9X`.pXI.yX'.s O S.MX< . J.fX#X#X;X#X#X-X#X$X$X#X#X#X#X#X#X",
"$X*X&X&X#X#X#X#X#X&X#X;X$X$XxXu.  V <X' O a 2. ./ / | p * w ! Q K ^ ) E ~ c a = n.I.G `.S M.UXB., M '.!.eXpXyX].s + O S.zX< O J.cX#X#X;X#X#X-X#X#X#X#X#X#X$X$X#X",
"$X$X#X#X&X#X&X&X#X&X#X;X$X$XxXu.  C <X' . a 2. .5.o.5.p & w ! E _ ^ K E p & O O 5 ).b.b.S P.BXrXs Z 8X!.GXyXK.N f - = S.zXu O A.cX#X#X-X#X#X-X#X#X#X#X#X#X#X#X#X",
"$X$X#X#X&X&X&X&X#X&X#X;X$X$XxXu.  C <X' . a 2.X.E ` 2.p + d ,.T R ) Q p * + < k : f..XD F qXBXBXN s I.7X3XyXq.t 6.0 + h.zXu O G.fX#X#X-X#X#X-X#X#X#X#X#X#X#X#X#X",
"$X$X#X#X#X#X&X&X#X&X#X;X$X$XxXu.  C <X' . a 8.2.| 4.7.t O > c x W ! T & & ;.k./.g.C XXF.M.IXUXDXpXn.m F 7XyXs ~ ! ; + k.zX3   Y.gX#X#X;X#X#X-X#X#X#X#X#X#X#X#X#X",
"$X$X&X&X#X#X&X#X#X&X#X;X$X$XxXu.  C <X>.. a 8.2.1.l x z C d.0.B a u u + y /.S.<.S.Z ).).wX6XwXFXAXPXwXm.S N =.~ ! 0 = k.lX3   F.gX#X#X;X#X#X-X#X#X#X#X#X#X#X#X#X",
"$X*X&X&X#X#X#X#X#X&X$X;X$X$XxXy.  V <X>.. s 1.-.l 6.+XJXPXPXPXPXJXMX).M j f.c O q.q.^.`.bXm.7XSXwXwXSXPXwXN y 1.Q 9 + k.1Xg X U.gX#X#X;X#X#X-X#X#X#X#X#X$X#X#X#X",
"$X$X&X&X#X#X#X#X#X&X$X;X$X$XxXy.  V vX>.. s &.&.sXHXIXnXCXKXCXZXbXbXJXIX.XB , O f.9.B.pXd.R.IXkXZXLXCXqXJXHXB l ! 9 + k.cX3 X U.gX#X#X;X#X#X-X#X#X$X$X#X$X#X#X#X",
"$X$X#X#X#X#X#X#X#X&X$X*X$X$XxXy.o V zXZ   @ ).JXnXAXAXZXZXCXZXZXSXbXSXGXwXE.n.H m G `.0X!.ZXZXFXFXiXZXGXiXIXXXt &.0 + S.zX4   H.fX#X#X;X#X#X-X#X#X#X#X#X#X#X#X#X",
"$X$X#X#X#X#X#X#X#X&X$X*X$X$XxXy.X j JX9.. .XHXZXZXDXZXZXZXZXZXZXZXbXZXFXFXLXFXwXR.R.eXZXqXFXZXZXeXwXLXZXAXeXpX9.c > + S.zX4   J.fX#X#X;X#X#X-X#X#X#X#X#X#X#X#X#X",
"$X$X=X=X#X#X#X#X#X&X$X*X$X$XxXy.o M JXM I.IXIXZXZXDXZXZXZXZXZXZXSXZXZXZXwXZXFXZXR.W.wXZXFXFXLXwXIXLXZXqXUXiXJXG.z > O S.lX4 o H.fX#X#X-X#X#X-X#X#X#X#X#X#X#X$X#X",
"$X$X=X=X#X#X#X#X#X&X$X*X$X$XxXy.o 9.f.F.PXFXrXLXDXDXZXZXZXZXZXZXkXZXFXFXZXZXwX7Xm.P.ZXZXZXwXeXF b.wXZXFXFXAXHX'.z > + S.lX4 o D.fX#X#X-X#X#X-X#X#X#X#X#X#X$X$X#X",
"$X$X=X=X#X#X#X#X#X&X$X*X$X$XxXy.X m d.JXbXAXZXDXDXDXZXZXZXZXZXZXSXZXZXZXZXFXFXeXP.P.FXZXZXFX7X% , Q.FXDXwXbXHXXXj > O S.lX4 X D.fX#X#X;X#X#X-X#X#X#X#X#X#X$X#X#X",
"$X$X=X=X#X#X#X#X#X&X$X*X$X$XxXy.X , AXFXiXiXLXBXDXDXDXZXZXZXZXZXGXZXZXZXZXFXwX6Xm.m.LXFXwXLXZX7   M.LXrXFXZXHX9Xj : O S.lX4 X H.fX#X#X;X#X#X-X#X#X#X#X#X#X#X#X#X",
"$X-X=X=X#X#X#X#X#X&X$X*X$X$XxXu.X D PXGXGXKXqXFXDXDXDXZXZXZXZXZXwXZXZXFXFXLXZX6XM.m.PXFXqXZXZXb.  b.PXZXUXwXiXnXj : . S.zX4 X H.fX#X#X;X#X#X-X#X#X#X#X#X#X#X#X#X",
"$X-X=X=X#X#X#X#X#X&X#X*X$X$XxXu.X ZXZXZXDXDXKXNXDXDXZXZXZXZXZXZXZXZXFXZXwXFXZX7Xm.m.FXZXZXLXFXZX6XwXLXwXNXLXeXHXM : . S.zX4 X D.fX#X#X;X#X#X-X#X#X#X#X#X#X#X#X#X",
"$X$X=X=X#X#X=X=X#X#X#X*X*X$XgXD m LXwXDXDXDXDXDXGXDXZXZXFXSXZXbXbXZXZXZXZXZXwX7X!.F LXwXFXZXwXFXUXZXCXZXDXZXFXJX0.O . S.lX4 X D.fX#X#X-X#X#X-X#X#X#X#X#X$X$X#X#X",
"$X$X=X#X#X#X#X#X&X#X#X*X$X$XhXi.F LXDXDXDXFXDXZXDXZXZXZXSXSXZXZXZXZXZXZXZXFXwXqXP.b.eXFXeXLXZXqXGXGXFXFXDXZXiXpXF.@ . S.lX4 X D.fX#X#X-X#X#X-X#X$X#X#X#X#X#X#X#X",
"$X$X#X#X#X#X#X#X:X:X#X*X$X$XxXi.P.UXFXNXZXFXDXZXZXZXZXZXZXSXSXZXZXZXZXZXZXFXZXeX6XG 6XeXPXZXqXLXwXbXZXCXCXNXqX8X0X: . G.lX3 X D.fX#X#X;X#X#X-X#X$X#X#X#X#X#X#X#X",
"$X$X#X#X#X#X#X#X:X:X#X*X$X$XgXa.8XZXFXwXZXFXZXZXDXZXZXZXZXZXSXSXZXZXZXZXZXFXZXZX7Xb.b.PX7XLXZXZXZXZXZXDXDXDXZXiXHX2 . G.lX4 o H.fX#X#X;X#X#X-X#X#X#X#X#X#X#X#X#X",
"-X-X#X#X#X#X#X#X#X&X$X;X$X%XjXA qXkXFXZXZXZXeXwXFXSXSXSXZXZXZXZXZXZXZXZXZXGXZXZX6X5Xm 7XPXZXwXbXGXbXZXFXFXBXwXiXpX2 . G.zX4 o H.fX#X#X;X#X#X-X#X#X#X#X#X#X#X#X#X",
"$X-X#X#X#X#X=X=X#X&X$X;X$X%XdXA kXkXZXFXSXkX6X7XZXSXSXSXZXZXZXZXZXZXZXZXZXZXZXZXeXW.b.S FXZXFXLXAXiXiXDXDXwX6XE.I.: . S.zX4   H.fX#X#X;X#X#X-X#X#X#X#X#X#X$X#X#X",
"$X$X#X#X#X#X#X#X#X#X$X;X$X$XjXA 0XZXqXFXSXkXR.R.wXbXZXSXZXZXZXZXZXZXZXZXZXZXZXZXFXW.8Xb.m wXPXeXHXHXGXZXKXKX7XB.0.@ . S.zX4   J.fX#X#X;X#X#X-X#X$X$X#X#X#X$X#X#X",
"-X$X#X#X#X#X#X#X#X#X%X;X$X$XfXa..XZX6XGXSXwXP.P.qXwXZXZXZXZXZXZXZXZXZXGXZXZXZXDXKXDXP.8XF m m.ZXbXZXeX8XpXHXXXf.B = O S.zX4   J.fX#X#X;X#X#X-X#X#X#X#X#X#X#X#X#X",
"-X$X#X#X#X#X=X=X#X#X*X*X$XfX|.g.SXQ.U.LXiXAXE.d..XbXZXwXLXbXSXwXZXGXwXZXCXCXKXCXCXKXqX2X3XP.b.0.F G H N =.x f h &.; + S.,X1 X H.gX#X#X;X#X#X-X#X#X#X#X#X#X#X#X#X",
"-X-X#X#X#X#X=X=X#X&X*X*X@X*X|.i.JXb.Y.GXGXFX.Xb.F.qXbXZXZXZXSXGXZXwXZXqX8X7XCXKXKXDXNX8XQ.Q.`.`.T.P.`._.,.1.E E ! - + S.1X1 X H.gX#X#X;X#X#X-X#X#X#X#X#X#X#X#X#X",
"$X$X#X#X#X#X#X#X#X#X*X*X$X$X|.a.LXG eXZXLXGXqXm.d.Q.iXLXwXFXZXFXwX.XZX6XR.Q.eXDXDXNXKXFX7X8X8XY.|.E.XXh.&.7./ L ! - + S.1X1 X H.gX#X#X-X#X#X-X#X#X#X#X#X$X#X#X#X",
"$X$X=X#X#X#X#X#X#X#X*X*X*X*X$Xi.F.F LXZXGXkXZXQ.G M.eXFXZXFXZXZXeXm.qXW.W.R.8XeXZXwXZXGXiXiXeX`.Y.`.G.d *.7./ L Q - + S.1X1 X U.gX#X#X-X#X#X-X#X#X#X#X#X$X$X#X#X",
"$X$X#X#X#X#X#X#X&X#X*X$X*X*XfXu., b.FXwXZXCXDX8Xb.F 7XqXFXDXFXZXZXM.W.Q..XY.E..XwXGXAXAXLXAX7X.XE.).h.x 7.X./ L Q 9 + S.,X1   U.gX#X#X;X#X#X-X#X#X#X#X#X#X#X#X#X",
"-X-X#X=X#X#X#X#X;X#X*X#X*X%XxXi.X R.eXCXDXFXwXW.T.S W.Q.wXwXFXDXLX~.!.R..XR.Y.E.`.pXiXwXbX7XP.I.9Xf.V 6.8.) / P Q 9 + S.,X1 X U.gX#X#X;X#X#X-X#X#X#X#X#X$X#X#X#X",
"-X-X#X#X#X#X=X#X;X#X*X#X*X@XmXa.$ 8X5XqXNXNX6XQ.5XH !.R.8X7XqXNXKX5XQ.R.W.E.E.Y.Y.E.E.Y.R.Q.2X6XI.;.x 8.) r./ Y Q 9 & S.,X1   U.gX#X#X;X#X#X-X#X#X#X#X#X#X#X#X#X",
"-X-X#X#X#X#X#X#X&X@X*X*XjX@XmXa.6 W.P.2X2X5XT.2X6XH P.2XR.W.R.7XqXNX6X2XR.W..XY.`.I.E.`.R.2X5XP.M V 6.:.2.r.P Y Q 9 + S.,X1   U.gX#X#X;X#X#X-X#X#X#X#X#X#X#X#X#X",
"$X$X#X#X#X#X#X#X#X@X*X#X*X@XhXa.6 6XR.6X!.W.7XW.2XS T.R.6X`.E.W.T.2XQ.5XT.6XE.Y.E..XP.Q.Q.T.F m G.q.&.w.R r.I P Q 9 & S.,X1   U.gX#X#X;X#X#X-X#X#X#X#X#X#X#X#X#X",
"$X$X#X#X#X#X#X#X#X#X*X#X*X@XxXa.6 .XE.W.R.T.~.P.~.m.rXQ.P.`.Y.R.Q.W.T.Q.8XP.R.W.P.Q.T.F M.S b.W.XXV.x *.x._ [ L Q - + S.,X1   U.gX#X#X;X#X#X-X#X#X#X#X#X#X#X#X#X",
"$X$X=X#X#X#X#X#X#X#X*X#X*X@XxXa.$ .XE.U.7XQ.F m.F H G P.`.8XE.0X8X3X3XR.rXQ.!.Q.|.8XP.m G R.3X6XI.V.;.x ! 3.L L Q - + S.,X1   U.gX#X#X;X#X#X-X#X#X#X#X#X#X#X#X#X",
"$X$X=X=X#X#X#X#X#X#X*X#X*X@XxXa.X D Y.7XP.T.5XP.P.!.M.S 6 s m s B M N m S 8XQ.W.U.!.Q.m , B.9XB.E.Y._.h.~ 1.K L ! - + S.,X1   J.gX#X#X;X#X#X-X#X#X#X#X#X$X$X#X#X",
"$X-X=X=X#X#X#X#X#X#X*X#X*X@XmXi.o D d.P.8XW.2XQ.6X2X8XI.m . O O & & + + O 0.`.W.8XP.0Xm . s ).9XR.R.`.'.{.f Q E ! ; O S.,X1 . J.gX#X#X;X#X#X-X#X$X#X#X#X#X#X$X#X",
"$X-X=X=X#X#X#X#X#X#X*X#X*X@XmXy.X M n.E.Q.P.Q.W.6XR.Q.B.C , 2 r t p w t r s ).Y.`.Y.`.0.2 2 <.'.W.5XP.).[.6.h E ] ; O S.,X1 . J.gX#X#X;X#X#X-X#X$X#X#X#X#X#X$X#X",
"$X$X=X=X#X#X#X#X&X#X*X#X*X@XmXy.X j d.G B.qXQ.T.R.P.P.0X`.B r q.! ) ! :.;.a f.).I.`.).XXB B c h.R.T.b.N.V.{.p E ] ; O S.,X1 . J.gX#X#X;X#X#X-X#X#X#X#X#X#X#X#X#X",
"$X=X#X#X#X#X#X#X&X#X*X#X*X@XmXy.X C JXZ   D `..XY.8Xb.N..X'.a x ) ^ E T ~ &.z .X.X0.D I.e.x x y s 7 @ a x i J E ] ; O S.,X1 X H.gX#X#X;X#X#X-X#X#X#X#X#X#X#X#X#X",
"#X#X#X&X&X&X&X&X#X$X#X;X$X%XhXu.X M vX<.  6 q.V.G.9XG.f.XXN.z ~ Q ^ ) J Q ~ v G.E.m.Q.m.N.V.l f v > & x 8.3./ R ! ; + S.zX4 X U.gX#X#X-X#X#X-X#X#X#X#X#X#X#X#X#X",
"#X#X#X#X&X&X&X&X$X$X$XdX$X%XhXp.X M <Xc.. s ,.,.q.f.<.s j z x ! ^ ^ / ^ ) Q ~ V..X!.8X.XXX[.:.f T 0 * T 3.$.Y I ! - + S.zX4 X L.gX#X#X-X#X#X-X#X$X$X#X#X#X#X#X#X",
"#X#X#X#X#X#X&X&X$X$X$X;X$X%XhXp.X b <Xc.. a 8.! W W ;.w & t -.) ^ I ^ I I R T ,./.N.N.q.<.:.J p l 9 & T 3.( Y Y Q 9 & z.,Xe X H.fX#X#X-X#X#X-X#X#X#X#X#X#X#X#X$X",
"#X#X#X#X#X#X#X#X$X$X$X;X$X%XhXp.X b <X' O d 7.X.| ` 7.i & w ) R _ I / I I I J T t a a a i f J J l - & l 3. .Y Y Q 9 & z.,Xe o H.fX#X#X-X#X#X-X#X#X#X#X#X#X#X#X$X",
"#X#X#X#X#X#X#X#X$X$X$X;X$X%XfXy.X V <X' O d 3. .o.4.4.p & i -.) ) I Y Y Y U / L ` :.W :.1./ K p ~ 0 & x 3. .Y I Q - & z.,Xe o H.fX#X#X;X#X#X-X#X#X#X#X#X#X#X#X$X",
"#X#X#X#X#X#X#X#X*X$X$X;X$X%XfXy.  V <X' O i 3._ | ..| w & t T T T T J K K L E J T ~ x l T T J p i ; + x 8...^ R ! - + S.zXe X H.fX#X#X;X#X#X-X#X#X#X#X#X#X#X#X$X",
"#X#X&X#X*X&X#X&X*X$X$X;X$X%XhXu.  M <X>.O d 3. .o.4.1.i O + * & + + + & * & & + O O = = & & & & ; + + x 8.2./ E &.; O S.zX4 X H.jX#X#X;X#X#X-X#X$X$X#X#X#X#X#X#X",
"#X#X&X&X*X&X&X&X*X$X$X;X$X%XhXu.o N <X>.O d 3. .| | 1.l O + & & O O O & * + & & = + + O + & + & & & ; W 8.2./ R &.: O S.zX4 X L.gX#X#X;X#X#X-X#X#X#X#X#X#X#X#X#X",
"#X&X&X&X&X&X&X$X$X$X$XdX$X#XhXu.  Z ,X' O y 2.( X.o.o.1.:.;.:.*.;.;.;.:.! ! Q Q ! ! *.*.*.*.*.*.! ` :.1.X. .( R W = O G.lX6 X }.gX#X#X-X#X#X-X#X#X#X#X#X#X#X#X#X",
"#X&X&X&X&X&X&X$X$X$X$X;X$X$XhXu.  Z <X' O a 3.$.{ [  .X.1.1.1.1.4.1.1.2.....o.X.........2.2.2.X.[ [ | | { +.U K :.; O /.zXu X U.gX#X#X-X#X#X-X#X#X#X#X#X#X#X#X#X",
"#X#X&X&X&X&X#X#X$X$X$X;X$X$XhXy.  b <X' . y X.( } +.+.@. .3.$.$.| | | | [ [ [ [ [ [ [ [ [ [ [ [ #.#.{ { #.%.U I Q - + {.OXe   H.fX#X#X-X#X#X-X#X#X#X#X#X#X#X$X#X",
"#X#X&X&X&X&X#X#X$X$X$X;X$X$XhXy.X b <Xs.o v 3.( { +.+.@._ _ @.+.{ [ [ [ [ [ { { { { { { { { { { O.} { { #.%.U I E 0 & /.OXe o J.fX#X#X-X#X#X-X#X#X#X#X#X#X#X$X#X",
"#X#X&X&X&X&X#X#X$X$X$X;X$X%XhXy.  V <Xb X a 4.X.X. .@._ _ _ _ ( { } { { [ [ { { { { #.#.#.{ { { / [ | o.[ ( U L W - + /.,Xe . D.fX#X#X;X#X#X-X#X#X#X#X#X$X$X#X#X",
"#X#X&X&X&X&X#X#X$X$X$X;X$X%XfXu.@ Z 1Xt.# s ,.8.7.8.7.7.6.6.5.5.......2.2.4.4.4.2.2...........2.4.4.6.6.8.2.| ! ,., @ S.OXk o J.fX#X#X-X#X#X-X#X#X#X#X#X#X#X#X#X",
"#X#X#X&X&X#X#X#X$X$X$X;X$X%XfXu.. 8 V 3   % s t r r r r 2 2 e e w w r r r 7 7 7 r r r r r r r r 2 2 7 2 q 0 0 > 7     k C $ X Z.gX#X#X-X#X#X-X#X#X#X#X#X#X#X#X#X",
"#X#X#X#X#X#X#X#X$X$X$X;X$X%XfXg.O O O   % % @ + O O O .   X o . O O . .             . . . . . . .       O + + O   % o   o X X |.gX#X#X;X#X#X-X#X#X#X#X#X#X#X#X#X"
};
